<mxfile host="app.diagrams.net" modified="2021-10-15T09:13:48.732Z" agent="5.0 (X11; Linux x86_64) AppleWebKit/537.36 (KHTML, like Gecko) Chrome/92.0.4515.159 Safari/537.36" etag="-FGpa25V3YyL_am_E0fJ" version="15.5.2" type="github" pages="2">
  <diagram id="C5RBs43oDa-KdzZeNtuy" name="Page-1">
    <mxGraphModel dx="2069" dy="505" grid="1" gridSize="10" guides="1" tooltips="1" connect="1" arrows="1" fold="1" page="1" pageScale="1" pageWidth="827" pageHeight="1169" background="#F4F1DE" math="0" shadow="0">
      <root>
        <mxCell id="WIyWlLk6GJQsqaUBKTNV-0" />
        <mxCell id="WIyWlLk6GJQsqaUBKTNV-1" parent="WIyWlLk6GJQsqaUBKTNV-0" />
        <mxCell id="cXA_Oft2BCzyXbZq9LFq-0" value="3a5000主机：" style="text;html=1;align=center;verticalAlign=middle;resizable=0;points=[];autosize=1;strokeColor=none;fillColor=none;fontColor=#393C56;" parent="WIyWlLk6GJQsqaUBKTNV-1" vertex="1">
          <mxGeometry y="130" width="90" height="20" as="geometry" />
        </mxCell>
        <mxCell id="cXA_Oft2BCzyXbZq9LFq-37" value="" style="edgeStyle=none;rounded=1;sketch=0;orthogonalLoop=1;jettySize=auto;html=1;fontColor=#393C56;startArrow=oval;startFill=1;strokeColor=#E07A5F;fillColor=#F2CC8F;" parent="WIyWlLk6GJQsqaUBKTNV-1" source="cXA_Oft2BCzyXbZq9LFq-25" target="cXA_Oft2BCzyXbZq9LFq-36" edge="1">
          <mxGeometry relative="1" as="geometry" />
        </mxCell>
        <mxCell id="cXA_Oft2BCzyXbZq9LFq-53" value="" style="edgeStyle=none;rounded=1;sketch=0;orthogonalLoop=1;jettySize=auto;html=1;fontColor=#393C56;startArrow=oval;startFill=1;strokeColor=#E07A5F;fillColor=#F2CC8F;dashed=1;shape=link;" parent="WIyWlLk6GJQsqaUBKTNV-1" source="cXA_Oft2BCzyXbZq9LFq-25" target="cXA_Oft2BCzyXbZq9LFq-52" edge="1">
          <mxGeometry relative="1" as="geometry" />
        </mxCell>
        <mxCell id="cXA_Oft2BCzyXbZq9LFq-25" value="&lt;div style=&quot;color: rgb(212 , 212 , 212) ; background-color: rgb(30 , 30 , 30) ; font-family: &amp;#34;droid sans mono&amp;#34; , monospace , monospace , &amp;#34;droid sans fallback&amp;#34; ; font-size: 14px ; line-height: 19px&quot;&gt;&lt;span style=&quot;color: #4ec9b0&quot;&gt;json&lt;/span&gt;::&lt;span style=&quot;color: #dcdcaa&quot;&gt;parse&lt;/span&gt;(&lt;span style=&quot;color: #dcdcaa&quot;&gt;GetFileContentFromPath&lt;/span&gt;(&lt;span style=&quot;color: #9cdcfe&quot;&gt;control_path&lt;/span&gt;))&lt;/div&gt;" style="whiteSpace=wrap;html=1;rounded=1;shadow=0;fontColor=#393C56;strokeColor=#E07A5F;strokeWidth=1;fillColor=#F2CC8F;glass=0;" parent="WIyWlLk6GJQsqaUBKTNV-1" vertex="1">
          <mxGeometry x="-27.5" y="200" width="495" height="50" as="geometry" />
        </mxCell>
        <mxCell id="cXA_Oft2BCzyXbZq9LFq-55" value="" style="edgeStyle=none;shape=link;rounded=1;sketch=0;orthogonalLoop=1;jettySize=auto;html=1;dashed=1;fontColor=#393C56;startArrow=oval;startFill=1;strokeColor=#E07A5F;fillColor=#F2CC8F;" parent="WIyWlLk6GJQsqaUBKTNV-1" source="cXA_Oft2BCzyXbZq9LFq-36" target="cXA_Oft2BCzyXbZq9LFq-54" edge="1">
          <mxGeometry relative="1" as="geometry" />
        </mxCell>
        <mxCell id="cXA_Oft2BCzyXbZq9LFq-36" value="&lt;div style=&quot;background-color: rgb(30 , 30 , 30) ; line-height: 19px&quot;&gt;&lt;div style=&quot;color: rgb(212 , 212 , 212) ; font-family: &amp;#34;droid sans mono&amp;#34; , monospace , monospace , &amp;#34;droid sans fallback&amp;#34; ; font-size: 14px ; line-height: 19px&quot;&gt;&lt;span style=&quot;color: #4ec9b0&quot;&gt;GenInstContext&lt;/span&gt; &lt;span style=&quot;color: #9cdcfe&quot;&gt;testGenerator&lt;/span&gt;({&lt;span style=&quot;color: #ce9178&quot;&gt;&quot;./init/test.json&quot;&lt;/span&gt;}, &lt;span style=&quot;color: #9cdcfe&quot;&gt;black_list&lt;/span&gt;);&lt;/div&gt;&lt;/div&gt;" style="whiteSpace=wrap;html=1;rounded=1;shadow=0;fontColor=#393C56;strokeColor=#E07A5F;strokeWidth=1;fillColor=#F2CC8F;glass=0;" parent="WIyWlLk6GJQsqaUBKTNV-1" vertex="1">
          <mxGeometry x="-20" y="270" width="480" height="50" as="geometry" />
        </mxCell>
        <mxCell id="cXA_Oft2BCzyXbZq9LFq-41" value="" style="edgeStyle=none;rounded=1;sketch=0;orthogonalLoop=1;jettySize=auto;html=1;fontColor=#393C56;startArrow=oval;startFill=1;strokeColor=#E07A5F;fillColor=#F2CC8F;exitX=0.5;exitY=1;exitDx=0;exitDy=0;" parent="WIyWlLk6GJQsqaUBKTNV-1" source="cXA_Oft2BCzyXbZq9LFq-36" target="cXA_Oft2BCzyXbZq9LFq-40" edge="1">
          <mxGeometry relative="1" as="geometry">
            <mxPoint x="220" y="420" as="sourcePoint" />
          </mxGeometry>
        </mxCell>
        <mxCell id="cXA_Oft2BCzyXbZq9LFq-59" value="" style="edgeStyle=none;shape=link;rounded=1;sketch=0;orthogonalLoop=1;jettySize=auto;html=1;dashed=1;fontColor=#393C56;startArrow=oval;startFill=1;strokeColor=#E07A5F;fillColor=#F2CC8F;" parent="WIyWlLk6GJQsqaUBKTNV-1" source="cXA_Oft2BCzyXbZq9LFq-40" target="cXA_Oft2BCzyXbZq9LFq-58" edge="1">
          <mxGeometry relative="1" as="geometry" />
        </mxCell>
        <mxCell id="sbwN-sADD-QaQB_fu3mj-3" value="" style="edgeStyle=orthogonalEdgeStyle;rounded=0;orthogonalLoop=1;jettySize=auto;html=1;" parent="WIyWlLk6GJQsqaUBKTNV-1" source="cXA_Oft2BCzyXbZq9LFq-40" target="sbwN-sADD-QaQB_fu3mj-2" edge="1">
          <mxGeometry relative="1" as="geometry" />
        </mxCell>
        <mxCell id="cXA_Oft2BCzyXbZq9LFq-40" value="&lt;div style=&quot;color: rgb(212 , 212 , 212) ; background-color: rgb(30 , 30 , 30) ; font-family: &amp;#34;droid sans mono&amp;#34; , monospace , monospace , &amp;#34;droid sans fallback&amp;#34; ; font-size: 14px ; line-height: 19px&quot;&gt;&lt;span style=&quot;color: #c586c0&quot;&gt;while&lt;/span&gt;(&lt;span style=&quot;color: #9cdcfe&quot;&gt;cur_ins_size&lt;/span&gt; &amp;lt; &lt;span style=&quot;color: #9cdcfe&quot;&gt;total_ins_size&lt;/span&gt;)&lt;/div&gt;" style="whiteSpace=wrap;html=1;rounded=1;shadow=0;fontColor=#393C56;strokeColor=#E07A5F;strokeWidth=1;fillColor=#F2CC8F;glass=0;" parent="WIyWlLk6GJQsqaUBKTNV-1" vertex="1">
          <mxGeometry x="40" y="390" width="360" height="60" as="geometry" />
        </mxCell>
        <mxCell id="cXA_Oft2BCzyXbZq9LFq-52" value="将控制信息中的内容解析出来，其中包含指令黑名单，测试指令总数，每个批次测试指令的最大数量和最小数量" style="shape=document;whiteSpace=wrap;html=1;boundedLbl=1;rounded=1;shadow=0;fontColor=#393C56;strokeColor=#E07A5F;strokeWidth=1;fillColor=#F2CC8F;glass=0;" parent="WIyWlLk6GJQsqaUBKTNV-1" vertex="1">
          <mxGeometry x="610" y="150" width="160" height="100" as="geometry" />
        </mxCell>
        <mxCell id="cXA_Oft2BCzyXbZq9LFq-54" value="从test.json中剔除黑名单中的指令" style="shape=document;whiteSpace=wrap;html=1;boundedLbl=1;rounded=1;shadow=0;fontColor=#393C56;strokeColor=#E07A5F;strokeWidth=1;fillColor=#F2CC8F;glass=0;" parent="WIyWlLk6GJQsqaUBKTNV-1" vertex="1">
          <mxGeometry x="630" y="260" width="120" height="80" as="geometry" />
        </mxCell>
        <mxCell id="cXA_Oft2BCzyXbZq9LFq-58" value="分批进行测试" style="shape=document;whiteSpace=wrap;html=1;boundedLbl=1;rounded=1;shadow=0;fontColor=#393C56;strokeColor=#E07A5F;strokeWidth=1;fillColor=#F2CC8F;glass=0;" parent="WIyWlLk6GJQsqaUBKTNV-1" vertex="1">
          <mxGeometry x="500" y="380" width="120" height="80" as="geometry" />
        </mxCell>
        <mxCell id="sbwN-sADD-QaQB_fu3mj-8" value="" style="edgeStyle=orthogonalEdgeStyle;shape=link;rounded=0;orthogonalLoop=1;jettySize=auto;html=1;dashed=1;" parent="WIyWlLk6GJQsqaUBKTNV-1" source="sbwN-sADD-QaQB_fu3mj-2" target="sbwN-sADD-QaQB_fu3mj-7" edge="1">
          <mxGeometry relative="1" as="geometry" />
        </mxCell>
        <mxCell id="vzrJKxOy2VjKRbDUchYH-1" value="" style="edgeStyle=orthogonalEdgeStyle;rounded=0;orthogonalLoop=1;jettySize=auto;html=1;" parent="WIyWlLk6GJQsqaUBKTNV-1" source="sbwN-sADD-QaQB_fu3mj-2" target="vzrJKxOy2VjKRbDUchYH-0" edge="1">
          <mxGeometry relative="1" as="geometry" />
        </mxCell>
        <mxCell id="sbwN-sADD-QaQB_fu3mj-2" value="&lt;meta charset=&quot;utf-8&quot;&gt;&lt;div style=&quot;color: rgb(212, 212, 212); background-color: rgb(30, 30, 30); font-family: &amp;quot;droid sans mono&amp;quot;, monospace, monospace, &amp;quot;droid sans fallback&amp;quot;; font-weight: normal; font-size: 14px; line-height: 19px;&quot;&gt;&lt;div&gt;&lt;span style=&quot;color: #9cdcfe&quot;&gt;testGenerator&lt;/span&gt;&lt;span style=&quot;color: #d4d4d4&quot;&gt;.&lt;/span&gt;&lt;span style=&quot;color: #dcdcaa&quot;&gt;ProvideInstsBlock&lt;/span&gt;&lt;span style=&quot;color: #d4d4d4&quot;&gt;(&lt;/span&gt;&lt;span style=&quot;color: #9cdcfe&quot;&gt;insts&lt;/span&gt;&lt;span style=&quot;color: #d4d4d4&quot;&gt;, &lt;/span&gt;&lt;span style=&quot;color: #9cdcfe&quot;&gt;inst_num_in_package&lt;/span&gt;&lt;span style=&quot;color: #d4d4d4&quot;&gt;);&lt;/span&gt;&lt;/div&gt;&lt;/div&gt;" style="whiteSpace=wrap;html=1;rounded=1;shadow=0;fontColor=#393C56;strokeColor=#E07A5F;strokeWidth=1;fillColor=#F2CC8F;glass=0;" parent="WIyWlLk6GJQsqaUBKTNV-1" vertex="1">
          <mxGeometry x="-60" y="472.5" width="560" height="55" as="geometry" />
        </mxCell>
        <mxCell id="sbwN-sADD-QaQB_fu3mj-7" value="产生指令块：实现了随机生成一组指令，每条指令的操作数类型和操作码都是随机生成的" style="shape=document;whiteSpace=wrap;html=1;boundedLbl=1;rounded=1;shadow=0;fontColor=#393C56;strokeColor=#E07A5F;strokeWidth=1;fillColor=#F2CC8F;glass=0;" parent="WIyWlLk6GJQsqaUBKTNV-1" vertex="1">
          <mxGeometry x="650" y="431.25" width="120" height="137.5" as="geometry" />
        </mxCell>
        <mxCell id="vzrJKxOy2VjKRbDUchYH-5" value="" style="edgeStyle=orthogonalEdgeStyle;rounded=0;orthogonalLoop=1;jettySize=auto;html=1;shape=link;dashed=1;" parent="WIyWlLk6GJQsqaUBKTNV-1" source="vzrJKxOy2VjKRbDUchYH-0" target="vzrJKxOy2VjKRbDUchYH-4" edge="1">
          <mxGeometry relative="1" as="geometry" />
        </mxCell>
        <mxCell id="vzrJKxOy2VjKRbDUchYH-13" value="" style="edgeStyle=orthogonalEdgeStyle;rounded=0;orthogonalLoop=1;jettySize=auto;html=1;dashed=1;" parent="WIyWlLk6GJQsqaUBKTNV-1" source="vzrJKxOy2VjKRbDUchYH-0" target="vzrJKxOy2VjKRbDUchYH-12" edge="1">
          <mxGeometry relative="1" as="geometry" />
        </mxCell>
        <mxCell id="vzrJKxOy2VjKRbDUchYH-0" value="&lt;div style=&quot;color: rgb(212 , 212 , 212) ; background-color: rgb(30 , 30 , 30) ; font-family: &amp;#34;droid sans mono&amp;#34; , monospace , monospace , &amp;#34;droid sans fallback&amp;#34; ; font-weight: normal ; font-size: 14px ; line-height: 19px&quot;&gt;&lt;div style=&quot;font-family: &amp;#34;droid sans mono&amp;#34; , monospace , monospace , &amp;#34;droid sans fallback&amp;#34; ; line-height: 19px&quot;&gt;&lt;div style=&quot;font-family: &amp;#34;droid sans mono&amp;#34; , monospace , monospace , &amp;#34;droid sans fallback&amp;#34; ; line-height: 19px&quot;&gt;&lt;span style=&quot;color: #9cdcfe&quot;&gt;testGenerator&lt;/span&gt;.&lt;span style=&quot;color: #dcdcaa&quot;&gt;ProvideContext&lt;/span&gt;(*&lt;span style=&quot;color: #9cdcfe&quot;&gt;reg_buf&lt;/span&gt;, *&lt;span style=&quot;color: #9cdcfe&quot;&gt;mem_buf&lt;/span&gt;);&lt;/div&gt;&lt;/div&gt;&lt;/div&gt;" style="whiteSpace=wrap;html=1;rounded=1;shadow=0;fontColor=#393C56;strokeColor=#E07A5F;strokeWidth=1;fillColor=#F2CC8F;glass=0;" parent="WIyWlLk6GJQsqaUBKTNV-1" vertex="1">
          <mxGeometry x="-60" y="550" width="560" height="55" as="geometry" />
        </mxCell>
        <mxCell id="vzrJKxOy2VjKRbDUchYH-4" value="产生上下文：随机填充reg_buf, mem_buf" style="shape=document;whiteSpace=wrap;html=1;boundedLbl=1;rounded=1;shadow=0;fontColor=#393C56;strokeColor=#E07A5F;strokeWidth=1;fillColor=#F2CC8F;glass=0;" parent="WIyWlLk6GJQsqaUBKTNV-1" vertex="1">
          <mxGeometry x="520" y="537.5" width="120" height="80" as="geometry" />
        </mxCell>
        <mxCell id="vzrJKxOy2VjKRbDUchYH-10" value="" style="endArrow=none;dashed=1;html=1;dashPattern=1 3;strokeWidth=2;rounded=0;edgeStyle=orthogonalEdgeStyle;" parent="WIyWlLk6GJQsqaUBKTNV-1" edge="1">
          <mxGeometry width="50" height="50" relative="1" as="geometry">
            <mxPoint x="-200" y="450" as="sourcePoint" />
            <mxPoint x="-210" y="470" as="targetPoint" />
            <Array as="points">
              <mxPoint x="-200" y="450" />
              <mxPoint x="-200" y="440" />
              <mxPoint x="-210" y="440" />
              <mxPoint x="-210" y="1270" />
              <mxPoint x="840" y="1270" />
              <mxPoint x="840" y="340" />
              <mxPoint x="-210" y="340" />
            </Array>
          </mxGeometry>
        </mxCell>
        <mxCell id="vzrJKxOy2VjKRbDUchYH-17" value="" style="edgeStyle=orthogonalEdgeStyle;rounded=0;orthogonalLoop=1;jettySize=auto;html=1;dashed=1;" parent="WIyWlLk6GJQsqaUBKTNV-1" source="vzrJKxOy2VjKRbDUchYH-12" target="vzrJKxOy2VjKRbDUchYH-16" edge="1">
          <mxGeometry relative="1" as="geometry" />
        </mxCell>
        <mxCell id="vzrJKxOy2VjKRbDUchYH-12" value="&lt;div style=&quot;color: rgb(212 , 212 , 212) ; background-color: rgb(30 , 30 , 30) ; font-family: &amp;#34;droid sans mono&amp;#34; , monospace , monospace , &amp;#34;droid sans fallback&amp;#34; ; font-weight: normal ; font-size: 14px ; line-height: 19px&quot;&gt;&lt;div style=&quot;font-family: &amp;#34;droid sans mono&amp;#34; , monospace , monospace , &amp;#34;droid sans fallback&amp;#34; ; line-height: 19px&quot;&gt;&lt;div style=&quot;font-family: &amp;#34;droid sans mono&amp;#34; , monospace , monospace , &amp;#34;droid sans fallback&amp;#34; ; line-height: 19px&quot;&gt;&lt;div style=&quot;font-family: &amp;#34;droid sans mono&amp;#34; , monospace , monospace , &amp;#34;droid sans fallback&amp;#34; ; line-height: 19px&quot;&gt;&lt;span style=&quot;color: #c586c0&quot;&gt;for&lt;/span&gt;(&lt;span style=&quot;color: #569cd6&quot;&gt;auto&lt;/span&gt; &amp;amp; &lt;span style=&quot;color: #9cdcfe&quot;&gt;gen_inst&lt;/span&gt; : &lt;span style=&quot;color: #9cdcfe&quot;&gt;insts&lt;/span&gt;){&lt;/div&gt;&lt;/div&gt;&lt;/div&gt;&lt;/div&gt;" style="whiteSpace=wrap;html=1;rounded=1;shadow=0;fontColor=#393C56;strokeColor=#E07A5F;strokeWidth=1;fillColor=#F2CC8F;glass=0;" parent="WIyWlLk6GJQsqaUBKTNV-1" vertex="1">
          <mxGeometry x="-60" y="685" width="560" height="55" as="geometry" />
        </mxCell>
        <mxCell id="vzrJKxOy2VjKRbDUchYH-19" value="" style="edgeStyle=orthogonalEdgeStyle;rounded=0;orthogonalLoop=1;jettySize=auto;html=1;" parent="WIyWlLk6GJQsqaUBKTNV-1" source="vzrJKxOy2VjKRbDUchYH-16" target="vzrJKxOy2VjKRbDUchYH-18" edge="1">
          <mxGeometry relative="1" as="geometry" />
        </mxCell>
        <mxCell id="vzrJKxOy2VjKRbDUchYH-27" value="" style="edgeStyle=orthogonalEdgeStyle;shape=link;rounded=0;orthogonalLoop=1;jettySize=auto;html=1;dashed=1;" parent="WIyWlLk6GJQsqaUBKTNV-1" source="vzrJKxOy2VjKRbDUchYH-16" target="vzrJKxOy2VjKRbDUchYH-26" edge="1">
          <mxGeometry relative="1" as="geometry" />
        </mxCell>
        <mxCell id="vzrJKxOy2VjKRbDUchYH-16" value="&lt;div style=&quot;color: rgb(212 , 212 , 212) ; background-color: rgb(30 , 30 , 30) ; font-family: &amp;#34;droid sans mono&amp;#34; , monospace , monospace , &amp;#34;droid sans fallback&amp;#34; ; font-weight: normal ; font-size: 14px ; line-height: 19px&quot;&gt;&lt;div style=&quot;font-family: &amp;#34;droid sans mono&amp;#34; , monospace , monospace , &amp;#34;droid sans fallback&amp;#34; ; line-height: 19px&quot;&gt;&lt;div style=&quot;font-family: &amp;#34;droid sans mono&amp;#34; , monospace , monospace , &amp;#34;droid sans fallback&amp;#34; ; line-height: 19px&quot;&gt;&lt;div style=&quot;font-family: &amp;#34;droid sans mono&amp;#34; , monospace , monospace , &amp;#34;droid sans fallback&amp;#34; ; line-height: 19px&quot;&gt;&lt;div style=&quot;font-family: &amp;#34;droid sans mono&amp;#34; , monospace , monospace , &amp;#34;droid sans fallback&amp;#34; ; line-height: 19px&quot;&gt;&lt;span style=&quot;color: #9cdcfe&quot;&gt;inst&lt;/span&gt;-&amp;gt;&lt;span style=&quot;color: #dcdcaa&quot;&gt;set_asm_&lt;/span&gt;(&lt;span style=&quot;color: #9cdcfe&quot;&gt;gen_inst&lt;/span&gt;.&lt;span style=&quot;color: #dcdcaa&quot;&gt;ExportAsAsm&lt;/span&gt;());&lt;/div&gt;&lt;/div&gt;&lt;/div&gt;&lt;/div&gt;&lt;/div&gt;" style="whiteSpace=wrap;html=1;rounded=1;shadow=0;fontColor=#393C56;strokeColor=#E07A5F;strokeWidth=1;fillColor=#F2CC8F;glass=0;" parent="WIyWlLk6GJQsqaUBKTNV-1" vertex="1">
          <mxGeometry x="-60" y="760" width="560" height="55" as="geometry" />
        </mxCell>
        <mxCell id="vzrJKxOy2VjKRbDUchYH-29" value="" style="edgeStyle=orthogonalEdgeStyle;shape=link;rounded=0;orthogonalLoop=1;jettySize=auto;html=1;dashed=1;" parent="WIyWlLk6GJQsqaUBKTNV-1" source="vzrJKxOy2VjKRbDUchYH-18" target="vzrJKxOy2VjKRbDUchYH-28" edge="1">
          <mxGeometry relative="1" as="geometry" />
        </mxCell>
        <mxCell id="vzrJKxOy2VjKRbDUchYH-34" value="" style="edgeStyle=orthogonalEdgeStyle;rounded=0;orthogonalLoop=1;jettySize=auto;html=1;" parent="WIyWlLk6GJQsqaUBKTNV-1" source="vzrJKxOy2VjKRbDUchYH-18" target="vzrJKxOy2VjKRbDUchYH-33" edge="1">
          <mxGeometry relative="1" as="geometry" />
        </mxCell>
        <mxCell id="vzrJKxOy2VjKRbDUchYH-18" value="&lt;div style=&quot;color: rgb(212 , 212 , 212) ; background-color: rgb(30 , 30 , 30) ; font-family: &amp;#34;droid sans mono&amp;#34; , monospace , monospace , &amp;#34;droid sans fallback&amp;#34; ; font-weight: normal ; font-size: 14px ; line-height: 19px&quot;&gt;&lt;div style=&quot;font-family: &amp;#34;droid sans mono&amp;#34; , monospace , monospace , &amp;#34;droid sans fallback&amp;#34; ; line-height: 19px&quot;&gt;&lt;div style=&quot;font-family: &amp;#34;droid sans mono&amp;#34; , monospace , monospace , &amp;#34;droid sans fallback&amp;#34; ; line-height: 19px&quot;&gt;&lt;div style=&quot;font-family: &amp;#34;droid sans mono&amp;#34; , monospace , monospace , &amp;#34;droid sans fallback&amp;#34; ; line-height: 19px&quot;&gt;&lt;div style=&quot;font-family: &amp;#34;droid sans mono&amp;#34; , monospace , monospace , &amp;#34;droid sans fallback&amp;#34; ; line-height: 19px&quot;&gt;&lt;span style=&quot;color: #9cdcfe&quot;&gt;inst&lt;/span&gt;-&amp;gt;&lt;span style=&quot;color: #dcdcaa&quot;&gt;set_machine_code&lt;/span&gt;(&lt;span style=&quot;color: #9cdcfe&quot;&gt;gen_inst&lt;/span&gt;.&lt;span style=&quot;color: #dcdcaa&quot;&gt;ExportAsBytes&lt;/span&gt;(&lt;span style=&quot;color: #9cdcfe&quot;&gt;testGenerator&lt;/span&gt;.&lt;span style=&quot;color: #9cdcfe&quot;&gt;keystone_eng&lt;/span&gt;));&lt;/div&gt;&lt;/div&gt;&lt;/div&gt;&lt;/div&gt;&lt;/div&gt;" style="whiteSpace=wrap;html=1;rounded=1;shadow=0;fontColor=#393C56;strokeColor=#E07A5F;strokeWidth=1;fillColor=#F2CC8F;glass=0;" parent="WIyWlLk6GJQsqaUBKTNV-1" vertex="1">
          <mxGeometry x="-90" y="830" width="650" height="55" as="geometry" />
        </mxCell>
        <mxCell id="vzrJKxOy2VjKRbDUchYH-22" value="" style="endArrow=none;dashed=1;html=1;rounded=0;edgeStyle=orthogonalEdgeStyle;" parent="WIyWlLk6GJQsqaUBKTNV-1" edge="1">
          <mxGeometry width="50" height="50" relative="1" as="geometry">
            <mxPoint x="200" y="667.5" as="sourcePoint" />
            <mxPoint x="210" y="667.5" as="targetPoint" />
            <Array as="points">
              <mxPoint x="-120" y="668" />
              <mxPoint x="-120" y="908" />
              <mxPoint x="770" y="908" />
              <mxPoint x="770" y="668" />
            </Array>
          </mxGeometry>
        </mxCell>
        <mxCell id="vzrJKxOy2VjKRbDUchYH-26" value="产生汇编代码" style="shape=document;whiteSpace=wrap;html=1;boundedLbl=1;rounded=1;shadow=0;fontColor=#393C56;strokeColor=#E07A5F;strokeWidth=1;fillColor=#F2CC8F;glass=0;" parent="WIyWlLk6GJQsqaUBKTNV-1" vertex="1">
          <mxGeometry x="590" y="680" width="120" height="80" as="geometry" />
        </mxCell>
        <mxCell id="vzrJKxOy2VjKRbDUchYH-28" value="产生机器码" style="shape=document;whiteSpace=wrap;html=1;boundedLbl=1;rounded=1;shadow=0;fontColor=#393C56;strokeColor=#E07A5F;strokeWidth=1;fillColor=#F2CC8F;glass=0;" parent="WIyWlLk6GJQsqaUBKTNV-1" vertex="1">
          <mxGeometry x="590" y="790" width="120" height="80" as="geometry" />
        </mxCell>
        <mxCell id="vzrJKxOy2VjKRbDUchYH-36" value="" style="edgeStyle=orthogonalEdgeStyle;rounded=0;orthogonalLoop=1;jettySize=auto;html=1;dashed=1;fontColor=#000000;shape=link;" parent="WIyWlLk6GJQsqaUBKTNV-1" source="vzrJKxOy2VjKRbDUchYH-33" target="vzrJKxOy2VjKRbDUchYH-35" edge="1">
          <mxGeometry relative="1" as="geometry" />
        </mxCell>
        <mxCell id="vzrJKxOy2VjKRbDUchYH-38" value="" style="edgeStyle=orthogonalEdgeStyle;rounded=0;orthogonalLoop=1;jettySize=auto;html=1;fontColor=#000000;" parent="WIyWlLk6GJQsqaUBKTNV-1" source="vzrJKxOy2VjKRbDUchYH-33" target="vzrJKxOy2VjKRbDUchYH-37" edge="1">
          <mxGeometry relative="1" as="geometry" />
        </mxCell>
        <mxCell id="vzrJKxOy2VjKRbDUchYH-33" value="&lt;div style=&quot;color: rgb(212 , 212 , 212) ; background-color: rgb(30 , 30 , 30) ; font-family: &amp;#34;droid sans mono&amp;#34; , monospace , monospace , &amp;#34;droid sans fallback&amp;#34; ; font-size: 14px ; line-height: 19px&quot;&gt;&lt;div&gt;&lt;span style=&quot;color: #569cd6&quot;&gt;auto&lt;/span&gt;* &lt;span style=&quot;color: #9cdcfe&quot;&gt;thread_x86_rpc&lt;/span&gt; = &lt;span style=&quot;color: #c586c0&quot;&gt;new&lt;/span&gt; &lt;span style=&quot;color: #4ec9b0&quot;&gt;std&lt;/span&gt;::&lt;span style=&quot;color: #4ec9b0&quot;&gt;thread&lt;/span&gt;([&amp;amp;](){&lt;/div&gt;&lt;div&gt;            &lt;span style=&quot;color: #9cdcfe&quot;&gt;client_x86&lt;/span&gt;.&lt;span style=&quot;color: #dcdcaa&quot;&gt;RunTestAndGetResult&lt;/span&gt;(&lt;span style=&quot;color: #9cdcfe&quot;&gt;test_case&lt;/span&gt;, &amp;amp;&lt;span style=&quot;color: #9cdcfe&quot;&gt;result_x86&lt;/span&gt;);&lt;/div&gt;&lt;div&gt;        });&lt;/div&gt;&lt;div&gt;        &lt;span style=&quot;color: #569cd6&quot;&gt;auto&lt;/span&gt;* &lt;span style=&quot;color: #9cdcfe&quot;&gt;thread_5000_rpc&lt;/span&gt; = &lt;span style=&quot;color: #c586c0&quot;&gt;new&lt;/span&gt; &lt;span style=&quot;color: #4ec9b0&quot;&gt;std&lt;/span&gt;::&lt;span style=&quot;color: #4ec9b0&quot;&gt;thread&lt;/span&gt;([&amp;amp;](){&lt;/div&gt;&lt;div&gt;            &lt;span style=&quot;color: #9cdcfe&quot;&gt;client_3a5000&lt;/span&gt;.&lt;span style=&quot;color: #dcdcaa&quot;&gt;RunTestAndGetResult&lt;/span&gt;(&lt;span style=&quot;color: #9cdcfe&quot;&gt;test_case&lt;/span&gt;, &amp;amp;&lt;span style=&quot;color: #9cdcfe&quot;&gt;result_3a5000&lt;/span&gt;);&lt;/div&gt;&lt;/div&gt;" style="whiteSpace=wrap;html=1;rounded=1;shadow=0;fontColor=#393C56;strokeColor=#E07A5F;strokeWidth=1;fillColor=#F2CC8F;glass=0;" parent="WIyWlLk6GJQsqaUBKTNV-1" vertex="1">
          <mxGeometry x="-90" y="930" width="650" height="120" as="geometry" />
        </mxCell>
        <mxCell id="vzrJKxOy2VjKRbDUchYH-35" value="在两台机器上运行生成的程序" style="shape=document;whiteSpace=wrap;html=1;boundedLbl=1;rounded=1;shadow=0;fontColor=#393C56;strokeColor=#E07A5F;strokeWidth=1;fillColor=#F2CC8F;glass=0;" parent="WIyWlLk6GJQsqaUBKTNV-1" vertex="1">
          <mxGeometry x="640" y="950" width="120" height="80" as="geometry" />
        </mxCell>
        <mxCell id="vzrJKxOy2VjKRbDUchYH-41" value="" style="edgeStyle=orthogonalEdgeStyle;rounded=0;orthogonalLoop=1;jettySize=auto;html=1;fontColor=#000000;shape=link;dashed=1;" parent="WIyWlLk6GJQsqaUBKTNV-1" source="vzrJKxOy2VjKRbDUchYH-37" target="vzrJKxOy2VjKRbDUchYH-40" edge="1">
          <mxGeometry relative="1" as="geometry" />
        </mxCell>
        <mxCell id="vzrJKxOy2VjKRbDUchYH-37" value="&lt;div style=&quot;color: rgb(212 , 212 , 212) ; background-color: rgb(30 , 30 , 30) ; font-family: &amp;#34;droid sans mono&amp;#34; , monospace , monospace , &amp;#34;droid sans fallback&amp;#34; ; font-size: 14px ; line-height: 19px&quot;&gt;&lt;div style=&quot;font-family: &amp;#34;droid sans mono&amp;#34; , monospace , monospace , &amp;#34;droid sans fallback&amp;#34; ; line-height: 19px&quot;&gt;&lt;span style=&quot;color: #c586c0&quot;&gt;if&lt;/span&gt;(&lt;span style=&quot;color: #9cdcfe&quot;&gt;expt_eflag_5000&lt;/span&gt; &lt;span style=&quot;color: #dcdcaa&quot;&gt;!=&lt;/span&gt; &lt;span style=&quot;color: #9cdcfe&quot;&gt;expt_eflag_x86&lt;/span&gt;)&lt;/div&gt;&lt;div style=&quot;font-family: &amp;#34;droid sans mono&amp;#34; , monospace , monospace , &amp;#34;droid sans fallback&amp;#34; ; line-height: 19px&quot;&gt;&lt;div style=&quot;font-family: &amp;#34;droid sans mono&amp;#34; , monospace , monospace , &amp;#34;droid sans fallback&amp;#34; ; line-height: 19px&quot;&gt;&lt;span style=&quot;color: #dcdcaa&quot;&gt;MinimizePoc&lt;/span&gt;(&lt;span style=&quot;color: #9cdcfe&quot;&gt;test_case&lt;/span&gt;, &lt;span style=&quot;color: #9cdcfe&quot;&gt;min_poc&lt;/span&gt;, &lt;span style=&quot;color: #9cdcfe&quot;&gt;client_x86&lt;/span&gt;, &lt;span style=&quot;color: #9cdcfe&quot;&gt;client_3a5000&lt;/span&gt;);&lt;/div&gt;&lt;/div&gt;&lt;/div&gt;" style="whiteSpace=wrap;html=1;rounded=1;shadow=0;fontColor=#393C56;strokeColor=#E07A5F;strokeWidth=1;fillColor=#F2CC8F;glass=0;" parent="WIyWlLk6GJQsqaUBKTNV-1" vertex="1">
          <mxGeometry x="-90" y="1130" width="650" height="90" as="geometry" />
        </mxCell>
        <mxCell id="vzrJKxOy2VjKRbDUchYH-40" value="如果结果不一样则定位错误语：依次删除汇编代码，如果删除该句之后程序能够成功运行，则该局可能是造成错误的原因。&lt;br&gt;利用这个方法一定能定位到一个错误，但当有多个错误时，只能定位到最后一个错误区域。" style="shape=document;whiteSpace=wrap;html=1;boundedLbl=1;rounded=1;shadow=0;fontColor=#393C56;strokeColor=#E07A5F;strokeWidth=1;fillColor=#F2CC8F;glass=0;" parent="WIyWlLk6GJQsqaUBKTNV-1" vertex="1">
          <mxGeometry x="590" y="1077.5" width="210" height="195" as="geometry" />
        </mxCell>
      </root>
    </mxGraphModel>
  </diagram>
  <diagram id="bHGTHVexfpkSSWLcN5AT" name="Page-2">
    <mxGraphModel dx="1490" dy="606" grid="1" gridSize="10" guides="1" tooltips="1" connect="1" arrows="1" fold="1" page="1" pageScale="1" pageWidth="827" pageHeight="1169" math="0" shadow="0">
      <root>
        <mxCell id="BbfnvtyRnh7v-UzqNb1H-0" />
        <mxCell id="BbfnvtyRnh7v-UzqNb1H-1" parent="BbfnvtyRnh7v-UzqNb1H-0" />
        <mxCell id="vdu_HfzRzDCNSPZ3rfIx-6" value="" style="shape=image;verticalLabelPosition=bottom;labelBackgroundColor=#ffffff;verticalAlign=top;aspect=fixed;imageAspect=0;image=data:image/jpeg,/9j/4AAQSkZJRgABAQAAAQABAAD/2wBDAAEBAQEBAQEBAQEBAQEBAQEBAQEBAQEBAQEBAQEBAQEBAQEBAQEBAQEBAQEBAQEBAQEBAQEBAQEBAQEBAQEBAQH/2wBDAQEBAQEBAQEBAQEBAQEBAQEBAQEBAQEBAQEBAQEBAQEBAQEBAQEBAQEBAQEBAQEBAQEBAQEBAQEBAQEBAQEBAQH/wAARCAAoAZkDASIAAhEBAxEB/8QAHwAAAQUBAQEBAQEAAAAAAAAAAAECAwQFBgcICQoL/8QAtRAAAgEDAwIEAwUFBAQAAAF9AQIDAAQRBRIhMUEGE1FhByJxFDKBkaEII0KxwRVS0fAkM2JyggkKFhcYGRolJicoKSo0NTY3ODk6Q0RFRkdISUpTVFVWV1hZWmNkZWZnaGlqc3R1dnd4eXqDhIWGh4iJipKTlJWWl5iZmqKjpKWmp6ipqrKztLW2t7i5usLDxMXGx8jJytLT1NXW19jZ2uHi4+Tl5ufo6erx8vP09fb3+Pn6/8QAHwEAAwEBAQEBAQEBAQAAAAAAAAECAwQFBgcICQoL/8QAtREAAgECBAQDBAcFBAQAAQJ3AAECAxEEBSExBhJBUQdhcRMiMoEIFEKRobHBCSMzUvAVYnLRChYkNOEl8RcYGRomJygpKjU2Nzg5OkNERUZHSElKU1RVVldYWVpjZGVmZ2hpanN0dXZ3eHl6goOEhYaHiImKkpOUlZaXmJmaoqOkpaanqKmqsrO0tba3uLm6wsPExcbHyMnK0tPU1dbX2Nna4uPk5ebn6Onq8vP09fb3+Pn6/9oADAMBAAIRAxEAPwD+W7wZ+z1qPxBTxR4d8KeNfCd78XfDHiXVNGh+Et9PPouseM9N0wpby6j8P9c1ZLPQ/EusG/jvYh4NefTfElzZ20V3pVrqk072Nt4Nqml6nompX2j61p19pGr6Xdz2Gp6XqdpPYajp99ayNDc2d9ZXUcVzaXVvMjxT288UcsUiskiKwIH0+PjPb/Bzxh8U5/Bfgvwve/FSX4l+MDonxh1p18SzeEtEXVp44D4D8MX1s/hzTPEUl3HcXkfje+j1nUra1uIYdCg0a5hfULj5k1jWdX8Q6rqOu6/qeoa1resXtxqOravqt5cahqWpahdytPdXt/fXUktzd3VzM7yz3E8jyyyMzuxYk11cOvjH+3uIVmqof6pr6r/q7LGfUlnrxXJfHqCymUsFLhvkdBZS8xVPiNYhY9ZlGeH+pTf7rw9/rB9axqxyp/2F7DBf2S8R9WWae39ivrSX1BvDPJ1H2X9nvFqOb+1+tLGxdJYaTza7/wCGHgtPH3jfRfDl1dPp2jyPc6l4l1dNo/sXwrotpPq3iTVi8iSRI1jo9ndy2/nI0cl15EJVjKFNTwXceArdvFP/AAnlj4hvlm8Ha5B4QHh97VDaeOZBbf8ACP3us/aryz3aBARd/wBopbm5uWDxeVaTYbb0Hhbxbo3hX4dePrOze4bxx43fS/CqSLAyQaV4Fjl/tjxE8d5nDXev6lZ6NpTW6AFdMt9REr7LpEbs4gx+azwOaZfk2DzCjmdSpl+V4LMnh4SwtGWbyp0a2cYefPUVWlkGHq1sdiY4inRhUrYWOEh7SdeHN35tisdLC43C5dh8XTxs54TBYbGexjKjSeYShTqZjSlecZ08qpTqYqvGtGnGdSgsPFylVhfq9L+Di+NfBMHirwJbazI9z8SvGXh+aTXdR0uDRPDvgnQdB8MazZa34n1g2On2WmzW412aPVtVuLm20+cx28Fjp0V06RXHMeHfhLd67pWr+Irvxp4E8MeF9L8RS+FofEviPUdbj03WtZitzetBotro/h7WdbuY/sBhvjPcaTaRJb3MHmMkzPCnXeAvjRp3g74fab4FvNLvta0y/wDG/ijUPHehy+RFo/iHwV4j8PeEdJFjb3QuWubfxFpuoeHpdX0m9NlGml6hb6XeQ3UxN1bB3w08d+APA19r4m8VfFA+G5/ECXFr4St/CXgrVtD8XaDaMDZp4y07xB4nutGtNWlhaa0mkttG19LSGWR7S5Jcxj4StjvETA4TiWnGliZ/V82rS4cnDA1MfjMdlLznH050ZYtUcyjhswWFjglgp4vKauXwwFWniK1avWq4yeUfM1cVxZhaGcQVOvL2WOnLKJQws8XiMTgHmWKhOnKuqWMVHFrDxw31aWIwE8JHC1IValWrUniJZfB8PvgXfeOPCHxH8RW+o6HLJ4a060PhiUePPA+g2eoaoPGGhaLfSaxaeJ9S07VNO0WTRr+/udLv9Th0CC81AWFtDd3FzMum3OFovwT13UbW7vtZ8VeAPBtjD4kufCFhfeJPEwnsNe8RWUNrcX1joV/4WsvE1lfW1jFf2DXeuNcQeHoft1sG1bLttteEPHnge11H4sad4g0jW9B8GfE/TZbC3g8Ixafqup+E47bxpo/jDR7ezs9XvdIs9Ts7X+x4tKnSW/sJWt386J1dfLN3R/F3wp1Dwhp/gbxwPH8el+EPGviTxF4V1bwzpvh+e/1fRfEsOiW9/o+vafqWuWdvpF648OWFzBqen3+tR2j3V3bmyu0hhml2xWO8QsLjM+Uninga2c5diMG8Hw59dzHLcjr8N4VP6nUeb4vLcwxNPiPCywGY4KGEjVpRxONzin7HBVsKsPdbE8V0MRmak6/1WrmeEq0Hhso+tYzBZXVyXDp/VpvH18Fi60M5oSwuMwsaEakI18VmMHDD1KCpUbD4EeJ2OqjxPr/gz4fDTPF2oeBI28a6ve2a6t4q0kQNqem6UdH0rWzLDYLd2LXWsXYs9ChW+tC2pgS/Lc8LfDfw/I3xZ8JeNtN8Vab8Qfh94c8Za5bzadrmjR6DBdeEo4IZdL1TS5vD+oXmo+detKwvtO1+ygktfK8lG3C4frfEHxg+HXxT/tFfidp3jPRVg+JPi3x1oB8FQaJqzS6V4wj0SLUPDGqjWdS0UW09snh3Tja+ILU3p3TXfm6MwEQL9G+K3wz1bxf8XvHfjmbx3pGrfEyz8a6Da6P4V8NeHtf0/SdE8Ux2Ys7ubVNW8ZeGrm51LT/JkgmtE0xLe5SKK5F9G9xJb2/l1s38Ra2AxUs3y3NcLjIQw1erhsjy+vKngcwo5zgPqOHyrF4Ctia+c4HMMleYYnOliPb0MHiaVLBylS9ssO+GeP4vqYSs8wweOoYmMaVWpQyzC1HTwuLpZjhPqlLAYjC1KtXMcNjMt+t18yVb2lLDV4Qw7cFUVN/K1fVnwX/Y5+MH7Qvg+w8WfB8eG/Gt1L8VvDXwn8QeDNOv9UTxj4GuvGVtLP4X8deM7O40WHSNL+GWqy2erWL+MbTW9Rt9GvtGvofENtpCS6ZJqHzBqSacmo36aPPe3WkpeXK6Zc6lawWOo3GnrM4s5r+ytbzUba0vJbcRvc21vqF9BBMzxRXdwirK/wChH7GH7YHw0/ZD8KeMbyHwN4k8f/ET4yanF8Lvi5Z6i1vpHg63/ZT1K2RviD4U8Gapp3iNdZk+Jvj+9eKBNf1HRdOsvBdjoNjJpF3qN1rWoiy/cFNzw06tKF6soYaeHpVlOjz1KmKwyVHEKSU6FKpTnOljKzXtcBhpV8ZCjia+FhhK/wB1mNbGRwsKuX05zrzd/ZyoqUlSeHrSqSlTqVKFq1GC9th6E6tBYnG0sPgatajTxM6sLvwA/YG1r4l6B+1Z8RLmz8dfGb4c/s3Wmp+ENEvv2X9D8ReLrj4tfGDU5bmw8H2/hW71H4fajqNt8M9Iitrrxx478Wat4OsXtvB9nZ2dsNP1PxNpN3Dkf8E6v2MdA/a4+NsWh/FvxJr3w6+BnhfVfC2ifEbxhohsrTxG3ij4ieIrfwR8NPh74Uk1jStZ08eMfGXjC/hihjvdI1CLTtA0nxLrVzaNDpTg978I/wBqH9mbwd4Ck+C2seJf2sfB/wAPPhv+1HrP7Q3we8YfCjTvAVn488Y6VqOj+GtAtPCnxU0K8+I2j6N4Z8QaZYeD9Kn0bxr4c8R+NItFutW8QJH4Zv4ZoK9K+Gn/AAVR8G6L8WoNa8f/ALKvw41f4aXv7bGp/tg3s2j638U7D4j+Hde1fxTBqNtcabb+FPit8N/AHjnXfAvh9Z7LwVZePtEuvDUeoXWoyXNlb2+t6sJ8KE6zxNPmU6lGpl+BpqVWnGhKlUdPKJYrFVY8zo/Xp1czz50sPNRpUJ8P4DD4tVcLjIV6vlZjUzyWCzqnhKVZYiWLxTwtWjKHtMPhoRzCnhqGFjWdJYmOIo5dldepiaaVehW4gxcoUp1stjgY/kn410W18OeMvFvh6xkuJbLQfE2vaLZy3bxvdSWul6rd2NvJcvDFBE9w8UCNM8UEMbSFikUakIPaf2f/AIe/Bvx3JfJ8WfHM/gxYvHnwp0KzaHxL4b8PCXwv4p1jWrTx3rLnxBpmoB/+Eb0+z026XUI9lhpP2ozatBdQzwInm/xg8Y+H/iF8UvH/AI48K+ENP8BeHfFfirWNc0jwhpl3r1/Z6JZ6hdyTx26XXibX/FOuSSylmuroXviDVBHd3E8VrcCzS3ij84rws0yrM884YjllLOsy4czTE4XLnPN8vVCWY4OvRqYbEYmMFVU6DlX9lVwta6kvZ1qjg78rPsK8qX1nESpQXsZVcQqUdLRpzc402nFyV6acZRtKSvFatanrfw4+FunfEe+1Sx/4Wr8Mfh9c2t7Z2WkWvxF1DxZp8niSW/luIoV0m88OeDfEulxCBoYVvJ9cvdEto2u7d45ZIvPeDqPDX7Mnxc8QeMfF/hNfDlnaf8K58YDwZ491fWfFvg7wh4e0TXI9TutOl0lPFXjHW9E8O3WrTtYX0mnafaX11fXsVu1xb2c0IJPqn7On7SHh74WeANQ8EX3iv4v/AAp1SXx9B40bx98ErHw9qOueJtK/smx0x/BHi2y1jxP4IupdFsJbF9S0eWz8TPbwXWrap9p0a4d4bhOm8U/tCfAz4o6j8SbLxv8A8La8KaBrH7TfjP8AaA8G6n4R8L+EPEuq39n4uis7M+H/ABl4e1fx54XsbK/0210u0msdT0vxHrMcEmoatZ/Z5Ynju3/Hs94s8XsHxJxRgsu4cxEeH6UaVHLs0xGVYviOWBhCpQoxzPA5dk2H4frZnDM6cqklluGz7OswyyrU+vY+WAw+Dq5XiLdOhWwtSbmqeIqVavJTpyVNwi6OazhT9pOU4Lmq4fLIU67oxpUIY1+1lXnCoqHm/iD9lbxVe/G34weA/hzp8994C+FvxU1fwHd+LfGXi7wT4Qtba0tvEOoaXpNtqPirxVfeEvC9z4m1Cw0+a5i02wVLu8eGaa00kQLsXyD46+BdJ+GPxo+K3w50G41G70TwL8QvF3hPSbrV5ra41W407QNcvdMs5tRnsrSws5r2WC2R7mW1sbSB5i7RW0KFY1+p/FP7QfwM+KGo/Emy8b/8La8J+H9Y/aa8Z/H/AMG6n4R8L+EPEuqX1n4uis7L/hH/ABl4e1fx54XsbG+0210u0msdT0rxHrMVvJqGrWf2eWJ47t/lj46+OdI+J3xo+K3xG0C31G00Tx18QvF3izSLXWIba31W307X9cvdTs4dRgsrzULSG9jguUS5jtr68gSYOsVzMgEjet4c5n4lY/P8HQ4wweMwOAy/g76tXoVcqxVCFXOVU4eVDH4zO6mOxGX53mGY0oZri3RyzB5f/YiqVsux8MTiVGu+jFxwaWPnQcW54+Kw0YzTjTw0MTnMHGlT5efklh1ltaVWUnGftadOEYyo1b+q+Af2ZdZ+KPwLsfiH4HksLvxpJ8Ytd+H1zo/iD4g/DnwTpVzo9l4P8J65pZ0O18bav4cvdb8R3Wq69d2stppGp6nI9stkiaTDKTcXHluo/Bfxpo3hSDxXrUVlpCP8V9b+Dd3oGotqFt4j0rxj4e0vRdU1RdUsG0421tYQJrltaF1vpb4XtveRSafHFHFNP698MfiT8CYvgzovw6+LLfFaO/8ADHxr1b4qWdt4B8PeE9Q03xFpuoeE/COgjQL/AF7XvGWi3vhy5lufDtyZdQtPDfiFbe2uYporeecNAnrfw0+Leq/GXxR8TbzxroP7ON14E8R/GW4+Md1pHxr+Jl78Pp/BniLxNLLBeap4KudC8c+CfFvimO20TT7Ox1fTLGz8Qx3L6dpMraZBdXKi48THcX+J3DmI4pxuNwMcVw1kvEGbYpVMXl0ctzOtlmLzTG4XJspyTMc0zmGV8Qzr0cRgMdQdDDZPHA0cNDKXicyzLGKjS5lCjLCUbN/WnDFU4xg3OU60nnMqLnRjCVS1Cccpk5Rf73DVZwpUqlSjURyPhP8AYn8W6nb/ALR9hrOreD28Q/Bhb/QNDks/i18MfDWk6n420H4l+FvCGuHW7Px5quheINO8Ivoup6zdaPrutWHhGx1DV49KsodSmvrhNFvPI/D37N3iXUrTWdT8U+O/hR8NNE0nxXceBrbxB4x8ZNqWheI/FtlZ2t/qOkeFtU+HWl+PbXW4dLstQ0241LX7d18L2SalYrPriyXCoPWdU+OPwqv/AI4ftd3fiNvF118Lv2hL/wAY6dY+I/Bem6ZeeJtLs5fivonxD8O63a6B4l1HQLPULe7bw5bW17p15q2k3SWt8zpPFcQmI6Pwb/al0T4d/DrXPg9D8Q/2gfhr4csfiJrnjTwX4/8AhA+i2nijUtP1mx07SbjRPH3gy68YaDpN2r22iaZqdlcaf4ymk0TUZtTtIm1KzuBKfNlnfjthcszfFLDU8bi8djeD8wo4ePDePwOIyfI8w4SyaOdVMBi3W4noYrGZfxNh8dhcxyKnwvXzOEa2OzShhaVDEYKjQ66tLAQr1aUZ/u6eaZjSVVVVUUsLHDXwDUVGLnSq4mEKcqkaqUb1pTqUoVoVcP8AHPjvwT4h+G/jLxL4D8WWsdl4j8J6xeaJrFtBcw3lul5ZSmN3tru3Z4Lq1mULPbXETFJoJI5BjdgepfDn9n/UPH/gw+PtQ+JXwu+Gvhyfxo/w/wBIufiJqXi60k17xVFpNhrVzYadH4V8F+LUtoLSw1XTpLnUdbk0jTomu41+1HZMYvJvGPiG/wDFfivxD4k1TXdc8T32s6vfX03iHxNJ5niHWBLO/k6hrTfa9QH9p3EAie8RL68jjmLxx3U6KsrfWfw++Lfg34e/suaFb33gv4Z/ErxnZ/tHeKfEmkeHfHOq+JZLjw1bp8OvAEFh4qPhXwr4w8Mvq+mXmo2NxYKPE9rq3h68uLC4tBbSSxXUZ/TeNc042y7hjhink9OeI4ozXMcryzM6mS4PA2hWqZPmGMxtfBUuI6qwWCwUswwVKFSeZzq1qGX1atOjCrmTwyfGoUp4yVODjGj/ALfKn7aT5bUcHi62GVadFyk4urSoqo6LlKcXKNJuUosb4B/Yy8aeIdG/aBHiJ/D2keKPhJZT6Vo+nXHxb+EnhuGTxvpPxG8KeFdctvE9r4p8RWl/Y+GF0TVdYuNK8QXZ8P6Nqmrx6Ta2GuXtxcxaVfeceGP2aPEmtad4h1jxF8QfhH8OdH8O+Nofh1JrHi3xjcaro+reMZ9OOqppWh6v8ONG8faZqMAsB9ofW1u4/D6Jlm1UKkjJf+HHxs0K51/47zfG+fxfqFn+0F4avNN8V+KPBdhod/4l0zX5fiB4Z+IketWmhaxqWgaNqFrcap4d+x3em/2tpIitLwmznjMCRnltV+IPg+P4H6t8I9CTxJdXH/C9JfiFo2ratp2l2ENx4Rh8IXfhmyTU4rPWtRez8RzSSQXN1p9qt/pkCGUQ6zcMiLJ8xh5+MUc1zzLMdmWEp/X+IOGHg8flXC2Ing8pyXE8N5TTzrE5ZmOaZzmGX4ilh89wWZ0KuAxmWUsdGWIlmjhRw+OwlGjtbBS/hqSgsbmTTrTXO8NDLp1svjOEYxk41MVTp0ZunVupusuaLr0nS8z8b+Dde+HnjDxL4G8UW0dp4h8J61qGg6xbwXEV3bpf6bcyW05truBnguraRo/NtrmJmjngeOVDtcV7p+zxofgO48OfH/xp458AaP8AEcfDX4XaP4l8PeH9f1vxnoekHWNT+KXgDwhLc3k/gbxL4V1mdYtK8R6j5UB1QW/2gxSyROYwK+Yq+sf2aLSx13wj+0v4Kk8UeCPDGt+NfhBoWk+GW8eeN/C3gHSdU1PT/jD8NfEV1YQa54v1bRtI+2Jo+jalepbteCWWO1k8tGIxX2PiPUxmD4FUsVmeJw1WGb8C0c6zXJ8RmGQTjl9TjHhyhxFiqGIwGPeYZTgquWTzCWJdLMpVMJgJ1o1MZOEJ1pYUfZyxuGtDloyx2FTp1JKaVGWKpKUKknGMZxVNuNRuMYyjzNxSbRofDD4N/DfXPAE3xZ+JWm/Ex9C8TePPEnhrw54Y+D0dpc3HhPw94Q0rR/EHjvx94hvPEmm+KLi58JeC7PxRoNolhM9ld3wNzNqXinT1jFxNS1f9jr4mr4u8beEfB91onjfVPBHxftvhPqul6VJfwa/ZLrUsq+FPHer6dPYfYdN8Ea+kUiHWE1e8GjXkMttrUVikllcXlz4Y/F/wB4e8AS/CD4sXXxIsbDwn498SeItH1z4N6noN7J4j0jxXpWj+HfiF8OdduLrX9I0+48IeLYPC2iTw69p15rcCqly0mha1Z3MATuvCH7Yfh7wz43+Lvxcu/B2o6x4++OXjG+0bxnoc0y23hTRvgJrUqz+JfCPh/VbXVYtVufGGvQpY6NDrV3pVlD4fsdGhvrCe5vdUuY7P8pzHH+NmXZrxbiuHsHmGbSjXxccmwOPo4bGZBjqVTPMJHhlZdWr43A+xoU+DHmmLzzFQzDDzqZ/QwFDGVK2JxMcPX6ILDPDwWItCu69b6w4wUalOCeZucoU48sXUpwWAdKg+TD1pxw+Hpzo1amZVafG/s4fswaL8V/jZqvgzxl42tIvhZ4L8QafoHjH4i+BrmSWy1fUvEPiCHwf4O0fwPfa/ocZu7/xh4mu4ItInv9AKDRrXVtaeze2sSHu+DPgB8Nbbw1rvjb4kJ8WdZ0Gb4oeNPh/4a0z4YQ6PNrGi+HPh3a6bqPjn4neMLnUdB1i2n8P+F7LxDoKT6da2eirezS3stxrujW0UTPpfCT9qX4efCLUvD/gyD4VWPjf4R+Gfjxp/xb0rxD4hk8V6D8VVj0y9sodIv77TPB/xM0jwTrPiLw3oVtLHoWm69JqvhyLUrm9kkVbfUr0PJpX7R3wl1/T/ABP4X8a6J8SfAPhP/haPi34g+E7f4O34nur3w74/03R9I8ffDLxT/wAJf4wW8TQPGEHhvRL671H+3PES2F4+o2x0LVNOe0t4OPPcV41YnPuIascFxfhuF6lDhell8srjkdPEyyvBQ4hp4vG4CjgsbPOaXEeeZviMkx+dYarl+Chl2SUf7M9jBYOrisyqEcJFTTlTc/rc2oqTm4U/YZrCjClUqQjQq0VVp5dWjUrcqeIr8mMj9ShJvR/4ZQ8F/DdvGk3xkn+Jvia10j4seMfhrokfwhstMjurXw58PtN0fWvGfxe8Sf2xpHiFU8K6NpPifw3c/wBipHpskjXd2L3xJpcVuk0uf8PP2VPh/L8Zvi98JPip8S7uw1fwDN470XwhofhKyMfiDx1q3hnwj4q8X2HiB7nU9O1HR9C8Hx6T4ZF1q3nPd6vLc6lYaRaQwNctqlvoH9q7wV8SW8aQ/GSD4m+GbXVviz4x+JehyfCG80yS6uvDnxB03R9F8ZfCHxJ/bOseHlbwtrOleGPDdsNbjfU5I2tLs3vhvVIrhIYvLfDv7RFlN+0/4l/aB8ZaTfxWniaX4rXM2i+H1tr6607/AITnwH4u8J6Dp9sdQu9LhubXSJdc0yG7uZbiGZrC0uLmKCa58u0ljBYXx3xeU8ZUs2x+e5dn0OEcyxKrZXHKpYOtxPha+AxPDGB4V9vhsVhI0MwyylmOC4ing6cKscXXg1iMLjvq2Ip63y+MoSUaU4xzNvkbqKEsL9bx9lK7jVdNYb6hKUZtQlTjSjG+Ilmad34R/BT4e6l8M4fih8Uofinqul694y1zwnoekfCi30p9R0LRPBei6JrnxA+JfimfVtF12KTwz4VtvE2hxtpkMGkm7eS7kuvEOkwQxySdp8L/AITeCvC37RHxE/Zv+J3gDw38Q5tPb4pWdh43n1rx/oOq6O3gX4e+NPE+i6roNj4Z8X6No0sOtz6TpF/c2viTTNdMMDG1iaMNKZOL+Efxq+Hmm/DOH4X/ABTl+KWl6XoHjPXPFuh6v8KLjSl1HXdE8aaLouh+P/hp4ph1bWtBii8NeKbbwzocjanBNqzWjx3kd14e1aCaOOP0n4K+LpPif+0x8Qf2jvFfiD4ceBtFmi+L+p6npvif4jeD/DWpQN4y+GHjzRfDei+GtG8Raxpeu+LPs1xe6XozS6Jp146yNA90kDTqp6OKq/iDhqPizXznH5/luV0sj4onkeKwuZYvKqazuOZUH4bUeFMVlWJwuMnXxGV+0o53g8PUlDHZtOhhMxo151lSnng1QdPArlpzxTx9JOE4xnz03Xx3tYzpyThOKwv1RyVSMqKgqU6P+1Rx7X5/0V9CfALSPhRdxfF/WPi+mh3Gi6J8H/F//CI21/4p1XQ9c/4WjqcMNr8Przwzoehyx6h4uuLXWV8vVdNuzH4d07SLq61rXZWjsbWyvfnuv6MwOdUsfm2e5TTwOY0ZZDPLqVbH4ihShluOq5jg1jlSy7EQr1J1quCozorH061HDzoTxGHcY1adaFR+fyfulV5o61qtHku/afuqeHqe05bW9lP2/s6c03zVKNeFl7O8vVvhj8MLL4lTX1pN8Uvhh8O7+C40+002y+Il/wCLdNfxDc6i08aRaTdeHvBvibTYBbSRRR3c2u32i28Ru7dkmlj+0PB6z8P/AIL+Dbi8+P8A8OfibpXjrS/iz8JfBvxT8SWN54f8V+GofCdnqnwz0+UXeh69ol14P1nUdZW41eCVTqGkeKtHiNmFWKIyEXB6j9nT9pDw98LPAGoeCL7xX8X/AIU6pL4+g8aN4++CVj4e1HXPE2lf2TY6Y/gjxbZax4n8EXUui2Eti+paPLZ+Jnt4LrVtU+06NcO8NwnTaN8cf2d9Q+Lv7THxT8X6j8aNKPxrm+NGgeHtH8OfD/wPrv8AZvhP4pF3s9Z1q71P4reHvK8RaY9zcLc6FYw3+musMLReIXMzrB+F8UcQeJcs441wUck4jw2R4KOXYjhrE5NQx2Ox1XHYTOMphB4epk+TYSnUy3NstnmOLxmX18w4gqUVRdHMZ5ZzwwFXswkMNy4OpVnD2izPAqtTnZR+oyxOLWPVXmm1NRwdHD1KcoU6fK8TGEJ1sSrUfEf2f/h78G/Hcl8nxZ8cz+DFi8efCnQrNofEvhvw8JfC/inWNatPHesufEGmagH/AOEb0+z026XUI9lhpP2ozatBdQzwInzrcLGk86QsXiSaRYnJDF41dgjFlAUllAOVABzkACtDXI9Ei1nVYvDV3qt/4ej1C7TRL3XNPtNJ1m70pZ3FhcarpdhqetWOn6hNbCOS7s7TV9Ttradnihv7qNVmfKr9syvLcXRzXOc5q51meMwWd08rqYHJMbSjRw2QrC4R0q6wdOVOGJp1MfOaxGMp4n36deHIoxs4nJJpJ0+SHNFqLnGSldwlVbakm4yUvaRXNFtONODT6sooor6EzCiiigAooooAKKKKAPob4DfALTvjrdalpsnx8+BHwd1uC/0fS9B0X4y6x8RNEufGd/rTzwwQeHdQ8IfDTxxoFqtrcRQW99c+LNY8MWkMl9aMk8sP2qW29D+HX7Cv7Qvjv4leOfAf/CGWGmWvwh+J0Pwt+LfiTxJ8RPhp8OPCfhnxRHr13o194cs/HXxK8UeGfB+q+J5hpeqz6PoelajqmralBam7s9Lu7bBb6R/Y/wD2zfC/7NXwz1n4L+J/HP7SH7PHivR/jdL4/wBW+Jn7LuneCPEHiPx/pdrpWkeHb34U/Emx13x/8MLq78OaFe6Ddal4bvtJ8d3mmQ3PiLXvtPhy8eW3vh0ni/8AbH/ZR+N+s/FWx+Kv/DRHgDwvfft0fFT9r74aaz8OPAfw38cazrml/EqTRYD4Q+JfhLxH8WvAWnaPrWiWXhrTpdN1zQPGPie3tn1jXtO+xzw+RfzZ0KjpY/A+5Gpgo0cLUrucZVKLSxHDEak3Sgo1ZKnhsbxDOrhlivb4ueVJUKeEp1aDxfx9LFZ08urQp4edO9CFLC1FSliKtCKwWc+zqU40lh41frdbC5NGlKE66y9Zo62LqTeGxGGo+Ja7+wB4/wBe/ah/aB+Ffwg0e61L4PfA39oXxB8H9S+IvxH+Ivwt+HNnaadZeNdW0HRLDUPHXxB1XwB4H1Tx7qmi6TcX8GhaJCdR1CWCa6sPDn2QLCPmb9qX4XaB8EP2lPj78G/Ct5rGoeGfhX8YfiL8PvD994huLK71280bwj4r1XQtNudZutN0/SdOudTntLGKS+nsdM0+0luWke3sraJlhT9BvF37Y37KPxu1n4q2HxVH7RHgDwte/t0fFP8Aa9+Ges/DjwH8N/G+s65pXxKk0W3/AOEQ+JXhLxH8WvAWnaPrOiWXhrTpdN1zQPGPie3tn1jXtO+xzw+Rfzfnz+1L8UPD/wAbv2lPj78Y/CdnrOn+F/in8YfiL8QPD1j4it7K016z0Xxd4r1XXdNttZtdN1DVtPt9Ugs76GO+gsdU1G0iuVkS3vbmJVmfzcHLHezyOliFPmp5VWlmE5xvUq4yrl3CdWEsRVTVP2lPHyz/AAtLDxhGpS+r161SVSGJoOP0GEqYqri8yliIOnSjOFPC0lSnCEIUsfnNJThVlOccTLE4GGWYypUpxpwpfWYYSUPbYarKX0b8Kf2FPFHx2/ZS8N/GX4TyaVqfxN1H9onxx8I9S8M+L/jF8Fvhlot74f0TwB8OPEnhweD9L+J3iLwVrPirxlqOueLtUsbvT/Des+IJ5LSPSYYtAs7iT7Vf+B6p+zB8TtB8CaF478RR6T4eTWvj/wCLf2bJ/CmtPrNj4x8PfEfwVpXhLVdfTxHpT6IbSw0m1HjHT7DzIdSu9WXUbLVIJ9Hgigtp7v6S+Bfx0/ZNtP2bPAvwh/aC/wCGgU134Z/tNeK/j5pmm/CXwh8PdT0DxvpGu+CPhp4cg8Jav4y8V/Erw7q3gm7lv/At39r1fTvAvjFbSwv4bi2tbm6VreL6G+AP7Q+u/tHeOvjDq3xX8K/sU3/wn8S/tPah+0re6P8AtOfHHVPhBqnwv8ZePb0Lrmu/CyXwj8Vvhl8QviBbW3hzRNM0/XNA07R/GtteXGiaDK+i2t7ebLz1Ff8AtOqpWWX82WVq1SbVKlh8PTXCNPGKniZzhRi8ZTqcT03GoksLjsPQq169Gji6Ml5FTHZrhcFXrVKTqfVsRm0Yx9jy4quq+J4qWW0qMalWSxn1eX+rVeMqUcPz4GdTCUYYzFwqQj5j8PP+CX3xD8QaJ+2haeIfEHw3fxl+zZPe+DvCUmn/ALRPwI8D+HNb+I/hf43eEfhv4wfxXpvxX8ReFPF+heAn8Pal4hvvC3ibxTpnw60/W9ej0PT7PVb3UruPw5f/AD14M/Yj8ca7puv6748+LH7PvwP8N6P8QtR+FGleKPiX8SZtY8M+OviHo1lp+o654f8AAOu/Brw/8WtO8S2WhWWs6Jcav4yhnh8AWK61piy+KxJc7F981L9qb9n/AFb9pT/gopL47b4kXPwK/bE17x7ZaR41+F+iaDqvjjw9Yr+0DoHxh8G+I7Twh4313wfpmr2Wpr4WtrHU9J1DxHoF/BaakZY7iO6tzA3S/s1/t9+GfhB8Etd/Zuj+M37YfwN8IeH/AIweLviR8Mvi3+zZN4YsvGniDQ/Fen6Ro154X+Lnwy1H4keDtBv2EHhrR9b0nUNI+JN1J4b1O91zTYV1mwuUuT52BrYypgsLiMTTl7evlGWYmph1T9lUji54nB08yp+0m1Sw1ejh54yvToVsPUlZUfZ08XUoTwuJ6sTPOKE8fTpqNSKz+sqdRUKl6OUTyOi8JOi4vGfWIf2zQWFxNKlh3VgqmNxTeGo4zDVcF+Z/xV+GXjD4L/Enxv8ACf4gafFpfjX4e+JdV8KeJbC3vLbUbaDVtHupLW5+yX9nJLa31nKyCa0u7eRorm2kimQ7XAH0H8Ff2Ota+MHwzt/izqvxv+AnwT8I6v8AE25+EHhOb4ya78RdOu/GXj2x0PQ/EOoaVosfgL4Y/EK2sLSw07xLoRvNZ8V3fhvR4ZdRiQ3xSK4kh+cPiL4v1fx9488YeNNe8U+KPG+reJvEWq6veeL/ABtMbjxf4ja7vJZI9Y8Sym/1UHW72DyptRRNT1COK6aSKK9uo0SZ/wBGPhL+0d8Nvgz+wf8ADu1vvhj8DPjb8UdG/bI+KHjXw74U+Kev+OLm++H0CfCf4MQaJ48b4f8AgL4keCBr+jarrGlXmnQDx9pniLwhqN5od1Yx2M0lvqMD9dKc4Zb7fFc0sRCnlCr/AFaHLUlLE5tleDxzwtHEcsY1vq2JxUsNHFONKlUVOeJapU6h15nUx0J4OhgUnVxOIxtJySpunF0MlzbHYdznVlKNPDSxuDwsK806laWHnUp4ZVMTOjer8I/+CZvxO8Z+Df2u7jxhJ4O8O+Pv2fbU+HPDWh337RP7Ongi1f4l6F8ZvBvw/wDGNj4+0/x54107VtF8HQ+HdW8QXPhzxVqkng7w7r/iCHRLPRvEmsXN7b6Hqfi/gH9hnxt4r0XxT4k8YfGP9nT4MeH/AAv8VV+Ca6/8RfiTe654f8SfEs6RHrh0Dwp4i+DHhf4t6DrFimmTQ3T+LDqVt4MEUnmDxCYklkj0/gj+094Nu/EH7WSftTXfxJ1XS/2vvCEuneOvH3wv0fwprXjjQ/GSfF3wf8YYvEln4T8Ta54O8N6zYajrfhaXTtS0n/hIvD/2ey1DzNPuENskLcF4i+Mfw6T9lXUf2dvC0XjW9v7b9qnWPjBoHiDX9G0LSrS8+Hr/AA6XwRpEWrw6d4m1mbT/ABlNPDFealpFlHqeiWkTyLa+JL10VXxpvGU6EXiFCpiXgcpdSnh1JweJqZtl2EzZ0a0rwpujgauYYzD062Hn+7WHqNVo4avTrYr+0pYjF0FWVOnUz3FOhiPqjaoZV/q5GvgnF1a9SFSnLOMKsHWprkrRq1MTV5qMcfhPq3hPxO+HPiv4QfETxt8LfHVjFpvjH4feJ9a8I+JbK3u7e/toNY0K+m0+9Fpf2jyWt9ZvNA0lpe20jwXVs8U8TFJFNfWv7HPhf4Rz/D39sD4p/FX4PeGvjY/wT+DHgzxb4M8I+L/FPxO8K+Hl1/xJ8cvhn8Pbu+1C5+FPjr4f+I7wQ6D4s1T7Paya59jF35E8lvIYgK+Ea/Q39iLTdL8X/Cv9uP4XP49+FXgXxX8TPgN4C0bwR/wtv4q/D/4Q6Dr+r6H+0P8ACTxfqWl2fij4keIvDPh9tQh8O6Bq2pLZnURcTQ2cnlRu2AehKtHDSUpqrXjhaiqVKdP2anONCXtatOm5VHS2lUglUnOjo41HKCmdGZyjGlhHOpOjQlnXD0MVOnWq0OXBVM/y2GNU61KcKlOg8JKtHES50vYOpzy5HI2fgN+zH8EvFXwgh+Pvxv0j46S+HPiJ8VvG3gzwZ4P/AGcrbTb2T4aeCPh1pfhfXvih8Y/HV/4y0Pxxeah8Pvh5H4/8J6XDo0txo9/qQW+uNZ8e6UVhnusbW/8Agmt8dm+IHxH+Hvw7v/CfxM134Z/tIp+zp4m0TQ7rV7XxP4fl1i4u08FfFPxXpV5o66ZoXws8WW1jeuPFEOv6pH4eu7C9s/EsOlbtOm1HZ+A/7S3wd8H/AAgg/Z7/AGg7v436Zpvwz+K/jbxf4a8R/s2634Tvx498LfEDS/C/h/4tfBPxpd6j4t8O6XP8PPHUnw/8MX9r4t0e+8WWqRi9aXwn4hs57JovUfhp/wAFIvBfgb4j/tD/AB61f4b674o+K/7WvxO13QfjF4bnuIrDwL4e/ZN8WXD3njP4d+BNcsvEEOu3vxH8UiWx0eDxRquhaXbeE9O8MWF3pdxf3mvamljjV9r9ZhLB/vaCwNN01Kq3hq9aUuG44KEq03KoqNZyzyGYYuUp4zCRnjswlTxeFw+Q4Wv5c6meUqeNkqdWWK+u4tOnOjTnSVD63nDw0sJTVShBTo5QsBWlQ9rQw2Kx9LLsD7WjisTnFWHnP7D/AOwd4W/aK/ab1/4dfE34oWdr8Afhr4w0fwZ4++MfwrvJpbDxT4k8Z+LI/h98M/DPws1Pxh4Uje+1T4h+MLuGTRbrWPCGIvCmmeIPEdxpn2XTsNf+FP7IHwQh8Bax8UPjan7QviHw1rfxv+JXwp8FaT8CbPw5c614M8D/AAfh8PXfxP8Ajv8AE681rwn4jtL3wf4Mi8beE7afRNPs/CqahcSanPd+LvD1uloJeg/Zv/b++Dv7OmueAvhon7P+k/FD9nr4dftWWX7Qfh7xr4ol+IPhP4+7NM1TTrbQNd1bw78PPjn4e+Ffibxt4P8ACdi1r4X0XxdL4h8HWeqXWpbmW01rVDOvhX9tX9njxNoPijwN8UvCvxt+E/gXT/jp8RPiz8PtL/Zs1hbp9b8CfFvT/C+nfFL4C/EFviP8Rhq0Pg/x03gXwxq13rzeJvHB0y+l1e0k8Ka3pv8AZ0Nq4SqyqYV1FWeF/s6CxE+RUa1WbxPDlbEVqtGEpV6GL5K+d4apRw15LLcG55W1nNWlzTiXnDxWZPkxkMLLHYRYeOGnhpzp4OjhOK6NP6lUbj7WpisfDhzG154mjRhTeI+qZjSjlmGq1a+1B/wT3+GPwZPxCf8AaXuvjr4zh0f9oP4nfBDw4n7Oel6Gs2g+C/gza+Gb/wCJX7Rnj3/hJPDfi5T4B8P2PjvwbNH4YgXw9NMby/GpeNtESC3kuMH4NfsBfCG5/aF/aZ+AXx9+N2oaT4t+DP8Awufw58OvBvw80xo/FnxO8S/Db4eePviHYeMb3UNc0TWPDnhf4aRaN4HE+srJLf8Aia9v9a0vQLCDT/Pk1233of8AgoN8L/jOfiCn7TFp8dfBsWrftC/E744eG3/Z11LQXm13wX8ZbXwzYfEn9nTx5/wkniTwiq+A9fsvAng2GPxRA3iGaE2d/wD2j4K1pJ7eO3+f/BH7ZOmzftv/ABI/a3+JugavFa/EeD9o2e68OeD4rHVL3R7v4w/Cn4ieA/C2mWh1jUtCt7rTPD174r0aDUb2a7huzpFhd3tvZ3l8ItPn4rZk8K4zlUji5cK45VZw9i1HOY5LlE8D7BRTo+3qZlHOaM2k5wxdWvUdsBDIZR3pxzaVPHutOpDEQxlaqlSUXQqxp5nmMsFRwXtIymsNUytZescvdUo/V4QnHMJZvI3/ANnT9ln4Na78ENK+OPx7h+PuuaP45+JPizwH4V0T9n6x0CbUPBHhH4Z6J4T1n4r/ABz+Itz4g8MeKobrwP4JPj3wtaHQbSHw219I+oTX/jPQoY7Vp/QvgL+z78MfA/7W/wAeP2Lfjr8HfBPxe1PwzZ/tF2mk/FS58U/F7wr4h8M3vwe+D3xM8Z+Gta8KaV4J+I3hrwrd2fiHUfDWhaveWPjXw94peK2kaxjkiRphJ55+zr+1J8GND+B+k/A74+S/HzRNH8CfErxZ498K63+z/e+H4tQ8beEfiXonhPRvit8DfiJbeIPE/hWG18E+NT4D8LXn9v2k3iVrF01CG+8G65C9qsHsf7MHxCn+OH7Znx2/bS+IfjP4K/C/w9qmjftQavrmieOPjR8NvBOvxX3xS+BXxY0Dwb4a8D+E/GPiXQ/F/j9bfUNY0Tw0tx4Y0TU3Fw9sbxIJbgJXTmTrJZpKk5ww0OGs8nOpTlyRp4yOUZZLKJ4WqnGtSxH9prMY80JRxcsZKrSqt5dUyaEs4yx0aGOeKnXhX+uVfq16koRnU/tHMv7Np4ONKS9qpZV9Q+u0ZKeGqTWGtCWOWan5B0V9kfsk+Hf2e77Sv2l/E/7RkPha90Lwx+zp47i+GFjqnj7X/C/i0fHvXo7ey+Eup+CfCXhaeHVfiJNYa7BLH4j0vVGi8GaFoF7deIfFE0i2On6bqXxvXa5pVvY2k2sNRxLqRSdJe3r4ygsO5XusTTWEVerScfdw2LwVVSkq9o+7RrKtLExUKkPq2J+qyc0kqsvquExbqUbSk50VHGRo88lB+3o14cvLBTn9DfAb4Bad8dbrUtNk+PnwI+DutwX+j6XoOi/GXWPiJolz4zv9aeeGCDw7qHhD4aeONAtVtbiKC3vrnxZrHhi0hkvrRknlh+1S23v3we/Zn+GOpH9sH4RfGzQPixoP7Q/7Ofw0+OHjnTNS8J/EDwRb/Dqx1n4MQ2+n6h4T8V+Fb34ceI9b8RNc+IPtm7WvD/xC8P2zaekUVvamQm9f0n9iz9t7wX8AvhDdfC7VvH/7SHwA1uP4wxfFC4+Kn7LuleDda8R/Ebw++h6Jo8nwv+JOmeJPHnws1Gbw5o0+jT6r4butP8b3FjbXPiPXlvfDF1NJBeL1fhP9qX9jPU/jz+3L8b/iPrf7Tugy/tTTftJ+D/Cfh7wV8HvhV4rTQPh/8cdUi1TSvEviPUtd/aC8GtH4y0d5LqHUPCemWep6IyxW8lt4wnM8kdvzY91+bG0cNGTp1Mhzl0asHaSzWOWZXLJnQajzUZzzbFY6hWU68+eOAnVqUcJgHzYnxfrGYOtUlXoYinSo51kroxpQqVZSwMM2xMM09o6NGFOth62UUKeKjTX1iVOWKjQlVeNSoUPyHr6P+E/7KPxf+NXhmXxd4Fn+DsejQapdaNIvjz9pb9m34R619ts4bWeYx+F/iz8WfBPieWxMd5D5GqxaO+lXUgnhtb2aa1uo4fDfFEXhmDxJr0Hgu/13VfCEOsajH4X1PxRpGn+H/EmoaAl3Kuk3mvaHpOt+JdL0fWLmxEE2o6bp/iLXLKyu3lt7bVr+GNLqX3T4TftReN/g54Ym8KeHfAH7OPiewm1W61dtR+K/7L/7P/xi8TLcXcNrBJbReK/id8O/FPiKHS40tI3tdIi1JdNtJpLme2tYpru5eXpUuejKcFJTlThKiqkZQtKU6barQlyzjak6nu+7KNTlUtFJHrYz66oQ+orDOp7VKp9Z9o4ey5J35PZSi+f2ns7Ntx5OfS7TXiXjDwprHgXxRrvg/X20Z9a8N6lc6TqbeHvE3hvxlobXlo5jmOl+KvB2ra94W1+yLD9xqmg6zqWmXSYktbyaMhj9lfsc+F/hHP8AD39sD4p/FX4PeGvjY/wT+DHgzxb4M8I+L/FPxO8K+Hl1/wASfHL4Z/D27vtQufhT46+H/iO8EOg+LNU+z2smufYxd+RPJbyGICvjXxh4ovvG3ijXvFupaf4c0q/8Q6ndard6b4Q8L+H/AAT4Xsp7uQySW+heEvCmnaR4b8PabGxxbaVommWOnWiYjtraJAFr7p/Yi03S/F/wr/bj+Fz+PfhV4F8V/Ez4DeAtG8Ef8Lb+Kvw/+EOg6/q+h/tD/CTxfqWl2fij4keIvDPh9tQh8O6Bq2pLZnURcTQ2cnlRu2Ac17f6rJzUfrH1So6vsk3GM1Qk60qXNzSioe/KnK/tIWjOMlOKksczlGNLCOdSpRoPOuHoYmpCtUoOOCqZ/lsMbz1qMqc6dGWElWjiJKcY+wdTnag5H5/6lc297qN/eWenW2kWl3e3Vza6TZS3s9npdvPPJLBp1pPqV1fajNbWUTrbQS6he3l7JFEj3V1cTtJM/wChv7On7LPwa134IaV8cfj3D8fdc0fxz8SfFngPwron7P1joE2oeCPCPwz0TwnrPxX+OfxFufEHhjxVDdeB/BJ8e+FrQ6DaQ+G2vpH1Ca/8Z6FDHatP+eWpWEul6jf6ZPNZXE2nXt1YTXGm39pqmnTy2k8lvJNYanp81xYajZSvGXtb+yuJ7S7gaO4tppYZEdv0M/Z1/ak+DGh/A/Sfgd8fJfj5omj+BPiV4s8e+Fdb/Z/vfD8WoeNvCPxL0Twno3xW+BvxEtvEHifwrDa+CfGp8B+Frz+37SbxK1i6ahDfeDdche1WDWl7H6u7yc6PJhLSjOpUrSw/1zCfWJU6icqs28F7d1p05SxssN7d5fJ5m8GzPOPr1sP9WVdL61X+uLCKlHEKn/Z+P+rKjGaVOM1mv9nrlmlhlG6xq/s/62j2KD/gnv8ADH4Mn4hP+0vdfHXxnDo/7QfxO+CHhxP2c9L0NZtB8F/Bm18M3/xK/aM8e/8ACSeG/FynwD4fsfHfg2aPwxAvh6aY3l+NS8baIkFvJcfnN+0J8HdX/Z8+OPxX+COu6hb6vqfwu8d+IvBk2sWkT29rrMOi6jNbWWs29vI8kltDq1ittqMdtJJJJbpciGR3dCx/RmH/AIKDfC/4zn4gp+0xafHXwbFq37QvxO+OHht/2ddS0F5td8F/GW18M2HxJ/Z08ef8JJ4k8IqvgPX7LwJ4Nhj8UQN4hmhNnf8A9o+CtaSe3jt/zm/aE+MWr/tB/HH4r/G7XNPt9I1P4o+O/EXjObR7SV7i20aHWtRmubLRre4kSOS5h0mxa206O5kjjkuEthM6I7lR5uG+v+0y36zz839kw/tH+F7J436jkXs3D2a5Ob63/bnt+T959Z9vz/8ACb/YgZb9f58d9e+P61idr/VuX+0cy+pfUL+/7L+yvqH1nm/d831W3/Ch/ax9cfs6fss/BrXfghpXxx+PcPx91zR/HPxJ8WeA/Cuifs/WOgTah4I8I/DPRPCes/Ff45/EW58QeGPFUN14H8Enx74WtDoNpD4ba+kfUJr/AMZ6FDHatP8AQ/h//gnL4Q8FeCvj9e+Pfgx+17+0743+Cv7Vfij4AXmmfsnatouh6dp/g/w94Pt/E1r8R/EtpqXwD+OGp2dlrDSxrE882k2VpHe21vLLJcxO83zv+zr+1J8GND+B+k/A74+S/HzRNH8CfErxZ498K63+z/e+H4tQ8beEfiXonhPRvit8DfiJbeIPE/hWG18E+NT4D8LXn9v2k3iVrF01CG+8G65C9qsFrSf2kvgD8RPjl8Sf2ovjx4s/ad8J/EbxT8btW+Kek/DD4BaP4KtvCV1pJv7LWNB0a7+LPiH4k6N4h8L6jaSxyaDNqVh8LfFD2+l2NnqdvJNfXMtlZ9eIjUnjJQhVnh8LPCU1WxUKTxEcO4YjhmrTnh8NG1bETqQp8QYbEUqc4Y1VK+LqynHAU8ka8uSzbkrzl9aqVaeOxk1hYucIYyDqZ5TyzDYfEUKtL6pT+pTymvjMRUmsHGvRwcJKWLqZun+e/iVNIj8Ra8mgadrej6Ems6mmjaT4lvrbU/EWl6Ut7Oun6fr2pWWk6BZ3+s2dqIrfU7y10PRra5vY55oNLsI3W1i+/wD9nT9ln4Na78ENK+OPx7h+PuuaP45+JPizwH4V0T9n6x0CbUPBHhH4Z6J4T1n4r/HP4i3PiDwx4qhuvA/gk+PfC1odBtIfDbX0j6hNf+M9ChjtWn+Ofjl8Urz44fGf4rfGTUdHsPD198U/iH4v8f3Wg6WzPp+jzeLNdvtbfTLSV44nuIrI3v2cXUkcct0YzcSoskrKPsX9nX9qT4MaH8D9J+B3x8l+PmiaP4E+JXizx74V1v8AZ/vfD8WoeNvCPxL0Twno3xW+BvxEtvEHifwrDa+CfGp8B+Frz+37SbxK1i6ahDfeDdche1WC8G5PA03i6UqNV4fAPEUVVnXrUr4nBfXqcK1NudaVPD/WY1qtFvF1MOq88uf9pSwbPVzn63+4+puvKn9ar/WpYRU1iHR/s/H/AFR0FUUYKTzT+zmlUjHDct1jksv+to467/YgmsPj18aP2f8AxD+0X8APhp4u+E/xKuvhzo6/FrU/iP4cHxMuf7UvbDS9S8Kz+FPhv470TTLe9hh0+5uf+Ew1zw5BYnV7OM3dxHHdz2/yP8Q/Afif4W+PfGnw08a2A0rxh8P/ABVr/gzxTpq3EF2lh4g8M6pdaPq9ol1bPJbXMcF/ZzxpcW8jwzoqyxOyMpP6/wDww/4KgaFNqfxg13xn4v8A2iP2avF3xN/ac139oK+8efspaf4Q8Raz4s8M67Z6XYWvwW+INp4o8c/CjVb/AMLeELfR1k8L6lZ+M5bUT61rsmo+FZ7i4huk/Mn9qX4o+H/jf+0r8ffjJ4UtNZsPDHxU+MPxF+IPh6x8RW9laa/aaN4u8Warrum22tWum6hq2n2+qQ2l9FHfQ2OqajaRXKyJb3tzEFmfiw0sdGWWUsRGUnLKlLMKj9m0sfDBZFNOPso+zpyqYvFZ1QqxVaoqk8AqtGhhcM6DxNYGtjquIzGOMpQpU6dWmsKoczg0q+YUqrpVJUqanQq0KOBxVGPNWqUYYpUsRWeIjVoUPqH9nT9ln4Na78ENK+OPx7h+PuuaP45+JPizwH4V0T9n6x0CbUPBHhH4Z6J4T1n4r/HP4i3PiDwx4qhuvA/gk+PfC1odBtIfDbX0j6hNf+M9ChjtWn9hg/4J7/DH4Mn4hP8AtL3Xx18Zw6P+0H8Tvgh4cT9nPS9DWbQfBfwZtfDN/wDEr9ozx7/wknhvxcp8A+H7Hx34Nmj8MQL4emmN5fjUvG2iJBbyXHjv7Ov7UnwY0P4H6T8Dvj5L8fNE0fwJ8SvFnj3wrrf7P974fi1Dxt4R+JeieE9G+K3wN+Ilt4g8T+FYbXwT41PgPwtef2/aTeJWsXTUIb7wbrkL2qwexQ/8FBvhf8Zz8QU/aYtPjr4Ni1b9oX4nfHDw2/7OupaC82u+C/jLa+GbD4k/s6ePP+Ek8SeEVXwHr9l4E8Gwx+KIG8QzQmzv/wC0fBWtJPbx2/ZW5vr32/qf1SH1n2fNa3tuGrfVuRe15vZf6w/W/Z/8Kdvr31T3v9WbeNP+2rTv9c5f7Rxv1r2Psva/Vv8AjIP7H/s7m9zmt/q/9c5/9h5vYfW9P9YD85v2hPg7q/7Pnxx+K/wR13ULfV9T+F3jvxF4Mm1i0ie3tdZh0XUZray1m3t5HkktodWsVttRjtpJJJLdLkQyO7oWP1x+zp+yz8Gtd+CGlfHH49w/H3XNH8c/EnxZ4D8K6J+z9Y6BNqHgjwj8M9E8J6z8V/jn8RbnxB4Y8VQ3XgfwSfHvha0Og2kPhtr6R9Qmv/GehQx2rT/I/wC0J8YtX/aD+OPxX+N2uafb6RqfxR8d+IvGc2j2kr3Fto0OtajNc2WjW9xIkclzDpNi1tp0dzJHHJcJbCZ0R3Kj63/Z1/ak+DGh/A/Sfgd8fJfj5omj+BPiV4s8e+Fdb/Z/vfD8WoeNvCPxL0Twno3xW+BvxEtvEHifwrDa+CfGp8B+Frz+37SbxK1i6ahDfeDdche1WCcv9t/ZuH/tHm+tfVMu+u2t7b2n1jBf2j7P6t7vN7H617b6r/tH1f2/9l/8KH1I9XN/r3Lhvq3tLfWa31z+z+X2ns/7Ox/1b6p9Y6f2r/Z/J7f9z7P/AJGH+wfWz1D9mr/gmnZ+O/22vid+z18cvG+p+Fvg18C/iZbfDb4j/E3wotnYarr+veLvGKeAfhJ4a8ErrOna9YweKPiX4gvtPv7K1v8ATdVTSPDdn4j1W8gmj0eQt+XnjXRbXw54y8W+HrGS4lstB8Ta9otnLdvG91Ja6Xqt3Y28ly8MUET3DxQI0zxQQxtIWKRRqQg/XP4df8FY9Jj+Ldj4m+MX7M3w68WeDL39sk/ta6xqmka58WLH4jaDrsus6eNMk0i38N/Fr4e+BvHOq/DvwnZDR/ANl8RNJvvD8Vw9697bRR63q7XH5W/GDxj4f+IXxS8f+OPCvhDT/AXh3xX4q1jXNI8IaZd69f2eiWeoXck8dul14m1/xTrkkspZrq6F74g1QR3dxPFa3As0t4o+TDPH3ypYlTvHKXDHSXseWpj/AKvktWdWuqbvHE/XK+bYWEaC+pvC4OjWpctatX5ry+WPli86ePpuEJVMu+oRg4SwlOnSq55RxKwklUlVqRxNOGXY2pLEQp16TxEMJUhy4alWxH2n+zp+yz8Gtd+CGlfHH49w/H3XNH8c/EnxZ4D8K6J+z9Y6BNqHgjwj8M9E8J6z8V/jn8RbnxB4Y8VQ3XgfwSfHvha0Og2kPhtr6R9Qmv8AxnoUMdq0/sMH/BPf4Y/Bk/EJ/wBpe6+OvjOHR/2g/id8EPDifs56XoazaD4L+DNr4Zv/AIlftGePf+Ek8N+LlPgHw/Y+O/Bs0fhiBfD00xvL8al420RILeS48d/Z1/ak+DGh/A/Sfgd8fJfj5omj+BPiV4s8e+Fdb/Z/vfD8WoeNvCPxL0Twno3xW+BvxEtvEHifwrDa+CfGp8B+Frz+37SbxK1i6ahDfeDdche1WD2KH/goN8L/AIzn4gp+0xafHXwbFq37QvxO+OHht/2ddS0F5td8F/GW18M2HxJ/Z08ef8JJ4k8IqvgPX7LwJ4Nhj8UQN4hmhNnf/wBo+CtaSe3jt+2tzfXvt/U/qkPrPs+a1vbcNW+rci9rzey/1h+t+z/4U7fXvqnvf6s28ef9tWnf65y/2jjfrXsfZe1+rf8AGQf2P/Z3N7nNb/V/65z/AOw83sPren+sB+c37Qnwd1f9nz44/Ff4I67qFvq+p/C7x34i8GTaxaRPb2usw6LqM1tZazb28jySW0OrWK22ox20kkklulyIZHd0LH6Y/YC0D4NfEz4jeIfg38WPgb4R+I//AAlfw5+NPijQ/HmqeLvi34c8V+ANT+HHwN+I3jzRz4cs/AvxD8LeEdUhu9f8OaXNqEXjHw14mDwRPbweRDNKj/M/7Qnxi1f9oP44/Ff43a5p9vpGp/FHx34i8ZzaPaSvcW2jQ61qM1zZaNb3EiRyXMOk2LW2nR3MkcclwlsJnRHcqPrj/gm54f0/S/i3r/xk8TfEP4O+BvBngL4WfH7Q9WT4h/GP4Z+AfFGqap44/Z5+KXhfw3Z+D/Bfi7xRo/ivxvLfa/q2m6Ww8KaRq4tru9t4rkxPKgPJTeKXD2MljJSjjYcNY6deopQhVp5jHKqsqU6VWg4qlX/tJUY0pYaUearKNKm3CpyS9zMpOOHk+dQr+0j7D6tUrQhPE3fJTpR5ozrU5O/JRqqaqRSVSEmj85aKKK9E7ju/ilBJa/E34i20oAlt/Hfi6CUAggSReINQjcAjIIDKQCOD1FcJRRWdH+FS/wCvcP8A0lHLgf8AcsH/ANguH/8ATMAooorQ6gooooAKKKKACiiigAooooAKKKKACiiigAooooAKKKKACiiigAooooAKKKKACiiigAooooAKKKKACiiigAooooAKKKKACiiigAooooAKKKKACiiigAooooAKKKKACiiigD//2Q==;" vertex="1" parent="BbfnvtyRnh7v-UzqNb1H-1">
          <mxGeometry x="160" y="80" width="409" height="40" as="geometry" />
        </mxCell>
        <mxCell id="vdu_HfzRzDCNSPZ3rfIx-7" value="" style="shape=image;verticalLabelPosition=bottom;labelBackgroundColor=#ffffff;verticalAlign=top;aspect=fixed;imageAspect=0;image=data:image/jpeg,/9j/4AAQSkZJRgABAQAAAQABAAD/2wBDAAEBAQEBAQEBAQEBAQEBAQEBAQEBAQEBAQEBAQEBAQEBAQEBAQEBAQEBAQEBAQEBAQEBAQEBAQEBAQEBAQEBAQH/2wBDAQEBAQEBAQEBAQEBAQEBAQEBAQEBAQEBAQEBAQEBAQEBAQEBAQEBAQEBAQEBAQEBAQEBAQEBAQEBAQEBAQEBAQH/wAARCAAeAugDASIAAhEBAxEB/8QAHwAAAQUBAQEBAQEAAAAAAAAAAAECAwQFBgcICQoL/8QAtRAAAgEDAwIEAwUFBAQAAAF9AQIDAAQRBRIhMUEGE1FhByJxFDKBkaEII0KxwRVS0fAkM2JyggkKFhcYGRolJicoKSo0NTY3ODk6Q0RFRkdISUpTVFVWV1hZWmNkZWZnaGlqc3R1dnd4eXqDhIWGh4iJipKTlJWWl5iZmqKjpKWmp6ipqrKztLW2t7i5usLDxMXGx8jJytLT1NXW19jZ2uHi4+Tl5ufo6erx8vP09fb3+Pn6/8QAHwEAAwEBAQEBAQEBAQAAAAAAAAECAwQFBgcICQoL/8QAtREAAgECBAQDBAcFBAQAAQJ3AAECAxEEBSExBhJBUQdhcRMiMoEIFEKRobHBCSMzUvAVYnLRChYkNOEl8RcYGRomJygpKjU2Nzg5OkNERUZHSElKU1RVVldYWVpjZGVmZ2hpanN0dXZ3eHl6goOEhYaHiImKkpOUlZaXmJmaoqOkpaanqKmqsrO0tba3uLm6wsPExcbHyMnK0tPU1dbX2Nna4uPk5ebn6Onq8vP09fb3+Pn6/9oADAMBAAIRAxEAPwD+YzR/2ftF+KXw51Lxt8DfE9/r/iT4e+D18R/GD4aeLrK30TX9EtNOgQ634v8ABmuQyN4b8U+EPOE0yaXcXeleMdMiVbc6VrQIvX+Wq9i8SfHPx3r/AIA0P4WWcmk+D/h3o1rYC78KeCtOGgaf4t1uyhjifxZ46njmn1Hxh4lu3jWdrvXL27stOk/daDp+kWgW2Hjtd3B2D4uwlLOP9aMfRxVCtm2IrcPYWUqWLzXLcnkl7LC5vm2FwmWYPH13U5p4enRy11svwzp4TGZ1xFiIzzOf7/w9h8+oU8f/AG3iqdalUx1WplNCUoYjHYPLmlyUMwx9Chg8Pi6vPzSpRp4P2mFoclDEZjm9aM8dMr1vwf4Y0OL4dfEH4g+KbEX1vaiw8FeCLR7m8tFuvHGtn7dPqQayuLeSeLwr4csr3UJraYyWUt9qOjRXkU0Mxhk5geIvDo+HjeEz4OtT4sPjEeIB4/8A7Rf7avh8aL/Zx8I/2T9j8s2x1H/icf2h/aAcS/6P9j2/vq0fFnjW11nwl8P/AAZo1jPp2keDtN1G4vxPJG8us+MPEF8bnXtccRfKITZ22j6Pp0cm6aGx0qMuweeRRtmks6zN4HAYbBY/KqM+IYRzDHxxmGhV/sPKn/aH1jDVMFi6lWFPPsTh8NlHsJujjaWBxmNrVaNCVGHNpjnmWNeFwtHD4rA05ZvBYvFRxFGM1lmBvjHWoyw9ec4wzStRo5c6UnTxMMNicTVnClKnG+5q/wAOPC/hXwxp194t8dXNh4z13wxZ+K9F8GaP4Uk1qJNO1i2+2eHk8ReIp9c0e30a41iyaC/ENlp+uSWVldW8t0izSG3W/r/wn0Pwr4B0DxZrvi3W/wC1/Ffh228Q6BpukeBLnUvC8wvJZUg0m+8dXGvabaW+rQLDINTtbHSNUbTblTaTFpVYrT1v4keE/FnhrTbTxX4Cu7zxtofhXT/Cek+MtH8XyaPay2Oh2Y0/w/Pr3hq50DWItUutMsI7aykksdV0X7db20Qm2zAzHQ0D4taB4U8C674X8P8Ag/XU1fxR4ZuvDmv6hrHj651PwtcNfrEl3q9n4GtvD2lWkGpxeUJdKmv9X1U6VciO5iMssSNXyl/EZYXLKjjns8fDiGH9s4RPgOll9fLZzjCr/ZmObr4vC8PUE5V6KxWCxfFeKhBYepPCVJuvHwr8Xqjgp2zOWKjm0f7RoL/VenhKuDlLlmsFiXKriKGU0k3Vp+3w2Iz2vCCpTeHnN1Y9Jrnwh8GWnwd8EeK7f4jfDu317UdX8fHULx5/iQ7a/DpWm+DrrTPDOnWp8Fy2NvrWiTahfQ3ss0GlafcTazZBda1KCGSXTqCfAvS2jj8Pnx8g+KUvgT/hP4/BH/CMXR0k6efCx8bpojeLv7V+XxI/hUf2ktn/AMI+dME5Fi2sCbLDirTx/oU3w0i+H3iPwldatc6Lq3iPW/B/iHTvEjaK+jX/AInsdFtNQTVtLk0XVYdfsRLoGn3MMEdzo9wjCaL7Zsl+Xtl+OulLHH4gPgBD8UovAf8Awr+Pxv8A8JPdDSRYDwufBCa43hH+yju8SJ4UP9mi7/4SAaYZwL86QZfkrzXg/E/AUa2HwmMz7HVFnXFNWjia9TgqrTqxxWcfXOF3Xli7YmHC1PLsRiMPnWGw1LD8Q4StQw2GyOhDA0ouXG8PxrhaVSjQxGaYmazDPZ0q1WXDk4VPb5i8RkcqssQ/bxyKODrVaOZUaMKWb4epSoUMrpQwtON0T4F6W0cfh8+PkHxSl8Cf8J/H4I/4Ri6OknTz4WPjdNEbxd/avy+JH8Kj+0ls/wDhHzpgnIsW1gTZYYmqad4T1D4E6Z4psfCGm6H4o0v4iWvg+/1yw1TxLcza/YHwnc6tJc6hYatreo6Ta3ct6qSMdIsNOhVUEccSRllbcX466UscfiA+AEPxSi8B/wDCv4/G/wDwk90NJFgPC58EJrjeEf7KO7xInhQ/2aLv/hIBphnAvzpBl+SshfiR8OF+FbfDk/DjxQb19QTxI3iEfEmxEH/CYR+HZNCXUhon/CvCw0TzJDenQf7XN0VAtf7dBzcmsNT8RpVcprZtgeIcbPC53k1fErDZnwvgKVOP1fMKXEXJQy3N8roZjwrKVXL5ZLhc4p4/P1OniquNoRqQws26MOL3PAVMdhs2xMqOY5ZUrKjjckwkI/u8XDOXClg8wwVLF5C3PCPLKGYwxWbKUcRPE0lONBnhlfoVD+wxoc3wNX9qMfHGxH7O6fC2bVLzxmfBlt/wlVr+0bHdjRo/2XR4E/4TrzZvFlzqskGvW3iv+3Y9Lf4WvL8RG0tDbyeG6/PWv0Kh/bm0OH4Gr+y6PgdYt+zu/wALZtLvfBp8Z23/AAlV1+0bJdrrMf7US+O/+EF82HxZbarFBoNt4U/sOTS0+FqS/Dt9Uc3EniSv2HF+2+qVPq1/rPP7nLyc/s/qmM9rb237jnv7P6lz+7/a39m/XP8AhH/tY+2xX136zgPq1/q/t4fX7+w5fq31nC83s+f979Ytzc3L+6/s3+0+T/hU/sk9I8bfsHa94F/YV+HvxS034b2PxA+L/wAR9Kl/aC8Z63YfEfQh4l+B37N9pC9h4TWL4NWXji18Xa/B47a5k8ceLviBfeANb8O+EPDVr4fsLTVtLu7nX503/g1+x/8ABzTf2GPj78XPjVpV9qX7QHij4HXvxt/Z18Opq+taUngL4WeEPiv4C+HN98TvEOnaZqmnw6nN8S9e8Xapo3grTdfs9T0x9E8Jazr8NsXvtLuo/Mbf9vrw1D4Vg1x/gBFL+0pa/s1y/sq23xo/4WjqqeC1+HEngGb4Tprk/wAGR4UZZ/iBD8M538NJrH/Cwo/DLXYTX5PBr6kpZtjw1/wVQ+NNt4K+JnhDx98PPgP8Q7jxr+z/AKZ+z/4e8T3nwF+A2k+JvDHh7QdR8Ht4eOua6nwo1HXPiBoOhaD4VOlaZ4Q17VrfTbPVZtJ8VW11Dq/hvTS3NjY4yUc+p4Wz+srEvAVHU9lKEIU81pYOjg5xcvq9XkwfDbliZ4fDe1li85eIisXP+0peVhqWeyp5H9ZSi8PnGX4vNEsR7OpXo/XsqxWNoSjCpio1srp/Wc7pxhHE0q9bB5fluHlgJ0qtfCV/zEr6VtZf2dP+FKPHc2rf8LjHw+1YJcb/ABvg+PT8Z9EbSjsSb/hFwF+EH9socx/2OTg3APiY2rj5qorhzzIlnn9k3zfPco/snOsDnK/sPMZZd/aTwPtP+ErNuWnU+u5Li/af7dgHyRxHJTvUjyI+npz9nLm5IT+HSpHmj7tSFTa6+Lk5Jd6c5x+1dfp1Yfsy+AJtD0n4dSfDq6l1zVvhNZeIZvjv/wAJpfJfaf8AGTW/gtqX7QOieCYfA41VdFm8Dnwdp39hXmoP4bm1I3rTX6+JLacQaZIWH7MvgCbQ9J+HUnw6updc1b4TWXiGb47/APCaXyX2n/GTW/gtqX7QOieCYfA41VdFm8Dnwdp39hXmoP4bm1I3rTX6+JLacQaZJ4Fa/tUWlv4fstRb4aWsvxs0v4TzfBbTfiz/AMJVeJYweDJNCuPCEOpS+BRpDRT+OLLwTdS+FbTxJ/wksVklmIbyXQJtRhW5Ja/tUWlv4fstRb4aWsvxs0v4TzfBbTfiz/wlV4ljB4Mk0K48IQ6lL4FGkNFP44svBN1L4VtPEn/CSxWSWYhvJdAm1GFbk/y3/qj4+/8AQfn3xcn/ACU//NYf9Fh/yXH/ACQX/VM6Ydf9GvdtfSw1XBR+oe2jTfs6MY4m9NSvP/hJ5ub9xPmf7rML3+sSq81X2eJwX1uj/Z/yFX6dWH7MvgCbQ9J+HUnw6updc1b4TWXiGb47/wDCaXyX2n/GTW/gtqX7QOieCYfA41VdFm8Dnwdp39hXmoP4bm1I3rTX6+JLacQaZJ+YtfXtr+1RaW/h+y1Fvhpay/GzS/hPN8FtN+LP/CVXiWMHgyTQrjwhDqUvgUaQ0U/jiy8E3UvhW08Sf8JLFZJZiG8l0CbUYVuT+weLGUcfZr/YH+pFfH0vYPNFX/s/NP7M+q5xW/s7/V/OM1/4XMi/tDIMr9lmn9qZZL+3aeK+tYbn4Xzn2aWF5cDOhTxcJ4lRdBQSkpR543+s4WT93kq6+wjXT/dtzi5UYVMNUqwxVD03xL8MPCw+CfhTWvhl8BPhR8Q5Zvgbpvijx949svjP4k1P4m+FPFbQakfFOsS/CvR/jRbzWtt4XgjsdSuTdfDSfQLJGll1KOSzjnSP89a+k/Cnxp+Hvw68MXv/AAr/AOEuqaf8UtZ8C6x4H1X4ieJ/iRJ4k0y0h8VaHP4d8X6r4V8EWHg7wzDo9/q+lX2p2diNZ8QeKY9Ggv3aIXV3DFdr82V6XhplXFGUQ4jwvEKzarhXm8quT47Ps0xOPzfG0KrrVK86tCXGPGeAwmCouVClgfqFfIY1oqtGrwzlvsKVbGTUlSeGwkU4+2p04UqqhFK8aeGwtONWrN0acpYitVhiJ117XEU1K06dRe0lFfp1Yfsy+AJtD0n4dSfDq6l1zVvhNZeIZvjv/wAJpfJfaf8AGTW/gtqX7QOieCYfA41VdFm8Dnwdp39hXmoP4bm1I3rTX6+JLacQaZJ4b8P/ANkm++I/wg1X4j6LffFKx1PR/BfjHxtcrrfwK8RWfwmurDwXZ6nq19YaZ8arbxFfaTPqV5pGmSvYR3vhrTrabWHXRBdecYriWpa/tUWlv4fstRb4aWsvxs0v4TzfBbTfiz/wlV4ljB4Mk0K48IQ6lL4FGkNFP44svBN1L4VtPEn/AAksVklmIbyXQJtRhW5PQ6F+114ftNAsG8QfC3XdV+IGjfA3X/gPpXiTR/irc6D4Pbw7qngbWPAGmavq3w7vPBfiGK61nSdG1YSzHSPEugWeq31qt5Nb29zcXEz/AI5Qyz6Q+UYGusuea4jG1s0yuri6mJzThrOPreOwcMwlnmKw2G4m4kzCjl/B3Ecq+XRw9LKcZkGaZM8vl9Q4MwEcXiJz68PLAS/s6GI5VCEaaxj5aick/wCy6dXmnRpKrzRgsxqxalieetBy56cMVSw+E+Ia/Tqw/Zl8ATaHpPw6k+HV1LrmrfCay8QzfHf/AITS+S+0/wCMmt/BbUv2gdE8Ew+Bxqq6LN4HPg7Tv7CvNQfw3NqRvWmv18SW04g0yT8xa+vbX9qi0t/D9lqLfDS1l+Nml/Ceb4Lab8Wf+EqvEsYPBkmhXHhCHUpfAo0hop/HFl4JupfCtp4k/wCElisksxDeS6BNqMK3J/UfFjKOPs1/sD/Uivj6XsHmir/2fmn9mfVc4rf2d/q/nGa/8LmRf2hkGV+yzT+1Msl/btPFfWsNz8L5z7NLC82BnQp4uE8SougoJSUo88b/AFnCyfu8lXX2Ea6f7tucXKjCphqlWGKoe+2H7MvgCbQ9J+HUnw6updc1b4TWXiGb47/8JpfJfaf8ZNb+C2pftA6J4Jh8DjVV0WbwOfB2nf2Feag/hubUjetNfr4ktpxBpkn5i19e2v7VFpb+H7LUW+GlrL8bNL+E83wW034s/wDCVXiWMHgyTQrjwhDqUvgUaQ0U/jiy8E3UvhW08Sf8JLFZJZiG8l0CbUYVuT8hUeE+UcfZV/b/APrvXx9X27ytUP7QzT+0/rWcUf7R/wBYM4yr/hczz+z8gzT2uV/2Xlkf7Bp4T6rieThfJueTxZVnQeEwcIKPt4QSxDUbSb+rYOL5pckeZ+3hiW71K7lJzrKpTp1qeFw36dWH7MvgCbQ9J+HUnw6updc1b4TWXiGb47/8JpfJfaf8ZNb+C2pftA6J4Jh8DjVV0WbwOfB2nf2Feag/hubUjetNfr4ktpxBpknnPwz+AHw+g/Zs+Kvj74k2NzefE/XfhfqvxG+Dujrf6lYDw14M8K+NPDHhS/8AHWr2lle2iXh8W6xr91pHhiy1W3vLCaw8P6xqqQP59hPHxFr+1RaW/h+y1Fvhpay/GzS/hPN8FtN+LP8AwlV4ljB4Mk0K48IQ6lL4FGkNFP44svBN1L4VtPEn/CSxWSWYhvJdAm1GFbk6mgftv/Eay8P+K9B8T+Evhf4ubW/hJbfCTRNXu/hd8LrPWdE0fTrnw/8A2ONS1X/hBb3VPFej6XpuiNZ2/hvVb6OxF9NZa0s0d/pFoW/KFwx9INYKnh6GKxTpx4o4QzLPHjOMquDzTNKmTZusTxDUyDEwx/ElPA8I8QQqYOtiMp+s8MNZdlGLyihwjhKWc4qjierDVcDF5W66T9jKi8UlRVRSfLltOr7eNqbq0owWY1OVVMTOWJVOsm6FVYCl8XV+nVh+zL4Am0PSfh1J8OrqXXNW+E1l4hm+O/8Awml8l9p/xk1v4Lal+0DongmHwONVXRZvA58Had/YV5qD+G5tSN601+viS2nEGmSfmLX17a/tUWlv4fstRb4aWsvxs0v4TzfBbTfiz/wlV4ljB4Mk0K48IQ6lL4FGkNFP44svBN1L4VtPEn/CSxWSWYhvJdAm1GFbk/q/ixlHH2a/2B/qRXx9L2DzRV/7PzT+zPqucVv7O/1fzjNf+FzIv7QyDK/ZZp/amWS/t2nivrWG5+F859mlheXAzoU8XCeJUXQUEpKUeeN/rOFk/d5KuvsI10/3bc4uVGFTDVKsMVQ99sP2ZfAE2h6T8OpPh1dS65q3wmsvEM3x3/4TS+S+0/4ya38FtS/aB0TwTD4HGqros3gc+DtO/sK81B/Dc2pG9aa/XxJbTiDTJPlq1l/Z0/4Uo8dzat/wuMfD7Vglxv8AG+D49Pxn0RtKOxJv+EXAX4Qf2yhzH/Y5ODcA+JjauOotf2qLS38P2Wot8NLWX42aX8J5vgtpvxZ/4Sq8Sxg8GSaFceEIdSl8CjSGin8cWXgm6l8K2niT/hJYrJLMQ3kugTajCtyfkKvD4D4M4+r/AFn/AF4z7izLfqGd8PZxh/qfEspf25nOWf2t/rBOXLnHEHJwPn/1nK/YcOr/AFeow+o1OXhvJG28Xcq1COGwahClOvCEFX56d7uNLASfM+SHNzV6OJjO9Su5qpWqKpTp4inhsMUUUV++nCFFFFABRRRQAUUUUAFFFFABRRRQAUUUUAFFFFABRRRQAUUUUAFFFFABRRRQAUUUUAFFFFABRRRQAUUUUAFFFFABRRRQAUUUUAFFFFABRRRQAUUUUAFFFFABRRRQAUUUUAFFFFABRRRQAUUUUAFFFFABRRRQAV+7Nt+wt8IJPCtl8GW+C1+/im8/Z6g8ZSftZ/8ACz9VXVrX9pXUP2ZLz9sDTvhenwpHiD/hGZPhWfhtaHwrPrDeCn1s6mZNXHjaG7EehP8AhNX6Oxft+6dH4Qt9aPwN09/2orP9nyT9mK0/aF/4WBqa6VH8NH8Ky/DpNbf4UDw6YJfinb/C+aTwFB41/wCE3TS103y9RfwjJrMa31c2PjWqZdi6eFbWLnCqsM4S9nOFZ5fmFPD1ZVOanejTxlTCynTVanap7HFTp46jhKuW43ysbSx08fl88O5/VYQqqsoVOSMMVLHZVPDYjEQ9tT9thaOFpZisRQdLGe3hVeHjhqdWtSx2C/OKiiiuk9U/dm2/YW+EEnhWy+DLfBa/fxTefs9QeMpP2s/+Fn6qurWv7SuofsyXn7YGnfC9PhSPEH/CMyfCs/Da0PhWfWG8FPrZ1MyauPG0N2I9Cctv2FvhBJ4Vsvgy3wWv38U3n7PUHjKT9rP/AIWfqq6ta/tK6h+zJeftgad8L0+FI8Qf8IzJ8Kz8NrQ+FZ9YbwU+tnUzJq48bQ3Yj0J/kOL9v3To/CFvrR+Bunv+1FZ/s+SfsxWn7Qv/AAsDU10qP4aP4Vl+HSa2/wAKB4dMEvxTt/hfNJ4Cg8a/8Jumlrpvl6i/hGTWY1vqIv2/dOj8IW+tH4G6e/7UVn+z5J+zFaftC/8ACwNTXSo/ho/hWX4dJrb/AAoHh0wS/FO3+F80ngKDxr/wm6aWum+XqL+EZNZjW+rzsfTxlT+2PqrmvbUpxwHJNQ5cY/8AWX2eJp/vKfs8IvrOS8uHj9S+r+zw/t8Pm39l4v8Atz5XBYXPIf2V9ZnXfsqUI43mxKnfM1/q/wA+YT/2yfPlj9hm/Ngn9bVbnr+yy7Lf7Qw39k/nFX7s237C3wgk8K2XwZb4LX7+Kbz9nqDxlJ+1n/ws/VV1a1/aV1D9mS8/bA074Xp8KR4g/wCEZk+FZ+G1ofCs+sN4KfWzqZk1ceNobsR6E/4TV+jsX7funR+ELfWj8DdPf9qKz/Z8k/ZitP2hf+FgamulR/DR/Csvw6TW3+FA8OmCX4p2/wAL5pPAUHjX/hN00tdN8vUX8IyazGt9XRj41qmXYunhW1i5wqrDOEvZzhWeX5hTw9WVTmp3o08ZUwsp01Wp2qexxU6eOo4SrluN9XG0sdPH5fPDuf1WEKqrKFTkjDFSx2VTw2IxEPbU/bYWjhaWYrEUHSxnt4VXh44anVrUsdgvc/iL8B/AUP7MfgXxP8Cf2Rv2ffi6Jv2VvCvjv4s/GHSP2m/GviP44/D/AMf3Gl3snxB8S3vwD8OftOQT6XY+CGFhqd82pfA+fwjpUbzS6vE+nwzrF+N9fbvgb9p34N/BzwBrUHwa/Z417Qvjp4t+FOv/AAp8S/GXx58bJvHej2Gn+OvDUvhT4ja18P8A4Y6R8NfAdn4Y1TxNol9rGm6afEvirx8nhqx1WYWpvNQhg1JfiKq5aix+PmuZ4atUnXpOUmowqV8dmFaeGw1JVXCOCw2GqYOlhZvD4SvKKlRrUpLD06s9MppYmjgYUcV7V1aU4UoVMRVlVxNelSweDp/WMTJ4vHRVetiIYidVUsT7FzvUhh8PztT/AHZtv2FvhBJ4Vsvgy3wWv38U3n7PUHjKT9rP/hZ+qrq1r+0rqH7Ml5+2Bp3wvT4UjxB/wjMnwrPw2tD4Vn1hvBT62dTMmrjxtDdiPQn+VPhV/wAE7NV+MP7NniH44+GNW+Pela34Y+F/xB+KuoReLf2TvGej/s+6lo/w5sdW1zV9K8O/tO2fjPV/Duoa3feH9Inn0iHUvBOiWV7rv/FOLei5MN1PnRft+6dH4Qt9aPwN09/2orP9nyT9mK0/aF/4WBqa6VH8NH8Ky/DpNbf4UDw6YJfinb/C+aTwFB41/wCE3TS103y9RfwjJrMa31dj4e/4KMeELfwhbyeL/gJ4r134x6X+yn4m/ZM0fxx4d+P994W+Gp8Hat8LdY+EmheJdb+C+pfDHxfDd+JdB8N6pDPdjw7478JaVr2qWR1Gaxsby9u7h+bHRxl86q4Pm9pOhUWXRUqfK8XH/WSvTq0qdaaw8cPWqz4fw3salPBPDYaTptYirgcTj8z8nBU8+o0spp1fatxrYJ5tOpUw1eVacI5PSzCSdavVq0cDiYPM69L6tXlXp4jDOdHAYOlmVLDZf+WNfuzbfsLfCCTwrZfBlvgtfv4pvP2eoPGUn7Wf/Cz9VXVrX9pXUP2ZLz9sDTvhenwpHiD/AIRmT4Vn4bWh8Kz6w3gp9bOpmTVx42huxHoT/hNX6Oxft+6dH4Qt9aPwN09/2orP9nyT9mK0/aF/4WBqa6VH8NH8Ky/DpNbf4UDw6YJfinb/AAvmk8BQeNf+E3TS103y9RfwjJrMa31b4+Napl2Lp4VtYucKqwzhL2c4Vnl+YU8PVlU5qd6NPGVMLKdNVqdqnscVOnjqOEq5bjfSxtLHTx+Xzw7n9VhCqqyhU5IwxUsdlU8NiMRD21P22Fo4WlmKxFB0sZ7eFV4eOGp1a1LHYL68tv2FvhBJ4Vsvgy3wWv38U3n7PUHjKT9rP/hZ+qrq1r+0rqH7Ml5+2Bp3wvT4UjxB/wAIzJ8Kz8NrQ+FZ9YbwU+tnUzJq48bQ3Yj0J/wmr9HYv2/dOj8IW+tH4G6e/wC1FZ/s+SfsxWn7Qv8AwsDU10qP4aP4Vl+HSa2/woHh0wS/FO3+F80ngKDxr/wm6aWum+XqL+EZNZjW+r84qOWt/aOOqXf1ScIqiub3HWWYZrUqVaVPm/d0Z4Orl0aVNUcN7CnTjhZ08RWw1bMseZLSx1HAUoZg5vFRhh1XdWp7aVTFRwWEhjMRSmq2I5MLXxUaro0HVVpxr4iGGwNLFUsDhv3Ztv2FvhBJ4Vsvgy3wWv38U3n7PUHjKT9rP/hZ+qrq1r+0rqH7Ml5+2Bp3wvT4UjxB/wAIzJ8Kz8NrQ+FZ9YbwU+tnUzJq48bQ3Yj0J/F/g1+x/wDBzTf2GPj78XPjVpV9qX7QHij4HXvxt/Z18Opq+taUngL4WeEPiv4C+HN98TvEOnaZqmnw6nN8S9e8Xapo3grTdfs9T0x9E8Jazr8NsXvtLuo/LIf2/dOi8IW+tH4G6e/7UVn+z5J+zFaftC/8LA1NdKj+Gj+FZfh0mtyfCj/hHTby/FO3+F80ngGDxp/wm6aWum+XqL+EZNZjW+rd8Nf8FUPjTbeCviZ4Q8ffDz4D/EO48a/s/wCmfs/+HvE958BfgNpPibwx4e0HUfB7eHjrmup8KNR1z4gaDoWg+FTpWmeENe1a302z1WbSfFVtdQ6v4b00thjoYybzv6o2vrGGq08Jep7Je2jU4gxCqYKacvqlStVlw/Rot0MNTw+AWKwVWM8VRedYnzMHh89jTyKNeUmsNmWTYjN/aYt+2xUsPWyWOZNNTxHNlGIprNMRUwkcTCpUrYaLp4GGEzCeT0/zEr92bb9hb4QSeFbL4Mt8Fr9/FN5+z1B4yk/az/4Wfqq6ta/tK6h+zJeftgad8L0+FI8Qf8IzJ8Kz8NrQ+FZ9YbwU+tnUzJq48bQ3Yj0J/wAJq/R2L9v3To/CFvrR+Bunv+1FZ/s+SfsxWn7Qv/CwNTXSo/ho/hWX4dJrb/CgeHTBL8U7f4XzSeAoPGv/AAm6aWum+XqL+EZNZjW+rfHxrVMuxdPCtrFzhVWGcJeznCs8vzCnh6sqnNTvRp4yphZTpqtTtU9jip08dRwlXLcb6eNpY6ePy+eHc/qsIVVWUKnJGGKljsqnhsRiIe2p+2wtHC0sxWIoOljPbwqvDxw1OrWpY7BfXlt+wt8IJPCtl8GW+C1+/im8/Z6g8ZSftZ/8LP1VdWtf2ldQ/ZkvP2wNO+F6fCkeIP8AhGZPhWfhtaHwrPrDeCn1s6mZNXHjaG7EehP+E1fo7F+37p0fhC31o/A3T3/ais/2fJP2YrT9oX/hYGprpUfw0fwrL8Ok1t/hQPDpgl+Kdv8AC+aTwFB41/4TdNLXTfL1F/CMmsxrfV+cVHLW/tHHVLv6pOEVRXN7jrLMM1qVKtKnzfu6M8HVy6NKmqOG9hTpxws6eIrYatmWPMlpY6jgKUMwc3ioww6rurU9tKpio4LCQxmIpTVbEcmFr4qNV0aDqq0418RDDYGliqWBwxRRRXSeqFFFFABRRRQAUUUUAFFFFABRRRQAUUUUAFFFFABRRRQAUUUUAFFFFABRRRQAUUUUAFFFFABRRRQAV+l3wq/4J2ar8Yf2bPEPxx8Mat8e9K1vwx8L/iD8VdQi8W/sneM9H/Z91LR/hzY6trmr6V4d/ads/Ger+HdQ1u+8P6RPPpEOpeCdEsr3Xf8AinFvRcmG6n/NGv1O8Pf8FGPCFv4Qt5PF/wABPFeu/GPS/wBlPxN+yZo/jjw78f77wt8NT4O1b4W6x8JNC8S638F9S+GPi+G78S6D4b1SGe7Hh3x34S0rXtUsjqM1jY3l7d3D4Y726y7GfU7vH+zrfVLcl1Vjl+Pnh9KzWHlCeYQwFCrGrKm40q060Z8tGdOp5uMeYfWsuWET+rLE0pY6S+ryUqCxmCjVo1I1nCrGnPBTx1V18LKeIhVoUqMKM/rHtaDv2av2EtFvdF1/xr8fPF3wntrjXP2Qf2gfjx8NPgNeeK/iJB8Z9VtNA+D/AI28SfDT4mf2f4L8NN4S0bRItY0S18V2GkeOPiDol14h0G0S4fwxrOl38FpfH7NX7CWi3ui6/wCNfj54u+E9tca5+yD+0D8ePhp8BrzxX8RIPjPqtpoHwf8AG3iT4afEz+z/AAX4abwlo2iRaxolr4rsNI8cfEHRLrxDoNolw/hjWdLv4LS+ztB/b9+F1to0fiTxN+zZ4j1j9oC3/ZQ8QfsmQfEzQ/jzF4d8A3PhW/8AhFqnwV0HxXq/wkvvg94nvrnxHong69slvYtK+Jmh6XrV/piXa2mlPd3FGg/t+/C620aPxJ4m/Zs8R6x+0Bb/ALKHiD9kyD4maH8eYvDvgG58K3/wi1T4K6D4r1f4SX3we8T31z4j0Twde2S3sWlfEzQ9L1q/0xLtbTSnu7isMx+ty/tj6ope/lOMy/L/AGcqcP3kv9d/qeKw3tKlPkx8vb8J/WcfivZVKftK/wBVpU/qeH+oebh455L6p9ZhXh7XH4PF43lq4T91Kn/qz9ZwsOXES5cm93iHkhS9pjq/scL7eH+2Yj2n5gUUUV3H0gUUUUAFFFFABRRRQB+rfx3/AGCvDd5o/gPxB8BviH8GbXxMv7Fnwc/aB8Zfs+XHib4rt8ZNUc/BnRvHvxY8caV/wlHgm5+HF7HPC2seMl8M6F8UReW+jW93Ho3hm1+yjS4/GY/2IfM+Jun/AA5/4Wdj7f8AsTyftif2z/whefK8v9nq8+PH/Cu/7P8A+EsHmbvsn/CK/wDCXfbkx5n9uf8ACMHZ/Y7d94j/AG+/AE/hWz1LwZ+zrqfh39oFf2VfCv7Jd18X/EHxnbxX4YsPBGkfDax+FXiXxH4P+Flj8MfCT6D4t8WeD4NQ0wXmt+PfF1locGs3rWdlcXawXkf6J/CDQ/j/APCX/gm1cftc/Gfxv8J/iF8G/E/7NPxg+Anwf8PWnwV+Hus/tC+F18caf4r+DnhjQNQ+Oet+FNH8deHvh14Y1DU7vVzpmj+NvEROixR+HLbSE02d7W387MJ4nD4fP8VRlyUqVTOK+AqVXFwlWxMOMZZbh8NFKrOnQg5cLYrDU8VQpwp1cLjsHXqUMA4U5/LYbE5rhKXD+Hx1S1fELKMqq0a8qU8XVxLXCscXip16EK9Cs4ypcR4VzqYmlWxFPGUsZVlUxdOlUfwN44/Yy+B+lfsVfA74u6d+01+zTpvxC8ReMvjwfEOtz6h+09NJ4+s/C/hn4S6r4b+F3h7Sm+Bt3oNh428E3uu61aa3d3lh4V8OX954t0hYvHHiOws57nQe20j/AIJDfEu++FVj4r1HWPi3pXjrU/gXd/H20i/4Zf8AiLefs52fhqPwFdfE2w8La7+1KmsQeGdM8dah4Sto0+wW/gzUvDVl4pvLXwjd+K01czJD8Z6N+0V8P7z9l23/AGc/iZ8HdV8Y6j4L8XfEXx18G/iN4b+J8ngefwV4h+Jmh+D9J1+Lxd4VuPBHi6x+IOhJceBtB1K00+21TwZqMUiXdsNb8i5OzvPiP+2H4I+M3wt0bSPif8GvFdz8dfC/wx8N/CvRPjL4G+OereDfDWsaJ4K0m18N+ENT+InwfvfA/irTvFOuaX4XsrLQL680Dxf4Ii1u2srW4v7drpJZZtcXHFezx6ws5qtUqUJYWpFUZwo06mAxnOqFOu6ftJYfGvBxr08VOlGpGlfD1pqderPpw1LOaf8AZ1Kdau6dPF5z9dq1oYGtUrRnnsMRlk5yjUpzjl88oq4mFRUF9ew1ZUsNQw1PC0aCp/Blfps37Afw9l8O6boFj+0Xq837RGo/spwftax/C+7+CUlp8N/+EMf4Yy/GG58Mr8Z4vife6gvimDwJbz3MbXvwrsdBn1pF0dtZg82O8b8ya/Xf9uD9p74t+CdF+DfwX8F3ngzwl4V8XfsHfsk6L4v13w78MPhtpfxR8WeG9Z+Cvg6/1Lwn4h+Mdt4VT4qal4Ru54YUn8MS+Lxok9nEmnT2Uung2x0x7qxwK+rS9ni8Rj44KhVfK4051ckz/E0pTU4VYOnTxmDwlerH2UqlWlRnh4To+2lUj21p4yebYLDYeooUFgMXmGLi/Zrnp4TOeGsNUXvUKtSblhMxxlKFKnVwrlUqwqPEw9ir8r44/Yy+B+lfsVfA74u6d+01+zTpvxC8ReMvjwfEOtz6h+09NJ4+s/C/hn4S6r4b+F3h7Sm+Bt3oNh428E3uu61aa3d3lh4V8OX954t0hYvHHiOws57nQfP9R/Yx+D/h/wAB+D5PF37Vuk+D/jZ4/wD2eIf2jPCXw+8S/DT+x/hnf6He6JrPiHR/A118bdQ+IdsbH4heIbHQ7yx0DS2+HM2kan4im07QY9cS51C2kfynRv2ivh/efsu2/wCzn8TPg7qvjHUfBfi74i+Ovg38RvDfxPk8Dz+CvEPxM0PwfpOvxeLvCtx4I8XWPxB0JLjwNoOpWmn22qeDNRikS7thrfkXJ2cF8efjf/wu6X4QSf8ACMf8Ix/wqn4EfDn4J7f7a/tr+3v+Ffw6nD/wk2f7J0n+y/7W/tHd/Y2NR+weTj+1r3zMpOIhXftoUKlSMq2NwyjVj7GVPDYKplGayrToRrRcpVMPmqyqlWp1qc/aRTeHc6c8ViVhgKOZxWGpYnEYlQoPPatarVWCqSxdV8Q4atlNKcqcZ1FhK+TV8YmoPDVsLOl9WjLD0aOBpS8Fr9Gdf8QWHgD/AIJwfBE6D8Pfg9Pr3xl+Nn7TXhfxt488Q/Bz4ZeKfia2h+CtG+Al54ZsfDfxL8Q+FtS8c+Do9KuPEuuPA3hbXtJkxqVyrMVkIP5zV+1Ph/8AY/8AHfx8/wCCOvh749eGfEnhLSPDX7Kfxl/aW8UeNdI12XWE13xDZeMdK+AVjYW/hdNP0m+0+W6tpNDuXuxq19pcQSWDyZZWMipeLcY4TE1Kn+7040ZYm6bj7D63h4y5oK8pxcpRThGMm9+WybW+MqU4Zlw4qrtGrm+KowTTkpYmfDmffUk0k1eOOWGqU5ySjSqwp1nKHs+ePzHqP7GPwf8AD/gPwfJ4u/at0nwf8bPH/wCzxD+0Z4S+H3iX4af2P8M7/Q73RNZ8Q6P4GuvjbqHxDtjY/ELxDY6HeWOgaW3w5m0jU/EU2naDHriXOoW0j8R4x+CukeHP2J/BXxf0qb9n7xpL4g+NFr4Y1vxt4O8RfHz/AIXX4L1fUfAN94kj+FPjbwp4u0Dwx8F10azs7NtWm1zwZF4n1k6s8Fmnia50xpYo/I/jz8b/APhd0vwgk/4Rj/hGP+FU/Aj4c/BPb/bX9tf29/wr+HU4f+Emz/ZOk/2X/a39o7v7GxqP2Dycf2te+ZlPoOH9p79mWP8AZJl/Zmf9mT4rvrU/iaD4oSfEdf2oNBSx/wCFx23w7uvAcXiRPA5/ZseVfA++7k1d/AZ8YtqbKF08eOlIN+YxKr+yzSdFzlL+04LLsND2UXPL8PxJUqRmqtR05QWJ4fVJzhWrxrPFUqNOfJSxGOoGNCGZU/7BeJliMTOVONXN3fB04YXEVsjdOtSaozw6r0cNnE70VSp4pexdeo5150sFOPct+wH8PZfDum6BY/tF6vN+0RqP7KcH7Wsfwvu/glJafDf/AIQx/hjL8Ybnwyvxni+J97qC+KYPAlvPcxte/Cux0GfWkXR21mDzY7xvzJr9d/24P2nvi34J0X4N/BfwXeeDPCXhXxd+wd+yTovi/XfDvww+G2l/FHxZ4b1n4K+Dr/UvCfiH4x23hVPipqXhG7nhhSfwxL4vGiT2cSadPZS6eDbH8iKqLqyx+Z2lbCUcfmWCw9J8vNCeBzvN8M5JqCmqf1OGAoRjVq16kquGrYiU4/WPZw2yWeMq5Tl2Jx1RVa+OwGV5gpL2elPHZNlmJkpeyoYanFyxdTF1Y0lSm6NOrTpvE1+Vcn37F/wTY/aym/Ztk/aDT4E/H9px8QLXw7D4FX4CfEdr64+Htz4EufGrfGOLVRp29vA8TwRaO2pror6KZbiO5PiBSVtX+Aq92T9oz4lp8CZv2fF1CP8A4Q2b4oW3xXbVftev/wDCVLrVr4PufBUehpfDXBpQ8LNpd09y+mnRTdnUUjmXUVt1No3hNaWq/W8a7x+pylhPqUEv3kIrL8IsX7STbcr45YlrmV3LnqQcMPUoYfD9OCWMjhorHzpVMV7bGOUqNN04eyeNxLwi5XOausI6C0alFWhVdWtGrXq/uzbfsLfCCTwrZfBlvgtfv4pvP2eoPGUn7Wf/AAs/VV1a1/aV1D9mS8/bA074Xp8KR4g/4RmT4Vn4bWh8Kz6w3gp9bOpmTVx42huxHoT/ABhD+wxoc3wNX9qMfHGxH7O6fC2bVLzxmfBlt/wlVr+0bHdjRo/2XR4E/wCE682bxZc6rJBr1t4r/t2PS3+Fry/ERtLQ28nhutOL9v3To/CFvrR+Bunv+1FZ/s+SfsxWn7Qv/CwNTXSo/ho/hWX4dJrb/CgeHTBL8U7f4XzSeAoPGv8Awm6aWum+XqL+EZNZjW+rMh/bm0OH4Gr+y6PgdYt+zu/wtm0u98Gnxnbf8JVdftGyXa6zH+1Evjv/AIQXzYfFltqsUGg23hT+w5NLT4WpL8O31RzcSeJK5MXHF+3zKphnJRm4rDKLg7yVXiGpiatCnWn7CnGeFq5VHLacqOGjQzKnlWEx9PEZbhs7zPH+Ll9LO6NHK4V3Vco1MIs2dWpQrOpy0sqhjsRh5zrYirCNfExxDp0FVVJYCOdYijhsDj8VkuBw3s/wa/Y/+Dmm/sMfH34ufGrSr7Uv2gPFHwOvfjb+zr4dTV9a0pPAXws8IfFfwF8Ob74neIdO0zVNPh1Ob4l694u1TRvBWm6/Z6npj6J4S1nX4bYvfaXdR+0W37C3wgk8K2XwZb4LX7+Kbz9nqDxlJ+1n/wALP1VdWtf2ldQ/ZkvP2wNO+F6fCkeIP+EZk+FZ+G1ofCs+sN4KfWzqZk1ceNobsR6E/wAw+Gv+CqHxptvBXxM8IePvh58B/iHceNf2f9M/Z/8AD3ie8+AvwG0nxN4Y8PaDqPg9vDx1zXU+FGo658QNB0LQfCp0rTPCGvatb6bZ6rNpPiq2uodX8N6aWwov2/dOj8IW+tN8DdPf9qKz/Z8k/Zitf2hf+FgamulR/DR/Csvw6TW3+FA8Om3k+Kdv8L5pPAMHjT/hN00tdN8vUX8IyazGt9SzCGMqLNvqza9thY08t9lV9m6ValT4jw+EqVIN0uSpGnPI62YOFf2dfHzWNUcVhcFUyWtnhMPnsalGWMlJyeZYzEVfZYt1aNKWIo8JywzXNPD8+UYCphuIMPDCSw1apiKMpqpgY4zGxziH13bfsLfCCTwrZfBlvgtfv4pvP2eoPGUn7Wf/AAs/VV1a1/aV1D9mS8/bA074Xp8KR4g/4RmT4Vn4bWh8Kz6w3gp9bOpmTVx42huxHoTlt+wt8IJPCtl8GW+C1+/im8/Z6g8ZSftZ/wDCz9VXVrX9pXUP2ZLz9sDTvhenwpHiD/hGZPhWfhtaHwrPrDeCn1s6mZNXHjaG7EehP8hxft+6dH4Qt9aPwN09/wBqKz/Z8k/ZitP2hf8AhYGprpUfw0fwrL8Ok1t/hQPDpgl+Kdv8L5pPAUHjX/hN00tdN8vUX8IyazGt9RF+37p0fhC31o/A3T3/AGorP9nyT9mK0/aF/wCFgamulR/DR/Csvw6TW3+FA8OmCX4p2/wvmk8BQeNf+E3TS103y9RfwjJrMa31LH08ZU/tj6q5r21KccByTUOXGP8A1l9niaf7yn7PCL6zkvLh4/Uvq/s8P7fD5t/ZeL/tycFhc8h/ZX1mdd+ypQjjebEqd8zX+r/PmE/9snz5Y/YZvzYJ/W1W56/ssuy3+0MN/ZOj8Kv+Cdmq/GH9mzxD8cfDGrfHvStb8MfC/wCIPxV1CLxb+yd4z0f9n3UtH+HNjq2uavpXh39p2z8Z6v4d1DW77w/pE8+kQ6l4J0Syvdd/4pxb0XJhup8rwj4gsPHv/BOb9oWDX/h78Hk1r4L/ABU/Zj0PwL490P4OfDLw38UYdK8dSfGy48U2fiD4n6D4W0/x54ti1R/D+jJKPE3iDVSkOn20ERSGNUHa+Hv+CjHhC38IW8ni/wCAnivXfjHpf7Kfib9kzR/HHh34/wB94W+Gp8Hat8LdY+EmheJdb+C+pfDHxfDd+JdB8N6pDPdjw7478JaVr2qWR1Gaxsby9u7h/W7r9kDx38DP+COvjz9ojxH4k8Jat4V/ap+KX7Nus+C9F0SXWH8QeH7fwJf/ABw0zUovFEd/pNlp0U13Nq8EliNJ1DU0aOOX7Q8DBFesxdWMc0nK6y763w3TwEvcaWOqcYSp/umv9pSq5LTw1STxEIqk8RicJ7Wq3OVTahUxip4OGZ3jmdXMlPCxaoc8MIsJl9TG0IVcI3RlRo1njqMalX2OIxdGMZ1KFNzhRh+K1FfoR4s0nwN4F/4Jq/CqHVvBfg7Uvij8dv2kfGPxB8H/ABIsPBelQ+NfDPw2+F/huT4feKvAfiD4hXN8+v3+k6/4t1PRfEeheEdL0u00LTH0/U9W1HVNS1LU7Sy0n8967FNOviqKV/q1ShSc+lSVXA4PGT5U7SXsZ4qWGlzJc1ShOpDmpTpyl7mFxCxVBV4xcE6+OoJNpu+BzDF5fKV10qTwsqkU1eMZqLu1d/pd8Kv+Cdmq/GH9mzxD8cfDGrfHvStb8MfC/wCIPxV1CLxb+yd4z0f9n3UtH+HNjq2uavpXh39p2z8Z6v4d1DW77w/pE8+kQ6l4J0Syvdd/4pxb0XJhup+D8V+Gfg/4k/4J++F/izoHwY8MeAviv4V/aT0j4Ma/488P+K/ilql58QfD8nwj1fxdc6l4j8P+L/HfiTwdpWsXWtQW88j+DfDvhmzjjhWC3tIYHljk9c8Pf8FGPCFv4Qt5PF/wE8V678Y9L/ZT8TfsmaP448O/H++8LfDU+DtW+FusfCTQvEut/BfUvhj4vhu/Eug+G9Uhnux4d8d+EtK17VLI6jNY2N5e3dw/l0P7T37Msf7JMv7Mz/syfFd9an8TQfFCT4jr+1BoKWP/AAuO2+Hd14Di8SJ4HP7Njyr4H33cmrv4DPjFtTZQunjx0pBvzy436y5ZrGhGcqPNk9XLY0pUqdR1MNxPXq49U60qlKr7Gvw5h8OqlDFzjCVfGvDP2/s6len4+B/tf2mW1MfSxEpxzDGyxPLWwkaNHBYnIPY06ValQxEKWMpYbOq7lhq/1eWLdLDPFSo4ecqVCXwFRRRXafQH/9k=;" vertex="1" parent="BbfnvtyRnh7v-UzqNb1H-1">
          <mxGeometry x="160" y="120" width="744" height="30" as="geometry" />
        </mxCell>
        <mxCell id="vdu_HfzRzDCNSPZ3rfIx-8" value="" style="shape=image;verticalLabelPosition=bottom;labelBackgroundColor=#ffffff;verticalAlign=top;aspect=fixed;imageAspect=0;image=data:image/jpeg,/9j/4AAQSkZJRgABAQAAAQABAAD/2wBDAAEBAQEBAQEBAQEBAQEBAQEBAQEBAQEBAQEBAQEBAQEBAQEBAQEBAQEBAQEBAQEBAQEBAQEBAQEBAQEBAQEBAQH/2wBDAQEBAQEBAQEBAQEBAQEBAQEBAQEBAQEBAQEBAQEBAQEBAQEBAQEBAQEBAQEBAQEBAQEBAQEBAQEBAQEBAQEBAQH/wAARCAAkAeUDASIAAhEBAxEB/8QAHwAAAQUBAQEBAQEAAAAAAAAAAAECAwQFBgcICQoL/8QAtRAAAgEDAwIEAwUFBAQAAAF9AQIDAAQRBRIhMUEGE1FhByJxFDKBkaEII0KxwRVS0fAkM2JyggkKFhcYGRolJicoKSo0NTY3ODk6Q0RFRkdISUpTVFVWV1hZWmNkZWZnaGlqc3R1dnd4eXqDhIWGh4iJipKTlJWWl5iZmqKjpKWmp6ipqrKztLW2t7i5usLDxMXGx8jJytLT1NXW19jZ2uHi4+Tl5ufo6erx8vP09fb3+Pn6/8QAHwEAAwEBAQEBAQEBAQAAAAAAAAECAwQFBgcICQoL/8QAtREAAgECBAQDBAcFBAQAAQJ3AAECAxEEBSExBhJBUQdhcRMiMoEIFEKRobHBCSMzUvAVYnLRChYkNOEl8RcYGRomJygpKjU2Nzg5OkNERUZHSElKU1RVVldYWVpjZGVmZ2hpanN0dXZ3eHl6goOEhYaHiImKkpOUlZaXmJmaoqOkpaanqKmqsrO0tba3uLm6wsPExcbHyMnK0tPU1dbX2Nna4uPk5ebn6Onq8vP09fb3+Pn6/9oADAMBAAIRAxEAPwD+USH4IePr/wCGKfFzw/Z6f4r8H2kl1D4q/wCEW1K31rXPh7JBdz21s/j7w9bf8Tbw1YarHB9t0rWri1k0K6t5oojqcWoGSyj8ir6m+Efx68N/s/8Ah2LxH8L/AA7rFz8ftWsdb0nUvHviq8gk8JeCNG1CS5sxZ+C/BtjM1p4n1PU9KaGXUtW8ffbtKsbgtZ2HhSYxLq0vy7NNJcTSzysGlnlkmlYKqBpJWLuwRFVEBZiQqKqr0VQABXdwxjuLcVmXE9HPsvoUMlwmazpcMZlOnHA5nmOF9riViqeJyqli8yprA4GUaFHLM6qYrL8XnVKdapW4dy+jhcNmWdfv+S4nPa+MzqnmmEp0suoY6VPJcZKMcNjMZQ9pWVeNbAwr4uCw2GlGlTwWYzr4WvmVOVSdTKcJToUcZmUdd78O/BH/AAnWtX9lcan/AGFouh+Hdd8VeJNeNl/aI0jRdCsXuJJVsftdj9rub69ax0iwtvtlv5+oajax+YAxNVtC0vwXd+EfHGpa74mutK8XaUvhw+B/DsWmXd3beKWvdTlg8RC71GG2ltdL/sbTFivoDeXFr9tkcwQedIpQdfba9o/hn4L32jaXqEFx4t+JfiNF8Sw27FptF8E+EHiudL0u6YgCOXxJ4luDqssUbNutPDumvLgTItbZ5m2OqYavl+SUsfh81r51gsgpY2rlleNDCfWcLhszx+c4WpjMNLA43C5dk9XFVMPirYjLa2eYZZJWlLFxr4aOmZ47FSo1cJlsMXSx1TMsNlMMVPBVFSw/t8PQx2KzKhPEUXhcTQwWXVa86Vdqrgqua4d5XUlLExq0I1D8I/EF7onw/wBU8Npc+ILrxv4b8TeJ7qxhs47ODw5p3hjxPrXh27udR1W4vjZJYeXo/wBvn1K+Ol2tobpLNzIypNNnaF8JfHniLw63izT9KsIPDu6+SDVNb8S+FvDMOoPpi7r9NIj8Sa1pM+svak+XKmkw3rLP/owBuP3de46T8VvB198JfA/wZ17XZ9O0HUPCuv2/iPVrOw1bz/B3jK1+IHi3xF4Svr9LSzM3iTw7dWGrQR65pNiNVSKC+j1CzhTXdJjgbG+HfiDwAvg6x0f4p+MfCeveF9IfxE1h4HPg/wAX3Pj3S3vWuJQ/hLxhYaXpGm6auq6gttqaWuq+JbnSIZHklvtGM0tzDJ8I+K/EDCYHNqmIyarKtgeLMdhcJT/1XzvN8ZmfC0sxz6OCxmAp5XPLcHPGzjhcFg6VDHV8tw+DwWHhmuYZljFneVyrfMSz3irD4fMZ1cuqOphc/wAXQw0FkuZ5hiMbkbxmbLC4jCwwUsHh5YmUaGFw1OniquEo4fDUo5hi8biFmeBdTjtC+APxH8SfDi5+IGjeEfG+qE+ItE0nSNH0zwRr2onXdH1XTdfvbvxNpt/axSfaNN0q70e0025e1srq1Nxq1uJb62lWKC5w9A+CvxO8UaOmuaL4WlubGeTUobCKfU9E07VtYm0cuuqxeH9A1PUrPXfEUunyRyQ3ceh6bqDw3Ectu4E8bxr1HgXxD4cv/hb4w+H+veOT4H1Cfxf4U8X6HqOoaf4j1TTL230PRfF2k32iZ8NWOqX1hdTvr1nc28ktl9gl8iRJpoGCNXd+DvGXw1uZPgV4w8Q+Op/DOqfBa3gttV8Ir4e17Ub/AMTDQvG2teNNNm8Najp9rNoscuujV00rUxr+oaN9klgkuA15CyAmZ8S+IWVS4ijTwkcxnhuIMRSytQ4K4jxtOOVvh2vmOXUKM8sxlOOYRx+Z0aOW1M0o1qtHJ8TUr/2nFKthKFAx2c8WYB5uoUI4yVHNqlPBKHDecYmEcE8nq4zCU6bweIgsZHFY6nTwU8bTqTp5fXnU+upKph6NLxrw58GfiX4t0SHxDoHhlr3TbttQXTBJquh2Opa42lBv7SXw5oeo6naa34kayZHjuV0HTtRMU0ckDATRvGr9K8BaBrHwx8WeN7XxTqS+IvBsuif2v4Vn8Lwppr2uv64dHsZrPxOviR55plUG6uLaXw3Asbf6Os8n+ur3DQfH3w01nVvg18QNf8ZyeENS+Ek0j6n4Jh8Pa7qN3r66Z4917x3pv/CL6jp1pJokbawutJo+ojXr7RRaSWz3AN3AyA8z4Nn+Ht98Pvijba98U/CvhLXPiXc6Fc2uhXnh34jX7aD/AGF4vu9Wlj1G80HwXqmmul5ZGOSw/s27vSqyxx3i2syzRxKvxbxlL63LF5dm+XwwPEvDVKnTyfg3PMXVqZfX4ux2AzvLcVUrYLOoZxgocL4Snm1XiDIqOW4ejUxFGnRxFOpUpUas1s+4if1mVfCZhhI4XO8mpwhl/D2Z4ipPB1M/xWFzPCV51MNmUcxwyyPDwx881yulg6VOdalCnVjOdOnU+Yq+ivCP7J37QPjxPg/P4P8Ah9Jr9n8d38YRfDLUrDxN4NbSdVl+HvmyeOYde1eTxDHpngKbwlZRHWPEMPxAu/C8mleHpLbxJeLFoN3a6lN86ngkZBweozg+4yAcH3APqBX6/fspftJfs/fCH9ljxV+zP4w+LHiWzvP2uh41i+JvjjRNG8Yvpn7JcWl6LLongabT9Lj8NSan4yvPilexC0+N4+H41SO7+Er6Z4ctJ9R16C7063/Y8TKdPB4mtQj7XE0qalhsM0/9qqap0OZaUGoc1f29S9N+w+qW9vi6Eo/bY/EYqg8IsNS9pGtiVSxM/q9bEfVMM6VWVTG+zoSjOt9VcY1PqkGq+O/3XDShXqwkvh3w3+zfLcfs7fE39o3x14wg8E+GPDHi7TPhj8MNLg0m38S3vxm+Kc7R6j4h8O6Bd2+v6bZ6d4b8EeE9/iLxV42gOvWVrLfeHNGsdOv7rX45rT0/9jL9hrxH+11p/wAZ/E8njax+GPgX4O/DzxT4nm8Uapoh13/hLvHWj+EfEfjXQvhb4c04634f+1a9rvh/wh4n1q+vIb25Hh3QdEvNWutPvN1paXP3j+zB+2r8KPA/wU/Zq8DeJv2m774efDT4DH4r6f8AtA/ssj4YeN/GGhfta2Hirxr4j8U20+jzWfhu78Daj/wl3hzV9O8D3SfFzU/Bk3gptIi17RvPmKRpz37J37c/7Gvg/wAL/CD4YfEn4a/Gn4b6L8MPBX7TtxqviDwd8V/D8vgnx58RPjR8LfG/hCbxB4j8FxfAHxj4yuPFmo6BqGhfC/wTqz+LZPD3gaBLDWNT0660lPEcep8uKq4qNLO1h4ylVhgayyqSpyXLWp4LEqOOlCcJQr/WK2GlisHg4V6+LpVMbgMDjstTo4j635k8bm7hWUMHiFOlmtSU6kYU5x+oU8Tio0cJh6dalhpVpTp4TB0sbiIKvSlHMsVjsuzCpGnhsLhfxEr6V+GH7Plt8Rvh3feO5PHC6FLZ3fxatl0U+H11EzL8LvhGfiksv2869p5jGvuD4fC/YX/sxsamG1En+za+edVfTJNU1KTRLe/tNGe/vH0i01W8t9R1S10xriRrC31LULSx0u0vr+G0MUd5eWumadb3Vwsk8NjaRutvHQrgz7A53meBo0sjz6fDOMVaNapi3leBzecqDw2IpvCSw2Mn7CDWIq4fESqwlKV8L7GL9nWnJfT03CnXpTqQVejTq81WipSprEU0pJ01USU6ak3GSnFcy5bW1Z7H8P8A4BfFP4paJda74C0PR/EMFrdXdkdKh8ceA7PxdeXNjaRX1xHpHgXU/E1l411zFtMjQyaNoF/HcyCWC2eaeCaKPW+AP7PXj79oDx74a8KeHPD3jD/hHtS8UaP4e8U+OdE8Fa14q0bwLa6pdRQz6xr5sPstjawafbyNeSx6jq2lRtDGxe7gTMi/Xv7J/wAY/gP8P7H4I6jqfiX4T/DnXvBHjS81f4tXPj/4Gaj8RfGfjGzXxN/aekap8OvH+keBfHmp+FLix8OG30WDTraXwc9jqllJq0V/dSXn2iGP4HfFv4Q24/Zg1DXvjfZ/Cyx+BXxI8R+KvHHgnVfC3xN1KLxzNqXj9vE9v4q0W48CeFPEumX2o3Xhkad4Zlt/E7aRc2I0WGGB5LGfev8APfE/id4tYePiPgsq4MzGgsuqV8BwfnOG4E4yzHF0an1Hj32eKq4ChhczwPE88RjuGuHYZbi8nn/Y+FpcV5bis9jSalllXojh6MsMqjrJV1d+zVWjH2vMqrjTgqjUqE6LhH2tSunRnzfuXK9JVfk34Ffs6ePfjv8AEbQ/BnhrQvF83h278X6Z4Y8T+PtC8E6z4p0XwTaX98lrNrmvfYGt7G0t7K3Zr6WLUNZ0yIwoS15EmZR4PdwfZbu5td/mfZriaDft27/JkaPft3Nt3bc7dzYzjccZr9Kvgd8W/hDb/wDDMGoa/wDG+z+Flj8CviR4j8VeOPBWq+FvibqUfjmbUvH7eJ7fxVotx4E8KeJtMvtRuvDI07wzLb+J30i5sRosMMDyWM+9fzZ1GWOfUL6eJt8U15cyxthl3RyTu6NtYBhlWBwwDDOCAeK/S+B+JeL8+4v40w2e5ZjspyPKsLlmFyXC4rh/NcuozxlDiHjXL8djaWeZjgsLhs/qZrlWXcPZvKOT1a+XZXhcfgsMpTxNSvi8XpiqOGprEujOE/8AaaaouNWMkqTeLc4Rp80qjVPlw8Z1ql4zlZ0XyS56nvt/+zR8SX+EXw5+MPhLwv448ceG/Gei+MtY8Q3nh3wFr2o6H4C/4RHxfrPhh7fWvEmmDUrD/TLXSDrbzX0ej/Y7ecwmK4jh+2ScHo3wc+I/iC7+FtjpHhz7XdfGm7ubH4Zxf2voNv8A8JLdWniO58JXEW+61SGPRvL8Q2dxp+/X30qN/L+1o7WLx3LfaXwm+LHwj8MeFP2VPGWtfGZ9D1v9n2Lx7qHiX4UaR4b+IM/ijxffXvxK8T+LdC0Kx1eDw/B8PhpniLT7+xsdYu9T8VoLPTr28ilsrmZGs27/APY/1BfHVz8C/FPjX4MeNh4Q/Z9+Iut6jpnxt8PeNdH8I/DbwjpN54q/4WPrlp8Q7TxH4Q1m01OPw7ealc3ttDo3iTw3qeo6fe22lRgXAt7l/wAxzbxY8R+Fsk4wzPMsho4rDZBn3FVDBY7Ocpr8MVMVhp4vxJp8LZZgKOeZlw5hOJ3QqZLwLN5jw5iMXVzjJc+q08JhMRm1GrjpR7ClUpwVOX+0VIU40acH7b2tf2MJ1eajTVTEUuRqcGnF+2qVE6PLSo1lH5F8K/sh/Grxj8H9a+KugfDv4naxJZ+L/DHh3QPDuh/DHxTrg8XaNren+L7jWPFuiavp0My3uk+GNR8NWWj6hLp2nalYm7160WfU7GVIbe+4/wAGfs1fGzx/pC634Y8EtcWc+palo+m2+q+IfCvhnWfEGr6O4i1XS/Cnh3xPrmj+IPF+o6dcMLS8svC+mavc299mxkiW8BgHpHw08a+CdY+EHxb+FHin4pn4YahrfxF8C/EHwnr+q6P4z1zQr+08LaX8RNK1Pw6w8F6Xrmr6TeXx8XWF9ZzSaU2mzNaSxXc9qwjkr2j4e/tGeF4/g/8ACXTNN8efCb4ZfEr4KWWv2NvN8UP2edM+Kdzr8reL9Y8b+HPEHgXx5bfD/wAdeIPC+sQ3urvaXOm3/wDYmnW+pWsGt2eoRzXF049PPOMfGjKJ8SUcryvK85xMeOMPl+VVMfwPxssryvhjG8KzzLCYr2/Dyx+Kz+hVzulRyrFY7LoYp5Ji62LnnDo0KmDw2F2+r4Nyo01N3Sx0J1PrFCLq1qOY16eHg3NKnQjVwMqOIp4mXLh3TpKh+8xdSU3+b8sUtvLLBPFJDPDI8U0MqNHLFLGxSSKWNwrxyRupR0cBlYFWAIIr3bwb+zJ8a/iB4X0rxh4U8KafqOj+IG1hPDUFx428A6P4j8VPoE8trq6eE/But+KNO8X+KXs7uGazZfD+hak0t5FLaQCW4jaIeJanqN3q+pahq2oS+ff6pe3eo3swRIxNd3s8lzcy+XGqxp5k0rvsRVRc7VUKAB+h1l8TvAXwh+C/7Gvj/UvAniHxh8S/Cuh/FbXPh7OfGdjofgTSdVsfjT4xk0zUPE/huPwjqOv+JJNL1ZYdTgtLDxd4ctLr7PHaXiyQtK0n6D4l8TcZ8P4HhehwZleX5pxFxDnmJymGDxmGWMw3Nh+EuJc+jGLrcQ8LQoU543JcNh6+PrY6o8LgauJr08sxuIVKgctOnRnWq+9L2FNSnGU37OTh7anTg6soU8Q6elROXs6NdqXuxhJO68F8Jfsj/Gjxt8HNX+LPh34d/FDWGt/FvhbQfDvh3Rfhf4r1k+LtE13TvF11q3i3RdUsYJDdaV4Z1Dw1Y6PqL2OmahaC8160S51Kwnjhtr3mPB37Mfxw8e6JB4g8MeCVubG9v9X0rSrbUfE/g/w7ruv6roMhh1nS/DHhfxH4g0nxN4o1LTrgG2urDw9pGp3cd0DbeSZx5dd58LPHHhLXfgz8Vfhb42+Kh+GWua/4/wDAHxE8PeINW0fxlrmh6gvhnSPiFpmt+HnXwTpeuarpN5fzeL7K+tJm0ptLma0liup7VhHJXJ+LfiTpp+EP7N+keE/Et/aePPhnqnxU1TVZ9M/tnStT8OX+ueL9I1rwxqNhrQgtEa9lis3vre50e/nuNPmhQ3D2tz5an5ulnni286zvJqTymdSrx28uyvHZjwLxLLJcp4XqcDZhn2GxcsxwucZbhM4w9bPcvw2SVcfQx8p5dmGNrUcZTlVxWV5bR15MJ9XoVFzylGGJ9snWp06tWcMwr06UXT5avsXLCTw1aEoxqU/ZRcH7WvGvWPnd0eJ3jkRo5I2ZJI3Uo6OhKujqwDKysCrKwBUgggEV9IfDfwH8K5/gh8TPiv8AEWx+IOsX/hnxz4E8B+GtL8FeKvDnhe0S78Z+HPiBrJ1XXH13wP4xm1G3sZ/B1tELCwfSJZorucG9RxG6fOU881zNNc3M0txcXEsk9xcTyPLNPNK5klmmlkLSSyyuzPJI7M7uxZiSSa+y/hR4C8a/EH9kT446Z4G8K694t1HSfjV8GPEWp2Xh/TLrVLqw0LTfA3xqTUNXu4bSOV4NOsnurZbm6kCwwtPEHYF1z9h4mZl/ZfD2WV6+bTyTDV+L+CsBmOYUcxnlXs8DmHE2WYTGUXmMauHqYaliaVWWGnONalKcKrhzLns8sLFTx+Hpwi6kZLMHCnKKm6k6WVZhXw8ZU1dTl7elRl7O0lOcVG0k7PyPwN+zX8afiR4csfFXg7whBqej6tc6lZaD9p8V+DNE1bxPe6OQup2XhLw7r3iLTPEXi28s5CIpbXw1pWq3HnkQLG0xCV0Pw5/Zzl8cfCb4p/FPUfHnh7w03w/8Paxrei+CSsWseL/Fz+HdT8O6d4hM+mW+o2s/hTRtKfxRpEba1q8Uj317dxWmm6ZeRpd3dpS8V/EjTB8Hv2btH8JeI7+x8d/DLUvilqeqSaWNX0nUvDN9rfi/SNZ8MX9hrSQ2kRvHisnvba50a/nn0+aFPPe1uPLU1fgt470DwzYftAf8JXrEttf+PPgV4n8JaDJPb6lqM2s+LNU8beAtZhspp7S2uzby3Vno2q3cmoanJbWQe3KT3i3E8Ec3zuPzDxSxmS5lmVCvg8qlR45wmDy3L8t4VxtTPZ8NZZ4h4zJMfHGPNsfmmFxOHz7hqhgM3jnWEynBrDZZiMwrYOjT9rgM3wVUVhliMFCopThLE4JYlurGNF0MRKmq6k4xjOj9WVRuc/avm9nNydFRafQaZ8GvhJp/wn+H/wASviR8XvGfha++I0/jaLRPDnhb4P6b42t4E8Fatb6RcSX+uX3xZ8FvE19NdQSRxxaNMIUMgZ5Sg8z5iOMnBJGTgkYJHYkAkA46jJx6nrX3t+zZ8YbP4XeH/DWoeL/2m9ST4eaTf6vqfiH9lvTNA+IHiAeLrdru7Fz4a1Gz1bQLf4Rpp/jNVR77UZvEd5Np1nfm6aybVrb7KnwfdSxz3NxNDAltFNPNLFbRlmS3jkkZ0gRm+ZkiUiNS3zEKCec16/AeYcV18+45wHEVXNsfgsDm9WpkeZ4zLpZVln1LF5xxA8Nk+WYbEcGcMYvETybK6OU0MZmcM14vy/M/aYfGYTOYVKuJoOZxpfV6U4qEanM4yXNzVJ2SvNpVpckVJXUZ4fDu1RRpzxPJUnT39I8HeJNd8P8AizxTpWmNd6D4Gt9HuvFWoC5soV0m31/VYtD0iRre4uYru7+2apPFahbCC6eEt5twsMAaUczX2J8Kv2rrn4dfB/4i/DqbwX8NtR1LWtI8Iaf4Qvb34I/CPxBBdS6P4vh1zV3+I2o65oUmpeLFXTRMugya5B4lksdUW2mgXT2givIvkbUL2TUr++1GaK0gmv7y5vZYNPsrXTrCGS6med4rLT7GKCysLSNpCltZWcENrawhILeKOKNEH0PDmZcXY7NuLMPxFkGXZTleW5zRwvDGNweZYjG183yuWTZTiqmLxVGtgcNCnOOYYnHUPaUaihCVGWBdCcsFLMcwzlGkqVKUZydWUU6kOVcsJXkmlPmu7Wja8FzJuV4/CfVXw4/Zi0zxnoHw3k8Q/FGx8FeOfjdc63a/BrwdceFr3WLLxE2k6pceHLO58WeJodWsU8F2PiTxXaXnh3w/cRaP4ke4urWW6voNPsAtyfLdL/Z/+L2t3Hge20nwdNfSfEXUvE2j+FHg1fw+be41TwZK8fiux1i7bVltfCtx4eiQ3+rR+K5tENlo7R63Nt0eaK+f7A+Dn7Qfw507wf8ABW88VfEq+8GXHwYhsdN8afDe38GX+u3vxi0TwJ8U9S+NPw0t/CfiO10q903w3fJ4r1WXSfED63rHhqOO1tor2O41eCR9NrP+Enx6+GPh34Z+OfAHizxtq1nqP7TuteM73x7ruj6f4gaw+AEcttf2ugX1hZDR2uvEd540vbx7X4hp4Ua9+0fDdbfRIpbjWGlsrf8AC58b+NOV4vi6rDh/H5zChxCsFlmCxnCua4jDYTLZ5lxjDEY3Kq2VZVkNTMMJlGRYHI89lQWY8Tz4jVChkGVZ3geJ+MMLlPD3ZSo4SpHCxqVI0lUjhva11Nc9OpOhOWYe0pOcnKlhMSqWHwijRw1TEU606yliYUZVF4Z+zz+zFrXx4l+Il1L4lsvBnhz4d+Gdc1S78QT2cOuwa34o0/RdZ13SvBWhxwatp1vqGpazp/h7XNRe8tL+4h07R9KvNUaG7j+zQ3Or8OP2YtM8Z6B8N5PEPxRsfBXjn43XOt2vwa8HXHha91iy8RNpOqXHhyzufFniaHVrFPBdj4k8V2l54d8P3EWj+JHuLq1lur6DT7ALcn274AftJfs++EdG+G3gLxr4a+IGgWXgLS/jNdar4q8L+NdPXwr418X+PfA3ibwz/wAJDq3hWT4T614pl1S80e50zwb4WuJNYhsfDEUsGo6jYPajWobu58LP2hfhVY+HfhFf6r8RNZ8B2nwbli0/xH8L7jwrc+Ktc+LfhbwN8WdV+NXwpsdB8X6b4fXRdF1m38SaqdG8UXmqXPg21eO0XUrZL61nbR083ijjDx3hmfF/9n5DxJlWXUsyyxcNQwnD2VZso4CngOO8LGVDE5flvFtfH/29mOUcNZvmFHG4PCTyinm2AyHF5hwxQxOI4npunSwvsabTozxNsXNUatZqE67eC+q4OtUU8NShh6WHeLnVxUa9LnxqlClWr0PZU14b4E/ZXtPEml+AbXxb8S7TwF8RPjDqPiHSvhJ4HvPCt7q1trd3oOs3XhaJ/GHiWHVrFPBVpr/i+xvvDWhTxaP4lee8tJrq+g0+wC3J53wF+zXd+Lvhb8WviTrPjnw94WuvhtomuanpngVhDrPjDxVceF9W8PaV4lWfTbXUraXwro+jzeJtKifWtWjla/vbqK10zTb2JLu7tPp/4eftNeANQ034YeK/GfxHu/A+o/DTUZJvHvwzs/Bmoa7c/F7S/C/xf1n47fDq08IeI7bSr3TfDd1D4v1ufSNdfW9X8NJHZ2sN7HcatBJJpo+Vfhf8TNAsLn9pbVvFl+mlah8UPg5410PQbeOz1C7jv/FniLx/4H8RxaTG1jaXK2aPZ6XqsyXmoNaWEa2oiluknmt4pfcy/O/GjGz4sWKlmmWvLuKeF/qlNcMUsTGeV1OOsywWcZVkVXEcP5fSxWX1+GIZbiMbm0a3FrwuXc+YUM6yzM8zqYHhi3Ty+NbCKMlVw8sZgKcpzqOnOrSrylDMfrCU1KjSwU3SeHq+xwbrUnUm5VoxdWHS/Dj9mLTPGegfDeTxD8UbHwV45+N1zrdr8GvB1x4WvdYsvETaTqlx4cs7nxZ4mh1axTwXY+JPFdpeeHfD9xFo/iR7i6tZbq+g0+wC3JxPhh8Ofhn4w8CfGyy8RaX8RNM+Knwt+H/iXx9aanZ+KvDkPguVND8S+EfDa6BqnhK58D3WvNeLN4gu5rm/tvGltExtoYo7GM+Y7/RPwc/aD+HOneD/AIK3nir4lX3gy4+DENjpvjT4b2/gy/129+MWieBPinqXxp+Glv4T8R2ulXum+G75PFeqy6T4gfW9Y8NRx2ttFex3GrwSPptcF8DPDXjzXvBn7XXxmvPCWtweCvEXwR+IOnv4tTTLseGP+Ep1L4j/AA31qbQINWMQs21BLczzrZiXzxbxNIUCgmuPE8U8e0nxdPirH5nkmEwfHHCGC4Wq14yyCjWxGN8Rcflf9jZTiVlGSLiHBY/heOBqVcL9e4ro16c6WPlmdHF43E5FkU4enQlPLIxjGpUq4rKoVI/HKp7eSWb0qtLnly0cJNqnhazo4d1KMqlZSr+zVaHwzRX0J8Pfhd4Q1/4GfHb4n+Lb3xBpGqeCG8CaX8Mp7fUNAsvDXiXxZrmvrD4i8L6jZ6hBPr+s6tb+E2l8RadB4e+zQafa6bqF3rl5HG+nWt7891/RmVZ9gM4xef4PBOtKrw3m8MjzGc6ThRljpZRlWdSjhaqlKOIp0sLnGFo1pxt7LGU8ThZxVShI89wkqdOq7clSVSMNdZeykoTkl1gp81NSV06lOrC/NTml7H8P/gF8U/ilol1rvgLQ9H8QwWt1d2R0qHxx4Ds/F15c2NpFfXEekeBdT8TWXjXXMW0yNDJo2gX8dzIJYLZ5p4Joo9bw58JvCXiX4JfEb4l2fjvW4PGnwyPhu413wFc+BbZNEn03xR4utfC2nXFh45Xxo11Jdx/aTfXVjN4KhSIx/ZUvJN32hfr39k/4x/Af4f2PwR1HU/Evwn+HOveCPGl5q/xaufH/AMDNR+IvjPxjZr4m/tPSNU+HXj/SPAvjzU/ClxY+HDb6LBp1tL4Oex1Syk1aK/upLz7RD5F8JU+Dp+Dnxw0PxR+0D4H8E+I/i9D4VtNL0HV/Bvxl1W50EeEPiOniF59bvvCvw11/R2i1jSrNJ9OXStR1GWJrqCHUY7GdLiOD8IzDxB8Q55rxPh6+R8SZRlWQ8ccA4bI8Rkfh/wAT5jjc8yDF8b5llPGGFzP2mTcRYLMMuhwvlcs9hnfC88JLC4XMcsdXGYHH4mGAn2UaGHdKE5zpuq/aJwnWpwg/aUMS6bUeenVpzw9SnTU3UbpVas6fJz0nar538MP2fLb4jfDu+8dyeOF0KWzu/i1bLop8PrqJmX4XfCM/FJZft517TzGNfcHw+F+wv/ZjY1MNqJP9m181U51VXdVdZFVmVZFDBZFBIDqHVHCsBuAdVYAgMqnIDa/c8pwGdYTGZtXzPP5Zvg8biFVyvAyyrB5f/Y1D6xjav1ZYjDt1sf8A7PXweG9rikqi+o+2+PE1UuRuCpQpOC9tCrXdSupuSqwnKPsaagm6cVQUZxVSDbrKfNL4UFFFFe6ZhRRRQAUUUUAFFFFABRRRQAUUUUAfS3wj/ZC+P3x38J3/AIy+E3hXw54ysdPu9UsX0Cz+KfwlsPiNf3OjWEWp6gmg/CbWPHOnfFHxMsdlMssE3h3wfqkN66TwWMlzcW1xFF0f7IP7Gvxe/a/+K3g3wJ4M8H/EhfBOr+NNF8KeO/iz4Y+F/ifx/wCFvhZaarMqz674tl0o6dpNhb6fbMbyaHWPEWhRNApd72CP94P0e/4J/wD7S/7JPwh0f9l7WdZ8cfs9/BXxR8L/ABxrWs/tDz/Fr9lHWvjH8U/iVE3jC71bw94h+Dfxk8OfCj4sa34EmsPB0+m+GrfRLS9+Gj6RrWlXOtQalqMmpm8hrfsr/tE/s42S/sIa74t/an034C6V+yh8SvHHir4ofCbXvAXx01qP4nalrvxU1Txpb/EHwte/Cj4feOPDuq6vqvg260HwbdW3jifw5qGl/wDCLW9rBJNpU0cicmIrVqVfFRp0nOjS9jTpz9nVqST5cR7fG/uk1i8LUlRpLD4XDcuYU1iqLxdKly4j2HymLzPOXg849hhKtPEUXVp5dVp4DF1Kk3OjnjpQjRnCrTq16dbLsCvrXvZc1mNGcnJyo4fEfnl+yZ+xd8XP2tfjD4X+Hfgrwn8R5PA9/wCPNM8G+Ofi/wCFvhb4m8e+FPhjZ3915M3iHxZJpL2Okada2Vrm+lg1jxLokRgG57+GP97XyPe232O8u7Tf5n2W6uLbzNuzzPIleLfs3Nt3bd23c23ONxxk/uL+yv8AtFfs42a/sIa74u/an034C6V+yh8SvHHir4ofCfX/AAF8dNaj+J2pa98VNU8aW/xB8LXvwo+H3jjw7qur6r4NutB8G3Vt44n8Oahpf/CL29tBJNpU0cifh/qk0dxqeo3ELb4Z767mifDLvjluJHjba4Vl3KwOGUMM4IByKKVSs8RKlOMlCnTnHmdOVqsoVIwhiFWUVS5cTGMq9LDRtXw9Oahi4wrfu6f0GHrVq2Pz1Tpyp4WhiMHSy6DpVacFBY3iGlifZ1ayUsY5YfDZTVq16cqmGgqtFYaUo1JYjFfYPiD9hv43Rfs9fBX9o74f+A/ip8U/AnxO8GePvF3jHWfB3wj8Xar4S+EreBPiP4r8Cz6b4m8baINc0Ym8sPDC+KJbrVE8NnT7PUBbva3MNuNSuPJvDn7NHxt8W6p8CNF8PeCv7Q1L9piS9i+CNt/wkfhK0/4TaTTvF+q+ArxfOvtetrfw35PizRNT0rPi6XQRJ9m+3RF9Nmt7yX9P/gH+0P8As5+BPA37A3xS8RftMyeHfFH7IXhr4qT+Nf2d/Dvgn4xXXjn4ja9qfxm+I/jzwv4VsfEUPg+z+Di+HfF2keINH07xLqOsfEDNho19qVtLpV9dxtpzet/8E5NWj+KU37KvxF+KX7M3xTi+Hn7HvxJ8Y3Wh/tUeEfih4c+HvwO8C+Gr3xnqPxh8Rab8X9K8Z/DjxHZa4/hDVfEeoXVha+FvHPg3W9a03U9P0OOE3kdrdzKvWq0KuYy5b4fB5ljqkpTXLCGTxxma0MNKlipOGFrTko5XKjOdaPs8H7aWLnPEV8NUqeBiM3zPC4DGVnhlUr06uJo4J1aM6DxVd081nh8PDCVatDEYj2E8JgISqYNVZZjDME8FSvhcTUj+cvgX/gnL+1B8Rv2bdc/aC8IfBj47+JZrb4keC/B3hLwX4W+BPj/xOfH3hPxLoPjvU9b+JXhnxFo1rcrqfhrwjq/hDTfDmpXGkaLq+kvqHiexFxr2nXEdvZaj5v8ADT9h/wDai+LvhiLxd4E+Fz32lXuqa3oeg2et+Mvh/wCC/FHjPWvDcht9f0j4eeCPG3ivw940+I+p6PeBtP1Gw8B6B4iurXVEk0uWJdRje1X2r4I/E74YeJv2Y/j1+z748+PzfArX9a+NXwz+Mnw/8T+IPDfxO8U+Fdc03wV4W+LPhrWvBQPwx0HxXr/h7VNQl8daRqWnXF3oY0G4+yTxX99Yuscw+o/hN+2t4Fj/AGdP2dtN8O/Fz9nr4FfHH9l/w74m0O1b45/sa6F8d9V8XXlv4+8S/ErwX4v+Evxgsfg/8VfFvgfxB/aHiJ7C90XW5PCej6br9lF4n07WI5b6+mUr1a8J4+pTi3TjPKZYamqFSqqWFxGR4atjMRHkkqmMnh83pV8HXwNNvGPEYqWKgsPltKnTh3YrEZth51MPh4UMTUjmmYYaNathsZGj7GGIxcsAnUw0akZUsThXhJxzGnGWEw0aVTDYl1MbWTj+JM8E1rPNbXMMtvcW8skFxbzxvFNBNC5jlhmicK8csUiskkbqro6lWAIIr6z+HH7Cv7UPxZ8A+H/iV4C+Huj6z4b8XxeJJvBVndfFH4ReH/HHjyPwjd3dh4ibwB8MPEnjzSPiX47Gm39he2DDwj4S1k3F9aXNnZi4uYZIl+WNX1W+13VtU1vVJhcalrOo3uq6jcCOOIT32o3Mt3dzCKFUijEtxNI/lxIkabtqKqgAfs5b/Hn4Tfs3/s4/8E1Pi7qnwn8ZfET47eBfhr8b/Efwf1F/ibpXhj4S+Gtas/2l/iyNE1rxr4Gg+HWr+LvGt5oGuldbtLHTfiR4O0u+Nta2OowTW4uDcXXqVqWAo1nGH1utiqGD9lC9WCrVctzTGy9lGcsMqzVTLlThGrXwcHCpKpUrUuWz681xGKoToU8spQryr4itTgsTFJOnChXqU3VnGvT+rpzhSVatThjJU4Ofs8LXk48vyL4B/wCCdP7T3xL/AGadY/aH8G/Bj48+JpI/iL4J8JeEPBfhn4DfEHxG/j7wj4n8P+OtV1n4leG9e0q0mbUPDnhHVvCOm+HNTl0vQ9V0z+0fE9il3rmmXMdvZajwfw4/YU/ao+LPhKz8a+BfhcmoaPq1/wCI9K8O2WreOvht4R8XeMNV8ITSWvibSvAngDxh4w0Hx3481TRbuGWyvtN8G+G9cvYr6N7LyGu1MI9b+BHxT+Hfiz9lv45/AP4l/H9vgZ4t8QfGT4XfGnwZ4p8Q+G/iZ4p8La9B4O8J/Fjw74j8GZ+F+g+K9d8ParqV3470vUtOnutDHh+4NpPFfX1i6xzDz34kfHDRm/Z7/Yj0L4c+OdY034sfAy4+OeqeIrzQT4l8O674K1rxP8UrLxV4L1XSfE622nRvqVxZW/8Aalpf+G9Vu7nSp40W7lsb4JFSqzxCxmMpwUY0pTy1YR+ynXpUYVskwdbE1edSpPERpZnSx1CvSnVo1ViJqpF4bCVMJh1gq2Z2dOm6dSqsyxtF1K+CxFGCwkHmNbCSk4VuRqtRjl0Y4mjKtToc1TD1lXxnM4/GUkckMjxSo8UsTtHJHIrJJHIjFXR0YBkdGBVlYBlYEEAivtn4N/CX4AT/ALKHxo/aD+MelfGHxHrvhL4ufDf4Q+BtD+GfxA8FeBNJt9Q+IPgT4o+KR4h8VnxT8K/iPea3Z6Ze+AbOA6TpF14anurW+uVGpwyiKaP4pubm4vLie7u55rq7uppbm5ubmV57i5uJ3aWaeeaVmkmmmkZpJZZGZ5HZndixJP6Z/Aj4SfFD4wf8E3v2ldJ+FfgDxb8QtT8MftU/ADxp4isPCGhahr13onhLRPhB+0PHq/iTU4NOgnks9G017y0W91CdUtrdriESyL5i5vFylTyfM60pKnUpQybnrQk4+wp4jibIsFjqkKjs6cVgcTi4Os+WVKnOVRShKKlHrx1SEMTlsPaypUa2YVKbvU9k6ijl+YVsPSnKLSbniaWHTpp2qztStJTcX87fC39h79p/4z+CNK+IXw4+G9rrnhrxFPr1p4SW8+IHwy8M+JPHV54Ydo9fsvh54H8VeMtE8bfEO90uZHtrmz8E+HteuftSm1jie4HlV2Hwe/Yun+J37N/x5/aG1n4t+DPBkvwi8Jax4n8L/CtVtvEvxF+ISeFvE/gvwz4vuL7RrLW7G4+HfhrQLrx54fiTxB4jtri51vUrtbLRdCvbWG/1SxzfiN8btF/4Z4/Yh0D4b+N9X0n4rfAub446n4guNA/4STw5rngfWfE3xRsvFPgrUtI8TR22nQtqMtjbDU7S+8M6td3GlTxIt1NY3oSKs/8AZm+K/g7wN4X/AGx7Xx74jmsdZ+Ln7LniP4f+DWubHW9XuPEvjzU/i58I/FaabPd6fY6gtjNdaR4Z1/UZdW1yax00vZtDNqAvbu0guZryxDw2bSo2hOnl+bPA2puddYzBUMRUwk6abdPE/XqlGEKNB0Pd9rCMXipVIuHLGpmU/qc5uNOD4hymjVp0sNOM5ZRUzxYPHxrutOr7KCy+dLFVMdSULUI4mpFYVKnXh2Gk/szfs7aF+z58HfjX8af2jvib4G1v42J8TZfC3gjwH+zdonxNsLOL4beKD4WnOr+LtV/aF+GssD6rdyW1xGlv4WuhZwyyhmuWhXzvhI4ycEkZOCRgkdiQCQCR1AJx0yetfrt+xX+0ppnwH8EeC9V+JH7dGtXHwc0C68T6r4q/YE0Twf8AGDxbF8QLe5vNVS58Ea5Y+JfCFh+zvb6P8Q3aG81bXD4y1a80bT9Ve+XTX8RWn2KL8kbyaK4u7q4gt0s4Z7meaG0iZmjtYpZWeO3jZyXZIEYRIzksVUFjkmqvUWNxNN8zpKEJQsrUoN1Kq5Iy9k41JOKinUp4zEqSpqpKjg41KSr7ZbPFTWOjinVl7LF1FQq1Kfso1KU6+LtSpQeEwdRRwlKnh4zqzhXpV1Xpyw2NxThiXS7Hw/8ADTxv4p8GfED4haDoT6h4O+FkXhibx7rK32mW6eH4vGetf8I74aaSzu72DUb/APtPWf8AQlGlWd+1s3769Ftbfvq4Wv0q+Av/AAUIvvg7+zX8ZPgtc/DD4Iazr/iTSPhhpnw51PU/2WP2c/F1hf8A/CK+OZfEPiWb4zat4p8JS6z8QZxpEpHhK78VWXja50vWljuLZtGaKO+X85NV1GbWNU1LVriCwtp9Uv7zUZ7bStOstI0u3mvbiS5kg03SdNgtdO0uwieVo7PTtPtreysrdY7a1ghgijjW1Kp7arHkj7CMmqdVytOa5abi3TtJLm5qnM1U9xxUEp61DfC1MVUeKWKoU6Cp14Qw/s6kqqq0nh6U5zlKVOnrGtKUItRSlaUXGLpc9X9A/g1+whonxK8I/BY+Lfjzpfw1+L/7UX/CUH9mv4XXXgHUvEWmeMotA1rUfCOk3XxA8e23iLS4vhpaeOvHGj6r4S8FyweGfGjXl7ZNfavHoulyR3jeA6B+yB+0Z4puvhZaeHvhvcaq/wAZ73xzpvw/uLbxJ4O/s691D4Zy3EfxCsvEeqyeIo9M8AXXgyC2k1TxJB8QLvwvLpOgNb+I7xYtBu7XUpv0p/Zv/bL+C+hfD39mHXvHPxv1X4b6h+zPpmhaJ8TPgVa/DLV/FOpftG6V8GvjX4o/aH+AyeAPHFjoGp6H4Luo/G/iqfQvGbeJ/EngpILOxXUoJfEttONITnP2ev2sfgP4L/Z++JnwO8e/FTxDp2r/ALb2ufEzWvix4z8PaN4yfRv2R5JLW9tPBraVpaeGpNU8ZXHxP1KQ2PxsHgAaol38Im0vw5aTajr8F3p1vzYqpiaU8ynQg6sqE8w+p4XlfssThqWM9nksqeIUWoYrMcveIx2Ze0r1aWErYOhg/q2BxGZUaMPEo43N4uaq0JzhPFYGk6s8HWnLCxqwzaWc1Y0qNPDTxOEyidDLfqEIRqVs4o1ZQw2Or4rEcuD+Vv2Ov2E/E/7WFt8bteuPHGl/DPwT8FfAXi3xBdeKrzTIPFEHi/x7oPhTxL4x0X4XeFYLbxBo1rqmsa/oPg7xRrdzqlhqd9baH4e0W71qSz1COSyt7vofg1+whonxK8I/BY+Lfjzpfw1+L/7UX/CUH9mv4XXXgHUvEWmeMotA1rUfCOk3XxA8e23iLS4vhpaeOvHGj6r4S8FyweGfGjXl7ZNfavHoulyR3jfU37JP7b37HPgLwn8HPhJ8T/Avxj8G6X8JfA/7TQ1rxr4G+KWir4B+J/xI+MHws8beC7nxhrngST9nrxR46bxNruhXuh/DjwJqV14lj0XwFatp+razo8umx+JbfUdT4B/tm/APRvCH7OfiHXvjP4k+Flr+zVHpuj+Nf2f7v4fX/jrxN+0J4W+Dnxz8WftEfs72nhL4kaN4RXwx4Z1m18WeK28PePr7XdR+HNo0entrFlba1ZXSaDA8RUrLEzhF1Y4L2eWwq4mhRVSrSwynxBDNMzwlGcatWtjquJoZOsFltTD16kMtrRlicBRxE6uLeOKxefqOMlRwtanXVbE1MBhp06NalOp7OUMBl9fE0IVaTwdWnRljMbjJVcJ7PMK0MBDMKWEnTrw+UPhR+wFp/jfw98ItO8efHHT/AIV/G79pK78YWX7PHwk1DwBqfiCx8VTeFfEGqeCrJviJ47t/EWmRfDKHxr4+0TWPB3g+SDw140a7v7B73V49F0uSO8bifhR+xJffEH9nj9oL48+I/iv4N8DX3wX8M69r2gfCXFr4m+I/j2Twf4r8G+FPGsmoaPYa5Zz/AA88N+Hb7xzoMC+IfEMFzca3qV0tloeh31pFfapY/efwX/bp+EF7oXwD+IvxG+Neo/DLW/gVdQP8VvgJp/wy1jxTe/tE2fwy+PXjD9pf4GwfDzxxZaBqWieC5oPHnjK50Dxg3ifxJ4KWCxsE1KGXxLbz/wBkJ+fXwG+Nvg/RLT9uLU/H2sR6Drfx2/Zz8a+FfB1lDpmsahFrHj3xL8afhT42XQopdL0++i0uM6R4f1+7TUdZk07SkWwFtJfJeXNnb3GMqmPdHM+aPssTDLc8q4eNKPtaVKrhITq5BUwspQmsVjM1p06scbhZ1a/1essPBYTCVMQsMd9KpmMsS1z1vqtPiDhukpVMMo1a+BxecYjDcQ4d82HoOlgcvwrwVSjmCozdTBOvio46VSc5Zd3vwa/YQ0T4leEfgsfFvx50v4a/F/8Aai/4Sg/s1/C668A6l4i0zxlFoGtaj4R0m6+IHj228RaXF8NLTx1440fVfCXguWDwz40a8vbJr7V49F0uSO8bk/gb8F/gX8SPgv8AtQw+K9C+MuifH74A/CXxL8WLDXLDx94Kh+F97FonxE+HXgRfCmtfDy8+Fd54uGoQt4yv7m81a0+J9rBJLZW8UWmQL5pk+1/2b/2y/gvoXw9/Zh17xz8b9V+G+ofsz6ZoWifEz4FWvwy1fxTqX7RulfBr41+KP2h/gMngDxxY6Bqeh+C7qPxv4qn0Lxm3ifxJ4KSCzsV1KCXxLbTjSE8X/ZW8BfFnxF8Fv+Ci/wC0jqnw88U2nwv8Z/syfELRk+Ii6FqKeBpvHOp/Hr4IeIbvwrZeIXgGnS6vBbC7uRpy3BultbeSUxhUYi8bUrU4Z/JN06OHy3iatQmly06NLBQrS4axlLEcvvYzMYwVXMMP7eaoYiGHw8sPhFjJYSXPh8TjXUwyxs6lJz4k4QwuFU06EsRPH55Uw3EGXqn7Kh9ZwWFwjowwdR06yxGGqVMcsXiKkZRwP5VUV9j/AAj+A3w48U/sk/tT/Hv4han4x8OeJPhpqPwo8NfAqe01jwhp3gfx3458TeKFj8deCdX0zVrW78YeI/EGl+AZW8YaXD4RNhYaPYaZqV94n1JEn0fT9R+OK7ede2rUPt0PYe07J4nC0MZTXdN0MRSm00nacZK8JQnL36FaGIjWnTvy0MXVwcm1ZTq0KWHq1ZUnqqlKDxCoOpH3ViaGKw7tVw9SK+lvhH+yF8fvjv4Tv/GXwm8K+HPGVjp93qli+gWfxT+Eth8Rr+50awi1PUE0H4Tax45074o+Jljspllgm8O+D9UhvXSeCxkubi2uIoug8I/s8/Dvxp+yv8YfjvpPxa8UQ/Er4IXXgU+MfhJf/Ciyg8MTaT8QfHY8F6He6N8VY/idPf3d9Cm7VNR0y6+GNjHbuv8AZ8WoXAP20fpD/wAE/wD9pf8AZJ+EOj/svazrPjj9nv4K+KPhf441rWf2h5/i1+yjrXxj+KfxKibxhd6t4e8Q/Bv4yeHPhR8WNb8CTWHg6fTfDVvolpe/DR9I1rSrnWoNS1GTUzeQ/N37PcX7Ng/Zc/ag8HeOv2wvhV8M/HP7RB+GqaH4R8Q/DT9pnXbzwkvwy+LN/wCKLiTxRq3gP4H+LPDUi+I9Eit7vRB4e1rW3hN7Bb6yul3UV3Bb8uIrVoV8VCEJrD0fqnJVp0p1a05QxKWJlT5I1adfD4ujCcqMKdJYvD4efLiIYfGTpqn4kMfjpvEutRxFFYfNcupYdUcvxUvreDxOMzGhjIV4zo15WweFwdPEzxmFnChOWKwnJVUakaNf8ua+kPBX7HH7XnxK8L6V44+HP7K37SHj/wAF67FPPoni/wAFfA74neKvC+swW11PZXM2leINC8L3+k6jFb3trc2k8lpdzJFdW89vIVlikRfnKRVSR0SRZVV2VZUDqkiqxAkVZFSQK4AZQ6I4BAZVbIH2J8Nf2n/hl4E8D6H4S139kL4R/EbVtIguobvxr4i+LX7XXh7Wdce4vbm6jnvtF+HX7RXgzwXZPbRXEdlGmieGdKgkgtoprmKa8kubmfqm37GUqacqvNDli1q4ONRybhN0ldSVNe9WhJc1lCd5Sp+rjJ4uk4LC0lVfPKNWypVFFJaNOWMwsWm72lB1U10StJ/H91a3VjdXNle209neWc81rd2l1DJb3VrdW8jQz21zbzKksE8EqPFNDKiyRSKyOqspA+1fg38JfgBP+yh8aP2g/jHpXxh8R674S+Lnw3+EPgbQ/hn8QPBXgTSbfUPiD4E+KPikeIfFZ8U/Cv4j3mt2emXvgGzgOk6RdeGp7q1vrlRqcMoimj+Lb64ju728uobWKyiubq4uIrKGW6nhtI5pnkS1imvZ7q8mit1YRRy3dzcXUioHnnmlLyN+l/wI+EnxQ+MH/BN79pXSfhX4A8W/ELU/DH7VPwA8aeIrDwhoWoa9d6J4S0T4QftDx6v4k1ODToJ5LPRtNe8tFvdQnVLa3a4hEsi+YuccVKUMmzGvN+yqUqeS89VNQeHp4niXIcHjqimpzVG2CxWLhKqqj9jCUqkaqcVUU46caeJy6HtnTo1cwqU5NVXTVVRy/MK2Hpynam5KpiaWHtTcY+1ly03Bqbg/zGr7r/Yy/Ya8R/tdaf8AGfxPJ42sfhj4F+Dvw88U+J5vFGqaIdd/4S7x1o/hHxH410L4W+HNOOt+H/tWva74f8IeJ9avryG9uR4d0HRLzVrrT7zdaWlz8KV+2X7IP7cX7HvgjwX8FPhV8U/h78afANh8K/AP7Sz694q8HfFTw6fBPxF+Jnxk+FHjTwdeeKPEfgeH4A+MfGEnizV9Ev8ARPhp4J1M+LZPDvgOAWGr6np11pMfiOPU6xjqwy7MZ4Zc2NWCxawSSUnTxCwmJq08S6cly1vYypKFGhH2lStjK2Ej9WxND6xTMMzrY6jHD/UqFWpevCeJqUo0qkoUKLVR0Y0qk4ubxlRU8LUlC0qOFqYnEU6kMRSoRqfFXwa/Yxf4qfs1/Hb9ovU/i/4J8I/8Kn8H6t4r8J/C+E2vij4g/EaDwz4l8FeG/Fl3d6TYa3ZTfD7wvodx498PJF4i8Q29zca5qF4lnoeh31pFfapY/EVfY/7OfxR+Gfw+0L9tLTtX1O/8N2nxV/Zl8VfDr4W6bqsN/wCIdU1PxDf/ABh+EvijRvDupar4f0GHTor9fDPhjWLm812/sPD2gz3GnyKn2Ge9sbCT44ocqjxiaUo4eplWX11ScYtUcZLF5rQxVOVWLnzVpUcPgq9Wl7SUaSrU3TjGnVjKfTgvrHLmUcVN1J0s7xVLCTdNUYyy15XkuIw6pRUYupSp4rEY+j9Zlzzq16VeLnFUlh6H6JfBr9hDRPiV4R+Cx8W/HnS/hr8X/wBqL/hKD+zX8LrrwDqXiLTPGUWga1qPhHSbr4gePbbxFpcXw0tPHXjjR9V8JeC5YPDPjRry9smvtXj0XS5I7xrfwo/YC0/xv4e+EWnePPjjp/wr+N37SV34wsv2ePhJqHgDU/EFj4qm8K+INU8FWTfETx3b+ItMi+GUPjXx9omseDvB8kHhrxo13f2D3urx6Lpckd431B+zf+2X8F9C+Hv7MOveOfjfqvw31D9mfTNC0T4mfAq1+GWr+KdS/aN0r4NfGvxR+0P8Bk8AeOLHQNT0PwXdR+N/FU+heM28T+JPBSQWdiupQS+JbacaQm78F/26fhBe6F8A/iL8RvjXqPwy1v4FXUD/ABW+Amn/AAy1jxTe/tE2fwy+PXjD9pf4GwfDzxxZaBqWieC5oPHnjK50Dxg3ifxJ4KWCxsE1KGXxLbz/ANkJliJVY160Yyqww/8AaWKo150aXtp4TIITxiy7Ncvj7Kt9czbGQhhXjcv/ANt9g6lnl+C9pL6t85UxfECo4uVKlVnWhGlLAQlh7RxOaSjmDxeWYhvCQ9llGHnTwqwuYOVCOJXsebOV9cqvBfhffWN3pl9eabf28lrfafdXFje2sy7Zba7tJngubeVf4ZIZo3jdezKR2r9KfgL/AME9dC+MXgb4G6trfxy1Pwf48/aXm8ewfB/w5onwW1/4g+ArSTwDquo6JqS/GD4qab4s0eD4asbzTJ9R1CPTfCfjqbwz4UuNP8V+Jo9K0q+jZfzp8Ua9c+KvE3iLxRexxw3niTXdX167ihz5UVzrGoXGoTxxZ58tJbh1TPO0DNftV+yv+1L+z54D+DPwE8N3f7S03wQ8A+DoPFy/te/ssy/Bfxn46b9ru71rxFrL6lcf8JFommX3gvX7fxZ8NJ/D/wAPdIsPiR4g8IQ/C+/0ibxF4YY3s51GdzliXlaqSUaOPlGhGoqalWjh6k8LiJ1qiUKeJqyw9LEU6VN1KGEzHEXqUoQwFWnVq4nCezn9bF4ecFlTxE6axGKalSw31mdalToVvq1JwdGUY1K1R0pr208uw8/ZzpVcywUp041vkL9lr9lb9mb9ovxR4F+Fuq/tO/FnwH8XfFU+vR65o+mfsv8Ahrxv8N/CVt4bt9a1fV9euviRJ+054RvdQ8NaT4V0a58Ratq6+BbJ7O2juoLezvhbxT3XwFqUFna6jqFtp96dSsLe9uoLHUWtms2v7OGeSO2vWtGlna1N1CqTm2aaZoDJ5RlkK7z9k/A74tfDD4R/D39rrxjpF/Lo/wAWPiJ4NHwV+B3g97PWr+90LwN8UdeuG+K/iqfxImnNottcaN8ONI/4V/brdavb6zqUvjy7u7KxuLWzvp4PimnB1Z4hSftKdL6nhp1KM4U4qnjsRKrWq0YSi6vtKeGwbwKU4YqtGOJr4zC1pzrYRuPZQjWhiMzVStUq0YY2OHwXtY07uhQoxq1MVRqUsPheehia2LlhVGvSlUj/AGWq9OUYYqSn9u/Br9jF/ip+zX8dv2i9T+L/AIJ8I/8ACp/B+reK/CfwvhNr4o+IPxGg8M+JfBXhvxZd3ek2Gt2U3w+8L6HcePfDyReIvENvc3GuaheJZ6Hod9aRX2qWPa/Br9hDRPiV4R+Cx8W/HnS/hr8X/wBqL/hKD+zX8LrrwDqXiLTPGUWga1qPhHSbr4gePbbxFpcXw0tPHXjjR9V8JeC5YPDPjRry9smvtXj0XS5I7xvJf2Xvif4G+HXg/wDbA0rxlrn9j3/xS/ZW174b+BIP7N1jUP7d8aXvxZ+EPia20bzdK0++h0zzdE8L67e/2jrMmn6Sn2H7NJfJd3Nnb3H6C/s3/tl/BfQvh7+zDr3jn436r8N9Q/Zn0zQtE+JnwKtfhlq/inUv2jdK+DXxr8UftD/AZPAHjix0DU9D8F3UfjfxVPoXjNvE/iTwUkFnYrqUEviW2nGkI8U5xrLknUhhqlDKZYmdGkq1XA0Jz4jpZnicHBwqyxWYRqYLIpRwUqWKSo4+co4SFOSxNLw8XXzqlhsc8Op18VTzfMYZfF4eMaeIpLJ8kxOWYOslRmoZc8Vic1p1sxlVoOpjcIsLPMMHTqOOG/Ey+sbvTL6802/t5LW+0+6uLG9tZl2y213aTPBc28q/wyQzRvG69mUjtX6EfBr9hDRPiV4R+Cx8W/HnS/hr8X/2ov8AhKD+zX8LrrwDqXiLTPGUWga1qPhHSbr4gePbbxFpcXw0tPHXjjR9V8JeC5YPDPjRry9smvtXj0XS5I7xvgrxRr1z4q8TeIvFF7HHDeeJNd1fXruKHPlRXOsahcahPHFnny0luHVM87QM1+0H7N/7ZfwX0L4e/sw6945+N+q/DfUP2Z9M0LRPiZ8CrX4Zav4p1L9o3Svg18a/FH7Q/wABk8AeOLHQNT0PwXdR+N/FU+heM28T+JPBSQWdiupQS+JbacaQgpVngMPOunQrzrYSOZPDR9vVwWCng8ZPHYnAUnGr9bxVDHU8DQoUPYYr2tHEVpOg1F4jD+hn9XHYfn/saM67Txn1OLp88cViIRf1HD4xujL6vhK8Pa1K2Ic8GlXo4fDyxmEhiJVY/L/wo/YC0/xv4e+EWnePPjjp/wAK/jd+0ld+MLL9nj4Sah4A1PxBY+KpvCviDVPBVk3xE8d2/iLTIvhlD418faJrHg7wfJB4a8aNd39g97q8ei6XJHeN+dl9Y3emX15pt/byWt9p91cWN7azLtltru0meC5t5V/hkhmjeN17MpHav3Q+C/7dPwgvdC+AfxF+I3xr1H4Za38CrqB/it8BNP8AhlrHim9/aJs/hl8evGH7S/wNg+Hnjiy0DUtE8FzQePPGVzoHjBvE/iTwUsFjYJqUMviW3n/shPxC8Ua9c+KvE3iLxRexxw3niTXdX167ihz5UVzrGoXGoTxxZ58tJbh1TPO0DNY0Z4uWIkq8FT1xinSprmw9OhTxMIZTWo1+VuriMfhHiK2YUXXqPCVaOHToYF13h1rl9TEzq5nHEOrKhSrYVYGpWpeyqTnOpmSzKiouhhnLC4P2WXQwVf2U1iqNaWI+tYic50sH96/Br9hDRPiV4R+Cx8W/HnS/hr8X/wBqL/hKD+zX8LrrwDqXiLTPGUWga1qPhHSbr4gePbbxFpcXw0tPHXjjR9V8JeC5YPDPjRry9smvtXj0XS5I7xsL9kD9g3xd+1Onxz1XU/F9r8JvCnwN8D+MdZ1PX9Z0I63N4l+Ivhzwv4m8W6X8JdB0xtb8Pm48RaxovgzxVq2o3cV7cjw5oehXuq3Wn3m60tLn7I/Zv/bL+C+hfD39mHXvHPxv1X4b6h+zPpmhaJ8TPgVa/DLV/FOpftG6V8GvjX4o/aH+AyeAPHFjoGp6H4Luo/G/iqfQvGbeJ/EngpILOxXUoJfEttONITS/Zp/4KA/sjWVj8N/CXxg+HPxl+Hcfg7w9+1Z4i8U+JPBHxU8PHwH8QPir8fPhx488Pan4k1/wPD8APGPjGTxRqek6vo/wx8Dam3i2Tw94Dtl0/V9T0660mPxHHqax08VCOc/VVKVWFDO6eXwjBSp0qdH27yHMoSlBxxWKxmDpVamMwKr4ipRzJ5bT/s6nRr4nBrx44vO+StfD4iajicvqe1VGkqkXGWY1M2wNOjVhh3Wwsa1LK8DhMVCE3Uy/FYvMKeYV8VGnRw/4YV+iXwa/YQ0T4leEfgsfFvx50v4a/F/9qL/hKD+zX8LrrwDqXiLTPGUWga1qPhHSbr4gePbbxFpcXw0tPHXjjR9V8JeC5YPDPjRry9smvtXj0XS5I7xvz81V9Mk1TUpNEt7+00Z7+8fSLTVby31HVLXTGuJGsLfUtQtLHS7S+v4bQxR3l5a6Zp1vdXCyTw2NpG628f7Xfs3/ALZfwX0L4e/sw6945+N+q/DfUP2Z9M0LRPiZ8CrX4Zav4p1L9o3Svg18a/FH7Q/wGTwB44sdA1PQ/Bd1H438VT6F4zbxP4k8FJBZ2K6lBL4ltpxpCddWV8LTmva0efFYeOLnThGrisHls8LjZ4nFYWhFVo4nHUcXTy+hTw8aOLVSniK7VBxg8Th/QzqrmVClF5ZB1a6hiXQhGm6lLE4yFP8A2TDYmTpS+r4Kt++qVMRKeDtVo4bDzxmEjiZVY/L/AMKP2AtP8b+HvhFp3jz446f8K/jd+0ld+MLL9nj4Sah4A1PxBY+KpvCviDVPBVk3xE8d2/iLTIvhlD418faJrHg7wfJB4a8aNd39g97q8ei6XJHeN+dl9Y3emX15pt/byWt9p91cWN7azLtltru0meC5t5V/hkhmjeN17MpHav3Q+C/7dPwgvdC+AfxF+I3xr1H4Za38CrqB/it8BNP+GWseKb39omz+GXx68YftL/A2D4eeOLLQNS0TwXNB488ZXOgeMG8T+JPBSwWNgmpQy+Jbef8AshPxC8Ua9c+KvE3iLxRexxw3niTXdX167ihz5UVzrGoXGoTxxZ58tJbh1TPO0DNctGeLliJKvBU9cYp0qa5sPToU8TCGU1qNflbq4jH4R4itmFF16jwlWjh06GBdd4ddGX1MTOrmccQ6sqFKthVgalal7KpOc6mZLMqKi6GGcsLg/ZZdDBV/ZTWKo1pYj61iJznSwf1/+z/8JfgB8W/gV+0rea3pXxh0743/AAS+DeufGbQ/E2lfEDwVH8KtW0/T/H3w38F2nhzVfh9d/Cu88XG88vxteX1zq9n8T7WCV7S2ii0uBfNMnxHX6cfsXfCT4oW/7OP7evxpn8AeLYfhHf8A7I/ivwRZfEmTQtQTwXd+MIvjX8CNQk8M2/iFoBpsutpY21xdvpyXBuVt4ZZTHsRiPzHroqStmMqSlp/Y2WYipSvpDEVcfnlFz5P+XcquDwuCk0lFVIqFezlVlOby2p7WnmzVV1o0OIsZhaU3UdXkpQyXh3E1MPGbcvdo47F41ezv+5nKdFKMaahEooorY7wooooAKKKKACiiigAooooAKKKKACiiigAooooAKKKKACiiigAooooAKKKKACiiigAooooAKKKKAFycbcnbnOMnGcYzjpnHGeuK/R/9h39j74aftL/D34/+LPHeueOtJ1H4VaTp9/4eh8JanoFhZXk13oninUpF1mPWPDOvT3Eaz6JaIgsbnTmEMlwrOzvHJEUV+Y+L+Px+WcDY7GZbjcXl+LhmXD9OGKwOJrYTERhWzzL6NaEa9CdOrGFWjOdKpFSSnTlKnJOMmn04GMZY/BQlFShOu1OEknGS9jWdpRd1JXSdmmrpPdH5v0UUV+nHMFFFFABRRRQAV+kPws/Y++Gfjj9hL4q/tP6trnjq38feBtU8QWWk6Rp2p6BF4QuItJbw4tu2o2Fz4Yu9amkcaxc+cbbxBaKxjg8tI9snmlFfmXijj8dl+X8KTwGNxeBnieP+E8FiJ4PE1sNKvg8TjKkcRhK0qM4Orhq8Uo1qE3KlVikpwktDqwUYzxdCMoqUXOScZJSi17Obs07p6pPXqj83qKKK/TTlCiiigAooooAKKKKACiiigAooooAKKKKACiiigAooooAKKKKACiiigAooooA//9k=;" vertex="1" parent="BbfnvtyRnh7v-UzqNb1H-1">
          <mxGeometry x="160" y="200" width="485" height="36" as="geometry" />
        </mxCell>
        <mxCell id="vdu_HfzRzDCNSPZ3rfIx-9" value="" style="shape=image;verticalLabelPosition=bottom;labelBackgroundColor=#ffffff;verticalAlign=top;aspect=fixed;imageAspect=0;image=data:image/jpeg,/9j/4AAQSkZJRgABAQAAAQABAAD/2wBDAAEBAQEBAQEBAQEBAQEBAQEBAQEBAQEBAQEBAQEBAQEBAQEBAQEBAQEBAQEBAQEBAQEBAQEBAQEBAQEBAQEBAQH/2wBDAQEBAQEBAQEBAQEBAQEBAQEBAQEBAQEBAQEBAQEBAQEBAQEBAQEBAQEBAQEBAQEBAQEBAQEBAQEBAQEBAQEBAQH/wAARCAAnAuwDASIAAhEBAxEB/8QAHwAAAQUBAQEBAQEAAAAAAAAAAAECAwQFBgcICQoL/8QAtRAAAgEDAwIEAwUFBAQAAAF9AQIDAAQRBRIhMUEGE1FhByJxFDKBkaEII0KxwRVS0fAkM2JyggkKFhcYGRolJicoKSo0NTY3ODk6Q0RFRkdISUpTVFVWV1hZWmNkZWZnaGlqc3R1dnd4eXqDhIWGh4iJipKTlJWWl5iZmqKjpKWmp6ipqrKztLW2t7i5usLDxMXGx8jJytLT1NXW19jZ2uHi4+Tl5ufo6erx8vP09fb3+Pn6/8QAHwEAAwEBAQEBAQEBAQAAAAAAAAECAwQFBgcICQoL/8QAtREAAgECBAQDBAcFBAQAAQJ3AAECAxEEBSExBhJBUQdhcRMiMoEIFEKRobHBCSMzUvAVYnLRChYkNOEl8RcYGRomJygpKjU2Nzg5OkNERUZHSElKU1RVVldYWVpjZGVmZ2hpanN0dXZ3eHl6goOEhYaHiImKkpOUlZaXmJmaoqOkpaanqKmqsrO0tba3uLm6wsPExcbHyMnK0tPU1dbX2Nna4uPk5ebn6Onq8vP09fb3+Pn6/9oADAMBAAIRAxEAPwD+dT4IfDXwR8UvhBqB+L/g6x+EXgjwfHrP9hftV2czaUZtbme81GPwV4i8J6hcFfjTcz3Tm2sbPwLFa+NfDlokEdxcXOkxx2yfC0yRxzSpFKJ4klkSKcI0YmjViElEbgPGJFAcI4DLnawyDWle6/rupabo+j6jrWrX+keHoruDQNKvdRvLrTtDg1C7k1C/h0exnmkttNivb+aa9u47KKFLm7lkuZg8zs5ya7uGOHM0yTMuJ8djc8r4zB55ms8bl2QwliauWZFT9riZ1a2Gr5licdmDx2bOtDEZnh8NiMDw/hqtKlDKMjwdd5lmGb/v+S5RjctxmdYnE5lUxGHzPHSxODyuLrTweVw9pWlOdGrjK2JxTxOYe0hWxtKjVw2VUKlOnHL8tw1R4zF5haisb24tru8gs7qa0sPIN9dRW8sltZi5kMVsbudEaK3+0SqY4POZPNkBSPcwIr3D4Sf8UZ4b8d/GGf8Ad3fh+x/4QvwG5+VpPHvjKzu7VtRtyc7pPC3haPW9Y3bT5Goy6K+VaRDXl+keN/E+g+GfFvg/StT+y+HPHS6GvirTvsWnz/2oPDd/Jqeij7Xc2k19Y/Yr6WSfOnXVmbjd5V358IWMR33i3WL/AMK6D4NleCLQfDuoazq1nbW8Ahe41TXfsaX2oajKGLXt0LbT7KytZJABa2dusMQUPK0m2eZbm+eYavlFelgKOVYvOsFSxVSli69WviuFqOFw2MzChisPUwdGnTxWaZjSxORYjB0q+Iof2Hinj/rixc54GjpmeDx+Z0auAqwwlPAYjMsNCtKFerOrXyOnh6GJxlKvRlh6cIV8djaeIymrh6dWrS/squsYsSsRKWEpes/YfAngL4c+A9f1rwJB4+8Q/Eex8SauLzWdf8R6Tovhyx0fxDqHhm2sNOtPDGo6PcX+rtPps+p6hcalfz20MN1YW0dgcyTSbfw+8OeA/EHgSxsvD/hTwv48+Kt7L4hXVtB8VeL/ABR4Z1e1jhDPoj+BdP0zUvD2heIZDp8cl5NaXeralq82oxSWkWjSW5gE/lnhv4tePfCehS+GdI1ezk8PyT3N0mj654d8M+KrCzuryNYru50y38UaPrCaTcXKInnz6YLSWZkWSRmkUMH+Hfi74+8JaIdA8N6rp2j2e2+Rb2z8L+E08RxLqPmi8WDxc2ht4rtxKs0qL5GtR+TExig8qMBR8nmHC3GVbB5hDC5glmUuJa2a4LGT414qwuDxmWyr5vLB4HMMtweXxlluEy/C43A4aeUZDjsJRzWrgqWMxeZ0pUfY4nwsXknEVTD4yNDFr65LOqmOw2InxJnlDD18FKpmDw2FxeDw+ETweHwdDE4WjLL8rxOHhmFTDQxOIxtOVN063s/hW8+FcX7OPiD+3vDnxBvBF8U/AUeuDSfGnhzTDd643hT4itZXelm88A6t/Z2lRWS3sN3p14NUvLi6ltbiHVLaK3ltbmfwn4O+GMFx8DvCOs+BbrxJe/GuKK6vvFreJNbstT8Lw67441vwZpVv4ds9MmtdBuLjQo9Ji1TVpNc0vVUvpp5YEhsIAgX5/wDCXxG8YeB7XWLDw5qVtBp2vrbDV9N1PRNB8RaZevZC4WzuX03xHpmq2Md7aLd3S2t/BbxXtutxKsVwgdgdjw38Z/iX4S0ODw74f8Smx0yzOoNpe/SNCvtS0JtWDf2kfDmt6jpd3rfho3rO8twdB1DTi88klwf38jyNwZnwJxWpcRLI80lh1m3EGIzfDVJ8ZcUZfU5MVw7Xy+nKssHgsQ8JLKs4lQxtPAYetiMFnGGo0KWNnhFhMPQOXHcMZ5fN/wCzMbKisfm1TH0Zz4izvCzcK2T1cJB1Pq+GqvDywOYujiYYWjOth8woUqdPEyoLD0qR7loPgH4a6Nq3wb+H+v8AgyXxdqXxbmdNT8bQeIdc0670BdT8e694F03/AIRbTtOuo9ElfR10VNY1E69Y60Lt7l7dVs4VRq5Xw9rGvxfBL49+CLrX9Q1Dw74XvvA/9kaY93NJpNpdTePZo76+sLNpGgt3v2jEszxANJkFmbrXm/hz4z/EvwlokPh7QPEzWWm2bag2mGTSdCv9S0NtWDf2k3hzXNR0u71vw216zvLcHQdR04yTySXBPnyPI1jwx8bPiF4P8PP4V0G78MQ6HL/x9WmofDr4c67NqG2+m1KIapqGveFNS1LVRbXs8k1kNSvLoWP7uKz8iGGGNFX4L41n9bliK2UZ3UjxLw1nWX/2xxHndSlSeScXY7PsRmOFo18izKlw9jcRlE8DkVLK8npywMaca1WWMUIKjiJrcO8Rz+surUy/MprO8mzPB/2hnGZSpw/szP8AFZrVxdCnUyvG08oxNXL5YXK4YLLoSwqhGrUliOWKp1vJ6/X79lL9m39n74vfsseKv2mPGHwn8S3d5+yKvjWX4m+BtE1nxkml/taRaposut+BodP1SPxLHqfg28+Ft7ILz43n4fnSorT4SppniKzh07X57rUJ/wAgScknjk54AA59AMAD2AAHavorwj+1j+0D4CT4PweD/iDJoFn8CH8Yy/DLTbDwz4OXSdJl+IXmx+OZte0iTw9Jpnj2bxbZSnR/EE3xAtPFEmq+Horbw3dtLoFna6bD+x4mM6uDxNGjP2OJq01HDYlN/wCy1db1+RK1dOHNQ9hUtTXt/raft8JQjL7bH4fFV3hHhqvs40cSquKh7eth/rWFVKrGpgvaUYynR+tOUaf1uCdfA/71hozr0oQf6hfAH4K/DPUP2QPhp8EPD/xZufhN+0z/AMFIfEuvX+kvD8NdV8W+E9X+Gfw98ea54P8Ah78EdY8fReMrPV/h14c8YfFHw1d634j1a08P+PrvUWsPCkHia3sNJ0mW7vvob/gmX+yv8UPg98KLr4jQfAP4ifEHx3+138JP2nPCWkeMNC+HXivxV4T+Enwb8J/CP4iWlij+KNG0m80LT/iP8cvi7pmg+HvDWkyXzarJ4V0IRWtuZPG1hHcfiz8Ov23P2nvhP4Kf4ffD/wCJi+H/AAzFc+JrvQ418FfDzU9b8D3HjON4vFT/AAw8Xaz4S1Hxd8KBrqySNqMfw11zwpFPLI8xQTO0h8o+Gvxv+K/wf19PE3w68b6v4d1mPQvFPhqOcfZNWtY9F8aeHNW8JeJbNNL1y21PSlbUNA1zVLOO7WyF7p8tyNQ0y5s9St7W8h5cVhq2IpZ3SjOMI5rga2Dg3Nz9nRlgsThKOFi3T9rR5aSwOHxmNVavDHU1j8RLLKNfHYiNbzJ5VmU4VqbxeHcP7VqZnSjOm3KtWeJxValUxFSjDDSjHD3y2pgqCVepgpZXhcL9exWCpU6MPN9S03UdH1G/0jV7C90rVtKvbrTdT0zUrWex1HTdRsZ5LW9sL+yuo4rmzvbO5ilt7q1uIo57eeOSKWNJEZR9EfDD9ou5+G3w7vvAEfhVdWivbv4tXbakdcawKN8UvhGfhWy/YxpN4HGhoRrgP2pf7SYDTSLEf6dXzY7vI7ySO0kkjM8kjsXd3clmd2YlmZmJLMSSSSSSTTa4M+4aybinA0cu4hwUMxw1GtHFRpKti8LBYpYbEYR1YywuIpVUvYYvEQjCVWcUqnNrUhCcfp6dSVCvSxFFuFXD1fa0JO0nCaUoxbTXJJqMmmpRcXe/Ltb9g/2Ifgv4w8E+CLb4g2vwv8W+Ltf/AGgfBfxh8P6P4h0zwjrutaD4B+G+ifD/AMWoLqfWLCwn02w8X/Evx7Z6RoGhWM9wL1tD0y4WCMt4ltEm+af2efGN1pPwh/at+EkvgrRdD1KH4KeNde8WeI7vTrxPHF/e6P45+Guj6X4Yv5NRkY6Jpvh2W81t7jS9PtbB77UbxJNXWe40y1KfJPgv4keOfh7q0GueD/Ed/o+pW2n61pUEqi3vreKw8Q6PqGg6vAthqUN5YA3WlapfW6y/ZTPavMLuzkt7yGC4jpeHPG3ijwnF4rh0DVGsY/G/hi98G+KQ9pYXrar4c1HUtL1e909pNQtbqS0afUdF0y5N9YPa6iptjHHdpDPcRy/iVTwc4jxuccdZnned5Lnb4n4h8P8AiLLJ+xznK54OtwXxZmmZ4fCY3CxxuZYKtQyrhzEZZl2VKlT+r4zNcAs3xmDwWYr+0KnXRxdOlHK1GE4ywOPhi60ouElVU5YV4ucYuKftalOjKjRUpfu8PChRlVm4+0jytfrl8Cby38M+Gv2RPA+ieIbfTvD/AMYVtrrxz4A/4RCTXdO+PupeLfjnrnw08d+HvFmsRo1rY23w6+G2n2OraXHq4mhtJSZtLS01W6W8P5G17N4L/aD+MPw88K3Xgrwf40uNI8PXEmrT28H9k6BqGoaJPr1kuna5ceE9f1TSb3X/AAZcaxZIttqlx4T1TRZr+NQLp5SM19f4xcBZx4g5Bl2V5PicupVsJmeIxdWlmtX2ODqRr5Hm+V0cQp/2Nnq+s5fiswoYygo4KjiVGnVnlma5Hm8MuzrAc2HqKlUnJynTc6FSjTrUrurhas6lGccXQUalGTrQhSqUIpVqS9niKrlKSXs5/pX8NV0fwLJ+zT8NPB3ie3tvBXxQ16/i8TeCf+ETfxDp37QreIv2hPEvwt8X6L4s1yJGtLS2+H/wu0vTNZ0sasJobaRzPpS2mq3S3p/I3xXY6fpfinxLpmkzfadK07X9ZsdMuN4k+0afaajc29nN5g4fzbaOOTeOG3bh1r0fwX+0J8Yvh74VuvBXg/xpc6R4euJdWnt4P7K0DUNR0SfXrJdO1y48J6/qmk3viDwbc6zZItvqlx4T1TRZr+NR9qeUjNeM1zeGXh1nnBef8aZpmuY4LG0eIMSqmGq4aop4vHyWd8RZp/aGbwjk+WOljY4XOMLg1GtjeIMRzUcRCnm1HKKeT5LlPTicXSr0+WnS9km6LjRX8LDujTqQrTovm5XPMJ1IV8UoUcPGNShTVq7/AHkf16/Zt8V2nhH4e/s1eDtY8VXvgrWvH+o+Nrnw98KdI0+0vfA37RlnrXifVNB8MD45avJpN43huy1nxVZXfw9tJX0/x4V8P6bb3n9l+C4yNduPF/2U/jR8cPAPifxXJffEjx3oHwq/Z28LeNvHOtfDqy8VatbeEDrNpfT6X4W8EnTob5rB7TX/AIl69o9pd2n75L6yOpu3nKZXPzR4H/ae+Ofw48L2ng7wd47l0vQtMk1GbQkn8P8AhTWNV8Ly6uzSanJ4P8R65oWpeIvBz3s0klzO3hfVdIZrySS8BF1I8zeZWPjvxXpvhbxX4MstXeHw5441DQtT8V2f2SwkuNbu/DU2oXOim61Wa1k1dbezutTvLtrGC/hsbu8aC7vbe5ubKylt/hqfgXjsa/ErDZ7gODcdguOc6wlanUxHNmdejl2J4s4lx2d5hSpYjhrCPK8+jwtxLjMDlNSrjuIsZRzRxjHiHB5Lh8BgMI6eLhClg4v2jlh6lKdSKXLGpGC5sRRc1U/hYupCFP8Ad06NSjRcp16mYYiNOqucv7251O+vdSvZTNeahd3F7dzEAGW5u5nnnlIUBQZJZHchQACcAAV9s/s2ePlj+Cn7UXw1svCvhuza6+Bfi3xZrvjFbWa48Wa4bHxn8M9O0HQ5L66nmi0zRNGXUNYufsWkw2a6pd38VxqZuZdOtHX4brqPDXjTxL4Pg8U23h3Uv7Og8aeFrzwX4mT7Hp93/aXhq/1HStWu9N3X1rdPZ+bqGi6ZcfbNPa11CP7N5UV0kE1xHL+08dcJQ4tyHC5TThh41MDn3C+d4OOIrYnD4SnU4fz7LszvUp4WM415UsPha0sFQxFCthoY+ODxHLRq4ejisPz0a8qeMw2LnKUpUsZQxNWWkqk4xrxniLOWjqVKXtIptq8p6yjfmX6lfAm8t/DPhr9kTwPoniG307w/8YVtrrxz4A/4RCTXdO+PupeLfjnrnw08d+HvFmsRo1rY23w6+G2n2OraXHq4mhtJSZtLS01W6W8P5WeK7HT9L8U+JdM0mb7TpWna/rNjplxvEn2jT7TUbm3s5vMHD+bbRxybxw27cOtej+C/2g/jD8PPCt14K8H+NLjSPD1xJq09vB/ZOgahqGiT69ZLp2uXHhPX9U0m91/wZcaxZIttqlx4T1TRZr+NQLp5SM14zXyfhz4fZ1whxLxznOZY3AYjDcS46eIwiwdXnxOK5s+4kzaOMzWKyfLHTxlLCZzhMDGNfG8QYm+Hrwp5tRyink+S5Tc68JYWlQUZc0IYWFn8FOeHozpV69N87XtcyqTjicWoUqEY1aME3Xf7yP65fAm8t/DPhr9kTwPoniG307w/8YVtrrxz4A/4RCTXdO+PupeLfjnrnw08d+HvFmsRo1rY23w6+G2n2OraXHq4mhtJSZtLS01W6W8O/wDDVdH8Cyfs0/DTwd4nt7bwV8UNev4vE3gn/hE38Q6d+0K3iL9oTxL8LfF+i+LNciRrS0tvh/8AC7S9M1nSxqwmhtpHM+lLaardLen81PBf7Qfxh+HnhW68FeD/ABpcaR4euJNWnt4P7J0DUNQ0SfXrJdO1y48J6/qmk3uv+DLjWLJFttUuPCeqaLNfxqBdPKRmjwX+0J8Yvh74VuvBXg/xpc6R4euJdWnt4P7K0DUNR0SfXrJdO1y48J6/qmk3viDwbc6zZItvqlx4T1TRZr+NR9qeUjNfkee+APGWZ1uKKtHNeH5QzniDF5nRpYnE8sMbDEz46lh80zS3B2KdPNcrXFGWxw0Kv9tZklg8Z/ZHFfDnsOFv9WdqWLpwoxp3q05/VaOHhVppuWBr0YwjVzHCWr0nLF49xcsTGDwcIub55Ym135x4rsdP0vxT4l0zSZvtOladr+s2OmXG8SfaNPtNRubezm8wcP5ttHHJvHDbtw61+qfwJvLfwz4a/ZE8D6J4ht9O8P8AxhW2uvHPgD/hEJNd074+6l4t+OeufDTx34e8WaxGjWtjbfDr4bafY6tpceriaG0lJm0tLTVbpbw/kbXs3gv9oP4w/DzwrdeCvB/jS40jw9cSatPbwf2ToGoahok+vWS6drlx4T1/VNJvdf8ABlxrFki22qXHhPVNFmv41AunlIzX654ueH2dcecNZTk2U43APE5fjqmIrvOKvscNifaZDm2U08Y5f2Pnq+uYPF4+jjqUYYKjiUoVp5Zm2R5vDLs6wGMa8FisRXjGWGjXhXhRdDWeAnVrUqsK+GUZ4durRp054aCVWjH2Veo22l7OX6efsmfAnxB8NbHXPF3h/wCGvi3xvdfHDS/jz4R8KeKdM8Ka7r2g+CPhP4Z8IeNrSy1CfXLCwn02z8X/ABQ8a6fomiaFZzXIvZND064EEZPia0Sb8Zr2yvNNvLvTtRtLrT9Q0+6uLK/sL23ltbyyvLWV4Lq0u7WdI57a6tp43huLeZElhlR45EV1IHXeDPiT45+HurQa54P8SX+j6lbafrWlQSgW99BFYeIdH1DQdXgWw1KG8sM3WlapfW6zG1M9rJMLuzlt7yGC4j4p2Z2Z3Znd2LO7kszMxJZmYklmYkkkkkkkk5rXgDgPibhfi7jziLP+IMu4ghxdDInQxFDBY7A4+lLJ8XxHDD4bFUK+Px2Chh8DkmYZNl2Hq4GVH69WweLx+KwlDF161bGXicVRrUKdKnQdBxxOJxDhGUXS5sUqLqNJQi7p0o0qSf8ACwtGhScqrjzR/XD4E3lv4Z8NfsieB9E8Q2+neH/jCttdeOfAH/CISa7p3x91Lxb8c9c+Gnjvw94s1iNGtbG2+HXw20+x1bS49XE0NpKTNpaWmq3S3h3/AIaro/gWT9mn4aeDvE9vbeCvihr1/F4m8E/8Im/iHTv2hW8RftCeJfhb4v0XxZrkSNaWlt8P/hdpemazpY1YTQ20jmfSltNVulvT+angv9oP4w/DzwrdeCvB/jS40jw9cSatPbwf2ToGoahok+vWS6drlx4T1/VNJvdf8GXGsWSLbapceE9U0Wa/jUC6eUjNHgv9oT4xfD3wrdeCvB/jS50jw9cS6tPbwf2VoGoajok+vWS6drlx4T1/VNJvfEHg251myRbfVLjwnqmizX8aj7U8pGa/Hs98AeMszrcUVaOa8PyhnPEGLzOjSxOJ5YY2GJnx1LD5pmluDsU6ea5WuKMtjhoVf7azJLB4z+yOK+HPYcLf6s3SxdOFGNO9WnP6rRw8KtNNywNejGEauY4S1ek5YvHuLliYweDhFzfPLE2u/TvDnx9g+EWieM/hbovhxdf0VPFXxyj07WjrxtDLY/Ef4aXXwjtZPsy6TeLMNItEi18SC6UaoxGn4sVP26vkuiiv6cyPhfJuH6+Y4zLsK6ePzmdOvnGMlXxNWpmGKhWxmJeIqU69erSoznicfjK0o4eFKF67hy+zp0ow5q2IdW9OEVSw6xGKxFHDxS5aMsXUVSrGMlGMnH3YJJ+7FRXJGCbQUUUV9Cc4UUUUAFFFFABRRRQAUUUUAFFFFABRRRQAUUUUAFFFFABRRRQAUUUUAFFFFABRRRQAUUUUAFFFFABRRRQAUUUUAFFFer/D74DfHL4t6N4n8RfCr4M/Ff4m+H/BMK3HjPXfh98O/F/jPRvCNu9rd3yT+J9T8OaPqVloELWVhfXiy6rPaI1rZXdwGMNvM6KTUITqSajTpx56k5NKFOF1HnnJ2jCPNKMeaTSvJK92iZ1IU+XnnCHPONOHPJR5py+GEbtc05fZirt9EzyiiiimUFFFFABRRRQAUUUUAFFFFABRRRQAUUV6vpPwG+OWvfDbV/jLofwZ+K+tfCDQJri3174raT8O/F+o/DbRLi0ltYLuDV/HNno83hfTZrae+sobiK81SF4Zby1jkVXuIg6k1GMpyajCC5pzk0owjdR5pSdlFc0oxu2ldpbtEynCDpxnOMZVakaVKMpKLq1Z3caVNNpzqSSbjCN5OzsnZnlFFFFMoKKKKACiiigAr+jb9lK/0/wZ4S/4J1/B7w54zs9F8C/tHaVo+ofFT4Of8K4m8UaJ+1rq3xM/aV8dfB74xaN8QPFMMbafpMXwQ+EOg6LrXh6PxALhNMmQXHh5dM1ud9Qf+cmvpr4bftj/ALSfwh+Hd78K/h38T73w94Ku38RyWdn/AMI/4Q1bWvC8njDT10rxZL4A8Ya54f1Pxl8NpfE+nItp4gl+H+v+GpNZiz/aDXDMzGK8faYeNP2dOqoYyhiquHrNrD5jh6OGx1CpleMko1HHB4mriqGKqy9jiLVcDQ5aHtOStQ8bOcur5jRjTw9aNCfJiKcK7bVTBVa1NRp5lhUqc3LGYW06VKKqYaXscViJUsXhq8aVReGeNtN0vRvGfi7R9DuftmiaV4n1/TdHu/MEv2rS7HVbu10+580cSefaRQy+YOH37hwa5iiipw9OVGhRpTqyrzpUqdOdaek60oQjGVWau/eqNOctXq3qe9WnGrWq1IQVKNSrUnGnG3LTjOblGCskrQTUVZJWWiWx/ST/AMEwP2YfiT8LPg7/AMLT0/4C/EX4ieMv2x/g5+0t4c0Hxnofw48W+J/Cnwm+Cvhv4PfEKLTBJ4m0nSbrRNN+JHx0+LWn6BoHhvR5r3+1m8LaGIba2Mnjaxin+Gv2QPiXfaL+y3/wUE/Z6k+GXhXwrq1l+zX4z8X/ABA8aXmjaivxS17WNB+NHwP8O6B4N1q51meR/DOieCzqXibzfD2jWOkDUtX1M3XiGK7v9Js3i/O/4Z/G74rfB7XY/Enw48bat4b1eHQfFHhmGVRZ6raRaJ4z8N6t4S8SWUela3a6lpSG/wBA1zU7KO6WyF7p0tyuoaZcWWpW9reQ5Xgz4pePPh9ZfEPTvCOvNpVp8VvBN58OvH8b6dpOpv4g8HX+v6B4ovNIefVrC/uNOafXfDGh37anpEun6upsjbpfraXV5Bcc+Mw08TWziSlD2OZcPV8no0pqS9jUg84eXRm4vl9lRnjsNiMXWp04yxOLeKxEcJSb5MR85QyrEQq0quIrUa9SnxHkmeOrFVaXM8DmeHxGMUqLnVpyqRy2hDAYCLfIoYbCuvU9tH61HgK/o2/ZSv8AT/BnhL/gnX8HvDnjOz0XwL+0dpWj6h8VPg5/wribxRon7WurfEz9pXx18HvjFo3xA8Uwxtp+kxfBD4Q6DouteHo/EAuE0yZBceHl0zW531B/5ya+mvht+2P+0n8Ifh3e/Cv4d/E+98PeCrt/EclnZ/8ACP8AhDVta8LyeMNPXSvFkvgDxhrnh/U/GXw2l8T6ci2niCX4f6/4ak1mLP8AaDXDMzHqrx9ph40/Z06qhjKGKq4es2sPmOHo4bHUKmV4ySjUccHiauKoYqrL2OItVwNDloe05K1DXOcur5jRjTw9aNCfJiKcK7bVTBVa1NRp5lhUqc3LGYW06VKKqYaXscViJUsXhq8aVRfuH8CU8N/DOf8AYZ+A/gDx5ZWPwq+POpTr48+FA+Hkvi3RP2v28fftVfEX4K/FLT/iB4tgR9O02L4L/Bbw54f17w9/b4uI9PmxdeHV0zW7h9Qf+cnxtpul6N4z8XaPodz9s0TSvE+v6bo935gl+1aXY6rd2un3PmjiTz7SKGXzBw+/cODXufw2/bH/AGk/hD8O774V/Dz4n3vh7wVdv4jks7P/AIR/whq2teF5PGGnrpXiyXwB4w1zw/qfjL4bS+J9ORbTxBL8P9f8NSazFn+0WuGZmPzLXJRwtSliJVJ1nW1xkpYip/vGIhisTCvhcJWjytLD5LShPC5fJVpqdLFYi1HCU406B05fhKmFq5nUmqUIY2thZ0aFF3p0ZYapmUsRi21RoJYrNfrtCrjYqnJwrYSMVia9BYelhf6QP2LfH1h8P/g9+xH8LfEPjzUvhv4t+Lg+KN94N/Zx0DRtO1T4Q/tmWHizxp4k8NeAJ/2pvE03h7UH8FQ+KvG9jqPwp05pdH+K5Twp4f03UGsPhTFIviSb5a/4J+ftQ/tU/CXxP8R9S1X44fFvwx8Af2M/ht8SPiPrXwcsfiB4itPhzJ4tXU7nwx8N/hkdDg1N9Jl07xN8Z/FmhR3+m7Z4tS0u31ySQXEfnufh74X/ALeH7V/wa8A6d8NPhz8WZ9C8J6EdbPhRbnwf8PvEXiPwIfEbyza5/wAK58c+J/Ces+OPhx/adzcXF5c/8IJ4i8Pbr+4uL9dt5PLO/hOl/Fj4gaL8PvHXwt0zxC9r4H+JmueFfEfjzSl07SJLvxLq3gl9Zm8MSX+vzafJ4jFnplzr+qXv9k2+rQaTe6hNBqOoWN3fWGn3FrWIw9SriM0qQcFDG0MTRo8zblTlXrVoYTE8vJLkxeV4bF4ivCcqmIw2JxkKFHCYTJMFKtTn5WHyN+wxVDGUsHVjisfg69VW9rz4ZY7G4jNYRcsPS9hPMMNiVhaDgp4rCKc5YnMsydDBuhxGpajeavqOoatqExuL/VL261G+uGChp7y9nkubmZgoCgyzSu5CgKC2AAOK/Uv9i74uIv7Jf7e3wR0zwB4J0nz/ANl/xV8QPFnxHhsLq7+IPi+fT/jD8C9H8J+HLvVr+6uYdF8L+FrfVvENxFpHh620y31rUNXTUNcW9u9MsZY/ynrvfBPxP8c/DrT/AIgaV4N1z+x7D4peB7r4b+O4P7N0fUP7d8F3uvaB4mudG83VdPvptM83W/C+hXv9o6NJp+rJ9h+zR3yWlzeW9xrWoxnl+YYGEYxhisqx+ApQ+GlCpXwVWjhHJRV40qOJdCpLljJxhTvGE2lCXt42hLF1svrylz1MHnmTZtKdSU7yjgM1wuMxTsrqpWqYWniI0Y1VyPETpzlOlKMa1P8Afn9lK/0/wZ4S/wCCdfwe8OeM7PRfAv7R2laPqHxU+Dn/AAribxRon7WurfEz9pXx18HvjFo3xA8Uwxtp+kxfBD4Q6DouteHo/EAuE0yZBceHl0zW531B/wCfDxtpul6N4z8XaPodz9s0TSvE+v6bo935gl+1aXY6rd2un3PmjiTz7SKGXzBw+/cODXufw2/bH/aT+EPw7vfhX8O/ife+HvBV2/iOSzs/+Ef8IatrXheTxhp66V4sl8AeMNc8P6n4y+G0vifTkW08QS/D/X/DUmsxZ/tBrhmZj8y0nRk8fiMVdclWtmFZSv8AvZUsdjI4nCYCouV2wuQ0YyweWy9tPno4mvajg6cadA5MpwNbAfXvbThJYl4JU4U3eKnhJZi8Tj5/uqKWLzh42hXx8eWpKFfCxisViKCw9PC/0bfspX+n+DPCX/BOv4PeHPGdnovgX9o7StH1D4qfBz/hXE3ijRP2tdW+Jn7Svjr4PfGLRviB4phjbT9Ji+CHwh0HRda8PR+IBcJpkyC48PLpmtzvqD9P8CU8N/DOf9hn4D+APHllY/Cr486lOvjz4UD4eS+LdE/a/bx9+1V8Rfgr8UtP+IHi2BH07TYvgv8ABbw54f17w9/b4uI9PmxdeHV0zW7h9Qf8PPht+2P+0n8Ifh3e/Cv4d/E+98PeCrt/EclnZ/8ACP8AhDVta8LyeMNPXSvFkvgDxhrnh/U/GXw2l8T6ci2niCX4f6/4ak1mLP8AaDXDMzE+G37Y/wC0n8Ifh3ffCv4efE+98PeCrt/EclnZ/wDCP+ENW1rwvJ4w09dK8WS+APGGueH9T8ZfDaXxPpyLaeIJfh/r/hqTWYs/2i1wzMxjEYeVWvWq8lKrCWZYrMKlGtJqGZ4LETxksPw3mFqdVwynKliKUMFU/wBruqPuYLCWofV/GqcP42dHF044mlSliY0qVGrGT5sBiaccwjV4gw9sNBvN8c8XTliqalRqQftvZZr7mBeE8M8babpejeM/F2j6Hc/bNE0rxPr+m6Pd+YJftWl2Oq3drp9z5o4k8+0ihl8wcPv3Dg1/Qf8AspX+n+DPCX/BOv4PeHPGdnovgX9o7StH1D4qfBz/AIVxN4o0T9rXVviZ+0r46+D3xi0b4geKYY20/SYvgh8IdB0XWvD0fiAXCaZMguPDy6Zrc76g/wDOTX018Nv2x/2k/hD8O734V/Dv4n3vh7wVdv4jks7P/hH/AAhq2teF5PGGnrpXiyXwB4w1zw/qfjL4bS+J9ORbTxBL8P8AX/DUmsxZ/tBrhmZjaoyWAw+Fm1jJ4ethK2IjiXy0s3pYbB4zDVcBj2o1eTC42tiaOMry9jieWtgqPLRdTkr0PZz/AANbNuf6rOGDdR4xUpp2ll08TFqjj8Hy0m5YvBLmoUYxlhJewxOIlSxWGrxo1I/ut/wT2/ZP8a/BPwj4v8d+E/gb8RfihrH7WXgP9rXwV4J8faH8PPFnivwp8MPgD4N+GfxNsPDlxJ4q0jSbvQ7H4kfHv4n6V4a0Tw3pUt6dVl8LaKI7a2Mnjexin/mc1LTdR0fUb/SNXsL3StW0q9utN1PTNStZ7HUdN1Gxnktb2wv7K6jiubO9s7mKW3urW4ijnt545IpY0kRlHo/wz+N3xW+D2ux+JPhx421bw5q8Og+KfDMUqiz1W0i0Txp4b1bwl4kso9K1u11LSkN/oGuanZR3S2QvdOluV1DTLiy1K3tbyHy13eR3kkdpJJGZ5JHYu7u5LM7sxLMzMSWYkkkkkkmsqWGrU8Z9YnXdeH9l4HL1KpFqt/sGJzGdJy5X7NudHGRq4mrGMPrWPrYquqGHTftt8Jhq1CvmVatOlP69jZ41exhKmozqympQnTcpwUaGHjhMDhvZuLWEwdGNX2lXmqP+jT9lK/0/wZ4S/wCCdfwe8OeM7PRfAv7R2laPqHxU+Dn/AAribxRon7WurfEz9pXx18HvjFo3xA8Uwxtp+kxfBD4Q6DouteHo/EAuE0yZBceHl0zW531B+n+BKeG/hnP+wz8B/AHjyysfhV8edSnXx58KB8PJfFuiftft4+/aq+IvwV+KWn/EDxbAj6dpsXwX+C3hzw/r3h7+3xcR6fNi68Orpmt3D6g/4efDb9sf9pP4Q/Du9+Ffw7+J974e8FXb+I5LOz/4R/whq2teF5PGGnrpXiyXwB4w1zw/qfjL4bS+J9ORbTxBL8P9f8NSazFn+0GuGZmJ8Nv2x/2k/hD8O774V/Dz4n3vh7wVdv4jks7P/hH/AAhq2teF5PGGnrpXiyXwB4w1zw/qfjL4bS+J9ORbTxBL8P8AX/DUmsxZ/tFrhmZjWIw8qtetV5KVWEsyxWYVKNaTUMzwWInjJYfhvMLU6rhlOVLEUoYKp/td1R9zBYS1D6v8/U4fxs6OLpxxNKlLExpUqNWMnzYDE045hGrxBh7YaDeb454unLFU1KjUg/beyzX3MC8J4Z4203S9G8Z+LtH0O5+2aJpXifX9N0e78wS/atLsdVu7XT7nzRxJ59pFDL5g4ffuHBrmKKK2w9OVGhRpTqyrzpUqdOdaek60oQjGVWau/eqNOctXq3qfZ1pxq1qtSEFSjUq1Jxpxty04zm5RgrJK0E1FWSVlolsFFFFamQUUUUAFFFFABRRRQAUUUUAFFFFABRRRQAUUUUAFFFFABRRRQAUUUUAFFFFABRRRQAV+2f7Bn7IvwU+JPhv4HeGv2j/DX7OGkv8AtQ+KfEFp8LfEmv8AxZ/ae0H9pTVfD8GtXXgL+0fh54R+G2j+KfgEkOk+M9G1aHRI/i1ZaLLrt5b30N/ex6P9jvYvxMr67+C37dv7Uf7Pvh/w94X+GHxD0ey0Pwdrd94j8EWni/4WfCH4py+Atc1OZLrUdT8AX/xU8BeNNQ8CXN/eRrfXjeEbvRludQ3X8yveO87ZYmE6uExFGlLkrVoqCnzypyjTtJzVKvTTqYWu6iouGJjCty0o16LoOVeNah5OcYXMMVhoQy3ERw1eM6k1VlXq0FGf1avChKXsqVZV6ccROlOrhqkFCrCLfPGUIxn+hH/BPj4KfAj4Q/HH/gn/AOPfiY/xZ8W/F/4/fGC68Q/CvS/BHiHwh4S+H/gHw74K+Jup/DjSda+ILa54M8Y6745vtd8UeG9eupvDXhu+8Df2dotpaM/iJ7zUAltY/YE+DnwJ+Fvx8/YJ+JHxOPxY8VfGD9oj40ah4p+FmkeBvEXhHwn8Pvh/4e8I/FLVvh7pWr/EBtd8GeMdd8dXut+KfDuvXM3hrw3feBjp+iWdo0niJ7zUAlt+fHwf/b4/ao+BOheHvDnw48f+HLbS/B2var4m8E/8Jf8AB74J/E/UvAet65eLqOr33gLXPih8OvGOueBv7Q1Jf7TurbwnqOj2kmptJqJg+2yyTufB/wDb4/ao+BOheHvDnw48f+HLbS/B2var4m8E/wDCX/B74J/E/UvAet65eLqOr33gLXPih8OvGOueBv7Q1Jf7TurbwnqOj2kmptJqJg+2yyTvz1KOJlKtKM4uTk1TftJUubCt1GsKuSk1ha0GsJ7TM6Xta2K9jWvhsP8AWIfVvOzHKcwxcOIKdGpRjDN1ChSjUxeIVsNRXFMcO6/LhZONKks5y9Ry6lzUpfVq3tsXW/efXvk7Wv8AkM6t/wBhO/8A/SqWsypZ5pLiaa4mbfNPLJNK+FXfJK5eRtqBVXczE4VQozgADAqKumlB06VODs3CnCDa2vGKTtdJ2utLpeh9diqsa2JxFaCajWr1qsVJJSUalSU0pJNpNJq6Tavs3uFFFFaGAUUUUAFFFFAH7m+DfhV+z38f/gt/wS4+AfxM0r422XxJ+LPgb4zeEPh/8Qvh54x8E2/gnwXLqv7THxagsdS8b/DrX/hxrOv+LdPsNWBvtbm0X4j+DWt9AW4eJGubXzZ8H9mr9gPRPjdqn/BOzxB4X+Bvi34sfDHxb4v8beEP2x/FfgR/iFr/AId0zU/D/wAb/FOm20PjzV/C+qSN8KoT8Km8KXtrd2k3g+3vdIng1pZ576a8vW+B/Cn7dH7UPgb4VaH8GfCPxE0vQPBPhjw/4s8KeGbnTvhl8JoviD4c8N+OtV1jWvF+i6B8YD4Gb4u6Lp2v6jr+sy6hbab44tUkh1G4s1CWTC3XoP2Vv2oPhj+zBNY/EC1+B/ibxx8fvC2vXPiDwF44vvjbfeHPhjol/BZJH4aufEfwh0bwCdT8YXPhvVTcaxEJvifpOm6jK1ta3eliCCb7Xx16Vf2uY16L+PMsdmuGhCXv4mWKxma1IYOth5SpUIQjQzKFWsljKcMVjMPRrVKkJYWn9Y+VxGX5zDAYzD4XEOFbE1cTDDKliKklho4mnmqli54qpUwlehz1MVl9SNKhSxqy6eAbwlHEPF1J0Prn4Zar+yHp3/BOD4u2/jn4Y/tG6vDp/wC1l8DbHxsng745/DXw1/a3jT/hXH7Qf/CP6t4SfXf2evGDeG/CdlokWq2eq+HdbPi3WdS1O507ULXxXpltY3Wm6j6F8Hf2Z/2E/BvwU/Zk8Z/tCa98E7PT/wBozSfFHjjxf4h+KvxI/as0f4seCvBVl8S/E3gOGw+Cmk/An4V638G9Y8ReGdI8OpqmpTfFO61M6z4rvH0650Dwr4eNjeXf5V/CT9p/42fA7T/HOjfDnxTpdloHxJ+wt428M+KPAnw9+JHhXXbrS/7R/srU5vDHxK8K+LtAtdb0kavqa6Vr1hp1rrempfXKWWoQLKwO18Pf2wf2hPhh8OL74Q+GPGmk3nwzvLjWLyHwZ46+HPww+KeiaDfeILYWut6h4Ot/if4M8YP4G1LVIgrXmo+DJNBvZrlI7xp/tccc6lejWqTx9aEkquLnlNa7rVabmsHkeGyrF4OUqak8NCrisJh8bQx9FVK9LD0o5ZChSoN1V3YrLMVOdSnhMVXwuFeaZhiIujjatOssNjMRi8TRqKM8PXpwq4R4udCWAvPCYuSp42tXjVo06K+fdet9KtNd1q00K9k1LRLbVtRt9H1GaNoZr/SobyaPT72WFkiaKS6tFhneNo42RpCpRCNo/cz9mL9jv4V+Lfgp+x/r/iz9j7UfiB8OvjdoHxb8R/tIftfX/jD42eFNH/Z80Pwl8UPHHg6PVLHxDofi3SvgZoM/hbwp4XtfEsGkePvDPiLUPFGoT/2fFBML6zhH4O19CfE74+XnxG+Dv7OnwhTQ7nQ7L4B+D/G/habUF8Qy39r4zm8Y/FLxZ8Sk1aTRBpdhDokulDxONEW3a91t7oWA1EXdp9p+wW916VV4CjhqVSc67xVCnVrzk4zeFjluaQq1qsqEsNUaeNeXynDCVsLXnNxdOpSoxrOPXmuHxOOnQWGrTwMHiK1StPDTqQdGnOhXhBUoqtCM3TqVISowxMcXh1OEJ18NWUFb9CPhZq/7H1h/wTb+LEXjL4c/tH+JLKx/au+BVn4xuPCPxv8Ahn4UfxB4vPw2/aCPhvXvCqa1+zz4vHhbwtDoUWqQav4Z1j/hLNXv9Uu9PvrPxVpdrYXOm6j574d0z9jf4P8AwD/ZZ8b/ABg/Zx1b4p2P7Q+tfGyTx74zg+JvjzSfiX4A8JeBvH8XhDRm+F+j+H/FHg74aal4n0/SrhdTk/4T3w/rGka1q1ubeaPSrC5za/F3wd/aZ+NHwF0nxn4e+GnijS7Dw38QotNj8Y+F/FHgX4ffEnwtrc2jJqEej6jN4Z+JXhXxdoNtrekJqupJpWv2On2ut6cl9crZ6hCsrg8J4j+J/jnxZ4K+Hvw78Qa2L/wd8K08VR+AtHGmaPaDQU8bayniDxOov7HT7bVNTGp6vGl3/wATm91A2W37Pp32S1JgKq0J1MZjK/PJ0sbPLZVH7WpSquGFyTB5ZiKf7lQ9nKWJwFGvQrUKlGdPD1Hg4KjSw8I1sFl1azpKrUoUVmWNxSdDHYvndDFPMa9KEVP+G6FfHRjKhKpiKOJ+rU8XXlKty0ocVeizF5djT3uZLAXM4sXvY4orx7MSuLZ7uKCWaGK5aHYZ44ZpYklLrHLIgDH728CX17Yf8E0Pj69jeXVk837ZP7OFvM9pcTW7S28nwe/aPMkErQuhkhkKqXiclG2jcpwK+AK+vvhB+0P8L/CH7O/xZ/Z6+Knwc8W/EfTPiD8QfBPxQ8O+IvCHxg0/4Y3fhLxb4E8I+P8AwppB1PT9R+FHxJj8VaNMnj67vb3ToLzwzcytYQ28WpQ+c08WmJhKWVY/Dw5qtaayaVKm3FTxH1HiTI8yxEOeThSVSWDwOJmvazpU5ziqfNFzin24uNSeJy+tCjzxpY6tVqxpunFUqdbLswwsaijUqQvCnWxNJuMHOooXcITcbH0H4R0r9kL4Ofs8fsn+NPjh+zre/Fk/tC6j8ZW+JXjnTPiN8QNA+IHgXw74F8dW/g/T5/hL4e0bxh4Z+HVzr1nYXB1VIPiFpPiHTdV1GBbO6ksLOcywdB+x38XLBP2Vv+CgHwQ8N+A/CWm2E37NHjHx/r/xKn02Wb4m+MotP+M3wO0bwV4f1XUbm/v7LQNA8MWOra9ctonhhLKy1fVdYF9rD6jcaXp9wn5t+Ivid448V+Cfh58Odf1z7f4N+FUfiqLwFo/9m6Ra/wBgp411lPEHiZf7QstPttV1T+09XjS7zrV9qJstvkaebS2JhJ4J+J/jn4daf8QNK8G65/Y9h8UvA918N/HcH9m6PqH9u+C73XtA8TXOjebqun302mebrfhfQr3+0dGk0/Vk+w/Zo75LS5vLe4ivQlXw2bUZSblmGX5tgqcXOaoL6xQxEMtdSkvcp/VqssPOtUo0/aT5JyqfWZQpo445dU/2OdSrKtVw/EOU5w3VxFerCnRy/PFjqkKEal1Gc8vlUoU6DSw0a9LDez9h7JV1+xX7J3x71b4q/Az9mf8AYw+CX7Y/7Q37L/xsi1n4r+GI/CvhHwVqlz8Hvih4h+Jfi6413wmvjDxz4U+LGj+IPDtrBZ7tHvtSk+F/iuDTU1C4urjytOt7iU/iDe201neXdncFGuLW5ntp2jkWaNpoJXilKTIWWVC6sVkUlXXDAkEGvpXwN+2P+0N8MvhwfhZ8O/GGgeCPDZ03XdHbWPC/wt+E2ifE59K8TT302u6dJ8atP8DQfGOSz1AaleWksD+O2jj0yYaRAsWlxQ2cfzDVeyaxuJrx5fZ1oQXM7OrOcalWV5XpupTjFTuqcsViaSc3ChTwsKT+sbZbg54JY6MlSjTxGLqYijCm4SlF1a+LrV6larDDYX2ksQ69HkpTp1KmFdGqpYzGLER+r/qL+zt+xn8E/iZ+yl+0F8UvFn7S37OmgeNdA0b4O3/hybxFqH7R9tc/BK48RfEWXRdctviRYeFfgprGiapc+LdLjXRtFXwwPiPa2d7LHcXE+hjzL+P8ydVsodN1TUtOt9SsNZgsL+8soNY0r7b/AGXq0NrcSQR6lpv9pWWm6j9gvkjW6s/7Q06wvfs8sf2qytZ/Mgj0NO8V+KNH0TxF4Z0nxJr+l+G/F6aVH4s8P6drGo2WieKE0K+/tPRE8RaVbXMVhraaNqX/ABMNKXUre5Gn33+l2ghuP3lYFWoT9tVqe0l7Ocm4UElyU0400kpSTqe44TUffs1NympVPeN8LQrUHinWxNTFKtXhUo+0VNOjTjh6VOUIqnCnFKdSM6kko8q92UUpzquf9G37KV/p/gzwl/wTr+D3hzxnZ6L4F/aO0rR9Q+Knwc/4VxN4o0T9rXVviZ+0r46+D3xi0b4geKYY20/SYvgh8IdB0XWvD0fiAXCaZMguPDy6Zrc76g/zd8CP2W/2aviL8C/ix+0Dqnww8SavYfsYeJvinZeNfCWia54xbS/2vtFliv8AUfhs+n6zF4mTUvCN58NGEOofG+X4fHS4bb4SjTPElnDp+vXF1qE/56fDb9sf9pP4Q/Du9+Ffw7+J974e8FXb+I5LOz/4R/whq2teF5PGGnrpXiyXwB4w1zw/qfjL4bS+J9ORbTxBL8P9f8NSazFn+0GuGZmOf4R/ax/aB8Bp8IIPB/xBk0Cz+BD+MZfhlptj4a8HLpOlS/ELzY/HM2vaRJ4ek0zx7N4uspTo/iGb4gWniiTVfD0dt4bu2l0CztdNh5sVh6tWeZVKNRUq2KnmFTC4u79rh1jcZ9ZwmGqU+Vqthciw0auWZbRnWlSlRzCvi1Swc8Fg8NLxKOU5hQc3TxEFCpisDUrUYYmtQjiaODhmyxspVaFCEqOL4hlj8NPH4mEKmIy+thY4jDYjFulhKOH/AHF/4JkfszfEb4Z/CW4+LOlfs+fEDxz4u/bN+EX7TWg+HfFHhv4deNPFPgz4OfBLw/8ACH4iJpNsniiz0/VNO0/4hfG74sWHh/w34W0i/wBWuNek8JaAkSJNc+NrMXNL9mRD8M9D/wCCfXwHtPEn/CIeG/j1bWC/Gf4E6j8Lr3WrX9qPxN4//ac8ffBX43+GPifrkkCQeHp/gL8KvDuk6lpFj4oikk0S8gd9Dh0nX5Jb5vwX+Hfx1+LPwn8Sv4u+HvjTUPDOtto/i3QFe1ttMudNg0fxz4e1fwr4msbTQNRsbzQLKK+0LXtUsbZrTTIJdIa4S80aTT760s7m39C+HP7ZX7S3wm+H2ofC/wCH/wAUb/QvB19L4knt7Z9B8I6xrvhqfxlYLpfi+fwF4z17w/qnjP4cT+KbBRbeIp/APiDw3LrUZY6i9y7MxeIw9SriZ1+WlVounlsJYGvKbpYvC5bPiCMMmxdXlmpYGvHN8NjMbivq1SWKzLCyxCwGHqSjWWOKyLH144yP12i6uLrYmtHGQpyw9XCYnE05Uo5nQoJV4LGYGhTw+XYKnRrYaUMvU0sbDFwp4k/cH4Ep4b+Gc/7DPwH8AePLKx+FXx51KdfHnwoHw8l8W6J+1+3j79qr4i/BX4paf8QPFsCPp2mxfBf4LeHPD+veHv7fFxHp82Lrw6uma3cPqD/EP7MvxK0jRP2fv+Ckn7PPg/wT4JtdFsfgN8SPF2q/FKG0udQ+IPjmy0H47fBbw74D0W71u+u7m30nwv4d0zUdbvYtL8O22m22uahrKajrYvbrTbGWP4a+G37Y/wC0n8Ifh3ffCv4efE+98PeCrt/EclnZ/wDCP+ENW1rwvJ4w09dK8WS+APGGueH9T8ZfDaXxPpyLaeIJfh/r/hqTWYs/2i1wzMx8i8E/E/xz8OtP+IGleDtc/sew+KXge6+G/juD+zdI1D+3fBd7r2geJrnRvN1XT76bTPN1zwvoV7/aOjyafqyfYfs0d8lpc3lvcYywNWVHM6M63t3jctzzCrEVW1VrzzOE5ZZhsUlGTjg8gqxp08FOFWq5Ua+IcMNh4QpYZ99LK6kcS8RJUYxjxBw3m1GhTnJ0qMcmzjEY3MMUlGhQhPHZxhMTzV6dSlKEMbhqH+1yowwssD+/P7KV/p/gzwl/wTr+D3hzxnZ6L4F/aO0rR9Q+Knwc/wCFcTeKNE/a11b4mftK+Ovg98YtG+IHimGNtP0mL4IfCHQdF1rw9H4gFwmmTILjw8uma3O+oP8Anf8AsvxwaPo3/BS3wvomq3V74V0j9kv4j22iobyWWzubOx/aK+B1nYagsQc27zT2McbfaVTe6yH5trV85/Db9sf9pP4Q/Du9+Ffw7+J974e8FXb+I5LOz/4R/wAIatrXheTxhp66V4sl8AeMNc8P6n4y+G0vifTkW08QS/D/AF/w1JrMWf7Qa4ZmY9J8Gv2iPhh8IPgj8dfA0Hwc8W678XPjh8N9Y+FF78T5Pi/p+n+C9A8H6p4w8D+Mo/s/woHwovdS1DW7a+8E29u+pP8AFGztri3vpSNMgeFTLpi6FSp/btWCU5Y3LuJqWHimlWrSzqlXjluWz50qcMJkKqfVcvqTxHK8NXxMo0sKoUcNLLC5bicJOjzKNaNTiDhHFy9lOnyYajkueTzDM82q88cPJ4rNaE41sdSo08TiHicPSpQrYnDujHB/N2jeAfHfiLwz4t8a+H/BXi3XfBvgBdGfx34t0bw5rGp+GfBSeI759M8PP4t16ys59K8Nrr2pRyafozazd2Q1S+je0sTPOjRjkq+m/h5+0jd/DP8AZu+PXwE8O+GJXv8A9onVPANv468Y33inVpNMg8EfDvW4vFujeH9I8BW8Vroi+I5fFtvBeS+ONWu9Wv7LQmv/AA9ounaXHq+rX178yV2Xl7atG37mH1f2NS6vVc8LQq13a90qWJqVcOuaMG5UZOKnT9nWq+3QlWnGs69NUmsXVhh4qSk5YOFLDqnWqtOUY1auJ+tuMIyaWFWFnPkrzrUaX7Z/sGfsi/BT4k+G/gd4a/aP8Nfs4aS/7UPinxBafC3xJr/xZ/ae0H9pTVfD8GtXXgL+0fh54R+G2j+KfgEkOk+M9G1aHRI/i1ZaLLrt5b30N/ex6P8AY72Lwb4NfEf4iah/wT2/b0+EOreOfFGrfDX4f3P7POpeD/BN/rF7ceGPDmra38d3/tzVNG0WSZrDTb7WHjWTUZ7WGOS6cAysxFeAfBb9u39qP9n3w/4e8L/DD4h6PZaH4O1u+8R+CLTxf8LPhD8U5fAWuanMl1qOp+AL/wCKngLxpqHgS5v7yNb68bwjd6MtzqG6/mV7x3naf4Zft4ftJ/CD4eXvwr8Ca18KrTwNqrs+uaV4h/Zo/Zm8d3niNv7cu/Elv/wlPiHx58IPEviXxQum61fXF7oieINY1JNBPkW+jLYWtpaQQcuIo16lfFVIOE6U/qn1fDVKk4UbYPEqvQlUpqnWhSxFONOmq2KpRl9bxH+0+wwvs6dFeLDAZlF4mVV4fEylmuXY3B+2xeIl9Tp4fGZjWxroSnhKk6DxeFq5fhYYWDlSpRji0sR7NqGI+PaKfI7SyPI+3dI7O2xEjTc7FjtjjVY41yTtRFVFGFVQoADK7FeyvZO2qTuk+tnZXXnZX7I+hdrvlbcbuzaSbV9G0nJJtbpSaT0u9wooooEFFFFABRRRQAUUUUAFFFFABRRRQAUUUUAFFFFABRRRQAUUUUAFFFFABRRRQAUUUUAFFFFABRRRQAUUUUAFFFFABRRRQAUUUUAFFFFABRRRQAUUUUAFFFFABRRRQAUUUUAFFFFABRRRQAUUUUAFFFFABRRRQAUUUUAFFFFABRRRQAUUUUAFFFFABRRRQAUUUUAFFFFABRRRQAUUUUAFFFFABRRRQAUUUUAFFFFABRRRQAUUUUAFFFFAH//Z;" vertex="1" parent="BbfnvtyRnh7v-UzqNb1H-1">
          <mxGeometry x="160" y="236" width="748" height="39" as="geometry" />
        </mxCell>
      </root>
    </mxGraphModel>
  </diagram>
</mxfile>
